<?xml version="1.0" encoding="utf-8"?>
<!-- Generator: Adobe Illustrator 21.0.0, SVG Export Plug-In . SVG Version: 6.00 Build 0)  -->
<svg version="1.1" id="Layer_1" xmlns="http://www.w3.org/2000/svg" xmlns:xlink="http://www.w3.org/1999/xlink" x="0px" y="0px"
	 viewBox="0 0 43 43" style="enable-background:new 0 0 43 43;" xml:space="preserve">
<style type="text/css">
	.st0{fill:#FFFFFF;}
</style>
<title>Artboard 8</title>
<path class="st0" d="M32.6,14.6c-0.8,0.4-1.7,0.6-2.6,0.7c0.9-0.6,1.7-1.5,2-2.5c-0.9,0.5-1.9,0.9-2.9,1.1c-1.7-1.8-4.6-1.9-6.4-0.2
	c-0.9,0.8-1.4,2-1.4,3.2c0,0.3,0,0.7,0.1,1c-3.6-0.2-7-1.9-9.3-4.7c-1.2,2.1-0.6,4.7,1.4,6.1c-0.7,0-1.4-0.2-2.1-0.6v0.1
	c0,2.2,1.5,4,3.6,4.5c-0.4,0.1-0.8,0.2-1.2,0.2c-0.3,0-0.6,0-0.9-0.1c0.6,1.9,2.3,3.1,4.2,3.2c-1.9,1.5-4.3,2.2-6.7,1.9
	c6,3.8,14,2.1,17.8-3.9c1.3-2.1,2-4.5,2-6.9c0-0.2,0-0.4,0-0.6C31.2,16.3,32,15.5,32.6,14.6L32.6,14.6z"/>
</svg>
