<?xml version="1.0" encoding="utf-8"?>
<!-- Generator: Adobe Illustrator 21.0.0, SVG Export Plug-In . SVG Version: 6.00 Build 0)  -->
<svg version="1.1" id="Layer_1" xmlns="http://www.w3.org/2000/svg" xmlns:xlink="http://www.w3.org/1999/xlink" x="0px" y="0px"
	 viewBox="0 0 43 43" style="enable-background:new 0 0 43 43;" xml:space="preserve">
<style type="text/css">
	.st0{fill:#FFFFFF;}
</style>
<title>Artboard 7</title>
<path class="st0" d="M22,22.8l-0.9-0.7c-0.4-0.2-0.6-0.6-0.6-1c0.1-0.5,0.3-0.9,0.7-1.2c1.9-1.1,2.6-3.5,1.5-5.4
	c-0.3-0.5-0.7-1-1.2-1.3H23l1.6-1h-4.8c-1.6,0-3.2,0.5-4.6,1.4c-1,0.8-1.5,2-1.5,3.2c0,2.1,1.7,3.8,3.8,3.8c0.1,0,0.1,0,0.2,0
	c0.2,0,0.5,0,0.8,0c-0.1,0.3-0.2,0.6-0.2,0.9c0.1,0.6,0.3,1.2,0.8,1.6c-1.6,0-3.2,0.4-4.6,1.1c-1.1,0.6-1.8,1.7-1.9,2.9
	c0,1.8,1.7,3.5,5.2,3.5c4.1,0,6.3-2.3,6.3-4.6C24,24.5,23,23.7,22,22.8L22,22.8z M18.8,20c-2.1,0-3-2.7-3-4.3c0-0.6,0.2-1.2,0.5-1.7
	c0.4-0.5,1-0.8,1.7-0.8c2,0,3,2.7,3,4.4c0.1,1.2-0.8,2.3-2,2.4C19,20,18.9,20,18.8,20z M18.8,29.7c-2.6,0-4.2-1.2-4.2-3
	c0.1-1.2,0.9-2.2,2.1-2.5c0.8-0.2,1.7-0.4,2.5-0.4c0.2,0,0.4,0,0.5,0c1.8,1.3,2.6,2,2.6,3.2C22.4,28.6,21.2,29.7,18.8,29.7
	L18.8,29.7z M28.1,20v-2.4h-1.2V20h-2.4v1.2h2.4v2.4h1.2v-2.4h2.4V20H28.1z"/>
</svg>
