<svg width="16" height="17" viewBox="0 0 16 17" fill="none" xmlns="http://www.w3.org/2000/svg">
<g clip-path="url(#clip0)">
<path d="M11.334 2.07129H4.66732C2.82637 2.07129 1.33398 3.56367 1.33398 5.40462V12.0713C1.33398 13.9122 2.82637 15.4046 4.66732 15.4046H11.334C13.1749 15.4046 14.6673 13.9122 14.6673 12.0713V5.40462C14.6673 3.56367 13.1749 2.07129 11.334 2.07129Z" fill="white" stroke="white" stroke-width="1.5" stroke-linecap="round" stroke-linejoin="round"/>
<path d="M11.1924 9.12025C11.2921 9.79247 11.1773 10.479 10.8643 11.0822C10.5513 11.6854 10.0561 12.1746 9.44908 12.4801C8.84206 12.7856 8.15416 12.892 7.48322 12.784C6.81228 12.676 6.19246 12.3593 5.71193 11.8787C5.2314 11.3982 4.91463 10.7784 4.80666 10.1075C4.6987 9.43651 4.80504 8.74861 5.11057 8.14159C5.4161 7.53457 5.90526 7.03935 6.50846 6.72636C7.11166 6.41337 7.7982 6.29855 8.47042 6.39823C9.15611 6.49991 9.79092 6.81943 10.2811 7.30959C10.7712 7.79975 11.0908 8.43455 11.1924 9.12025Z" stroke="#E78265" stroke-width="1.5" stroke-linecap="round" stroke-linejoin="round"/>
<path d="M11.6309 4.65088H11.6396" stroke="#E78265" stroke-width="2.5" stroke-linecap="round" stroke-linejoin="round"/>
</g>
<defs>
<clipPath id="clip0">
<rect width="16" height="16" fill="white" transform="translate(0 0.737793)"/>
</clipPath>
</defs>
</svg>
