<svg xmlns="http://www.w3.org/2000/svg" id="Layer_1" fill="#fff" data-name="Layer 1" viewBox="0 0 43 43"><defs><style>.cls-1{fill:#fff}</style></defs><title>Artboard 2</title><path d="M12.5,14.9a1.87,1.87,0,0,1,.61-1.43,2.23,2.23,0,0,1,1.58-.56,2.16,2.16,0,0,1,1.55.56,2,2,0,0,1,.61,1.49,1.83,1.83,0,0,1-.59,1.39,2.23,2.23,0,0,1-1.6.57h0a2.13,2.13,0,0,1-1.55-.57A1.93,1.93,0,0,1,12.5,14.9Zm.23,15.2V18.49h3.86V30.1Zm6,0h3.86V23.62a2.26,2.26,0,0,1,.88-1.94,1.89,1.89,0,0,1,1.24-.41q1.95,0,1.95,2.62v6.2H30.5V23.45a5.59,5.59,0,0,0-1.22-3.9,4.15,4.15,0,0,0-3.21-1.33,3.94,3.94,0,0,0-3.49,1.93v0h0l0,0V18.49H18.72q0,.56,0,3.46T18.72,30.1Z" class="cls-1"/></svg>