<svg width="43" height="43" version="1.1" viewBox="0 0 43 43" xml:space="preserve" xmlns="http://www.w3.org/2000/svg"><style type="text/css">
	.st0{fill:#FFFFFF;}
</style><path class="st0" d="m32.131 16.106c-0.23451-0.93803-1.0162-1.7197-1.9542-1.9542-1.7197-0.46901-8.6768-0.46901-8.6768-0.46901s-6.957 0-8.6768 0.46901c-0.93803 0.23451-1.7197 1.0162-1.9542 1.9542-0.46901 1.7197-0.46901 5.3937-0.46901 5.3937s0 3.5958 0.46901 5.3937c0.23451 0.93803 1.0162 1.7197 1.9542 1.9542 1.7197 0.46901 8.6768 0.46901 8.6768 0.46901s6.957 0 8.6768-0.46901c0.93803-0.23451 1.7197-1.0162 1.9542-1.9542 0.46901-1.7197 0.46901-5.3937 0.46901-5.3937s0-3.5958-0.46901-5.3937zm-12.898 8.6768v-6.5662l5.7845 3.2831z" fill="#fff"/></svg>
