<svg xmlns="http://www.w3.org/2000/svg" width="122" height="31" fill="none" viewBox="0 0 122 31"><path fill="#231F20" fill-rule="evenodd" d="M3.88291 24.2242L5.86542 18.7693L7.77754 24.2242H3.88291ZM9.74832 29.7259H11.6018L6.82734 16.5874H5.00907L0 29.7259H1.8652L3.33156 25.7023H8.32889L9.76005 29.7259H9.74832Z" clip-rule="evenodd"/><path fill="#231F20" fill-rule="evenodd" d="M15.6122 25.1751C13.8995 24.8115 12.093 24.4009 12.093 22.348C12.093 20.5414 13.618 19.3918 15.9289 19.3918C16.6544 19.3397 17.38 19.4924 18.023 19.8325C18.6659 20.1727 19.2004 20.6866 19.5655 21.3157L18.017 21.9609C17.7894 21.5613 17.4574 21.2312 17.0565 21.0059C16.6556 20.7807 16.2009 20.6688 15.7412 20.6822C14.4274 20.6822 13.7705 21.4564 13.7705 22.1368C13.7705 23.0753 15.0139 23.4742 16.1166 23.6853C18.322 24.1311 20.2459 24.6942 20.2459 26.7822C20.2459 28.4011 18.8147 29.9144 16.0697 29.9144C14.052 29.9144 12.5505 29.234 11.917 27.8263L13.7001 27.5213C13.9651 27.9156 14.3352 28.2278 14.7685 28.4227C15.2018 28.6175 15.681 28.6873 16.1518 28.624C17.6416 28.624 18.498 28.0609 18.498 26.9934C18.498 25.9259 17.0786 25.5036 15.6122 25.1751Z" clip-rule="evenodd"/><path fill="#231F20" fill-rule="evenodd" d="M23.9419 19.7097H25.8071V21.1057H23.9419V26.7951C23.9419 27.9682 23.9419 28.4726 24.6575 28.4726C25.0301 28.444 25.397 28.3651 25.7484 28.238V29.6223C25.2138 29.7182 24.6726 29.7731 24.1296 29.7865C22.1823 29.7865 22.1823 28.848 22.2057 27.5459V21.1057H20.6221V19.7097H22.2057V17.3635L23.9419 16.6362V19.7449V19.7097Z" clip-rule="evenodd"/><path fill="#231F20" fill-rule="evenodd" d="M28.9392 19.7334V21.5282C29.2573 20.9068 29.7496 20.3917 30.3559 20.0459C30.9622 19.7 31.6562 19.5384 32.3529 19.5809V21.3053C30.7106 21.3053 29.9012 21.6572 29.3615 22.4784C28.9771 23.3223 28.8311 24.2554 28.9392 25.1765V29.775H27.2617V19.7334H28.9392Z" clip-rule="evenodd"/><path fill="#231F20" fill-rule="evenodd" d="M51.7319 16.5874V18.2297L44.2946 28.1423H51.9196V29.7259H42.2651V28.0132L49.7377 18.2063H42.2769V16.5874H51.7319Z" clip-rule="evenodd"/><path fill="#231F20" fill-rule="evenodd" d="M64.0965 19.8021V21.2567C64.4074 20.7083 64.86 20.2535 65.4068 19.9399C65.9537 19.6262 66.5748 19.4652 67.2051 19.4737C67.9352 19.4454 68.654 19.6605 69.2485 20.0852C69.8431 20.5099 70.2797 21.12 70.4898 21.8198C70.6369 22.4896 70.6921 23.1763 70.654 23.861V29.7851H68.9882V24.0839C69.035 23.5303 68.9994 22.9729 68.8826 22.4298C68.72 22.0038 68.4246 21.6415 68.0401 21.3964C67.6556 21.1513 67.2024 21.0366 66.7476 21.0691C66.3943 21.0552 66.042 21.1148 65.7129 21.244C65.3837 21.3732 65.085 21.5693 64.8355 21.8198C64.5542 22.1153 64.342 22.4696 64.2142 22.8571C64.0864 23.2445 64.0462 23.6555 64.0965 24.0604V29.7264H62.4189V19.8021H64.0965Z" clip-rule="evenodd"/><path fill="#231F20" fill-rule="evenodd" d="M89.9284 27.9561C89.5289 28.5944 88.9656 29.1139 88.2971 29.4605C87.6286 29.8071 86.8794 29.9682 86.1276 29.9269C82.6083 29.9269 81.2593 27.2053 81.2593 24.7653C81.2593 21.9382 82.796 19.3808 85.9516 19.3808C86.7279 19.3379 87.5019 19.4982 88.1972 19.8459C88.8926 20.1936 89.4852 20.7166 89.9166 21.3634L88.3447 22.0203C88.15 21.5697 87.8189 21.1915 87.3981 20.939C86.9772 20.6865 86.4877 20.5723 85.9985 20.6126C83.2418 20.6126 83.0776 23.7564 83.0776 24.6363C83.0776 27.9326 84.9662 28.6365 86.0924 28.6365C86.5697 28.6854 87.0505 28.5867 87.47 28.3539C87.8895 28.1211 88.2275 27.7652 88.4385 27.3343L89.9166 27.9561H89.9284Z" clip-rule="evenodd"/><path fill="#231F20" fill-rule="evenodd" d="M54.3252 23.708H59.6158C59.475 21.092 57.9617 20.658 56.9646 20.658C55.5334 20.658 54.5129 21.702 54.3252 23.708ZM61 27.8255C60.6095 28.4877 60.0434 29.029 59.3643 29.3892C58.6851 29.7495 57.9196 29.9148 57.1523 29.8667C54.2079 29.8667 52.46 27.8607 52.46 24.5057C52.46 20.7518 54.9352 19.3207 57.035 19.3207C58.0409 19.3004 59.02 19.646 59.7903 20.2933C60.5605 20.9406 61.0696 21.8455 61.2229 22.8399C61.3609 23.5073 61.4239 24.188 61.4106 24.8694H54.2782C54.2782 26.5351 54.9352 28.6467 57.2931 28.5998C57.7124 28.6077 58.1262 28.503 58.4914 28.2967C58.8566 28.0904 59.1598 27.79 59.3694 27.4267L61 27.7434V27.8255Z" clip-rule="evenodd"/><path fill="#231F20" fill-rule="evenodd" d="M73.3759 23.708H78.6665C78.5257 21.092 77.0125 20.658 76.0153 20.658C74.5842 20.658 73.5636 21.702 73.3759 23.708ZM80.0507 27.8255C79.664 28.4804 79.1053 29.0168 78.4353 29.3766C77.7652 29.7365 77.0095 29.906 76.2499 29.8667C73.3055 29.8667 71.5576 27.8607 71.5576 24.5057C71.5576 20.7518 74.0328 19.3207 76.1326 19.3207C77.1386 19.3004 78.1176 19.646 78.8879 20.2933C79.6582 20.9406 80.1673 21.8455 80.3205 22.8399C80.4586 23.5073 80.5215 24.188 80.5082 24.8694H73.329C73.329 26.5351 73.9859 28.6467 76.3438 28.5998C76.7632 28.6077 77.177 28.503 77.5421 28.2967C77.9073 28.0904 78.2105 27.79 78.4202 27.4267L80.0507 27.7434V27.8255Z" clip-rule="evenodd"/><path fill="#231F20" fill-rule="evenodd" d="M99.0904 29.7372H97.366C97.2668 29.2534 97.2002 28.7635 97.1666 28.2708C96.7651 28.7652 96.2593 29.1645 95.6853 29.4404C95.1114 29.7162 94.4835 29.8616 93.8467 29.8662C91.9112 29.8662 90.4683 28.6931 90.4683 27.0274C90.4679 26.4942 90.6228 25.9724 90.914 25.5258C91.4888 24.6812 92.5446 24.0125 95.5125 23.7779L97.0962 23.6489V23.4143C97.0962 22.382 97.0962 20.6458 94.8673 20.6458C93.4714 20.6458 92.9904 21.3262 92.8262 21.9362L91.2894 21.291C91.2894 21.291 91.2894 21.1854 91.3715 21.1268C91.7101 20.537 92.2072 20.054 92.8065 19.7326C93.4058 19.4112 94.0832 19.2643 94.7617 19.3085C95.792 19.2816 96.8049 19.5768 97.6593 20.1531C98.005 20.4732 98.2806 20.8616 98.4684 21.2937C98.6562 21.7259 98.7521 22.1923 98.7502 22.6635L98.8206 27.7781C98.8336 28.424 98.9242 29.066 99.0904 29.6903V29.7372ZM96.7443 26.9804C97.0234 26.2687 97.1162 25.4975 97.0141 24.7399C96.3571 24.8454 95.4773 24.9745 94.3981 25.2091C92.5446 25.6079 92.2279 26.3001 92.2279 27.0039C92.2279 27.7078 92.8614 28.482 94.1048 28.482C94.6439 28.5207 95.1824 28.3987 95.6522 28.1315C96.122 27.8642 96.5021 27.4637 96.7443 26.9804Z" clip-rule="evenodd"/><path fill="#231F20" fill-rule="evenodd" d="M41.0597 29.7381H39.347C39.2479 29.2544 39.1812 28.7645 39.1476 28.2718C38.7437 28.7692 38.2341 29.1704 37.6558 29.4463C37.0775 29.7223 36.4451 29.866 35.8043 29.8672C33.857 29.8672 32.4258 28.6941 32.4258 27.0283C32.4152 26.5008 32.5622 25.982 32.8481 25.5385C33.4112 24.6939 34.4787 24.0252 37.4466 23.7906L39.0303 23.6616V23.4152C39.0303 22.3829 39.0303 20.6468 36.8014 20.6468C35.3937 20.6468 34.9245 21.3271 34.7603 21.9371L33.2118 21.2919C33.2118 21.2919 33.2705 21.1864 33.2939 21.1277C33.6399 20.5285 34.1486 20.0397 34.7611 19.7179C35.3736 19.396 36.0648 19.2544 36.7545 19.3094C37.7882 19.284 38.8044 19.579 39.6638 20.1541C40.0091 20.4738 40.2836 20.8624 40.4695 21.2948C40.6554 21.7272 40.7486 22.1938 40.743 22.6645L40.8134 27.7791C40.8149 28.4397 40.8976 29.0977 41.0597 29.7381ZM38.7136 26.9814C38.9716 26.4301 38.9834 26.1954 38.9834 24.7408C38.3382 24.8464 37.4584 24.9754 36.3791 25.21C34.5257 25.6089 34.2089 26.301 34.2089 27.0049C34.2089 27.7087 34.8307 28.483 36.0741 28.483C36.6135 28.5233 37.1526 28.402 37.6227 28.1345C38.0928 27.8671 38.4726 27.4656 38.7136 26.9814Z" clip-rule="evenodd"/><path fill="#E9C002" fill-rule="evenodd" d="M122 15.8953C122 15.8366 122 15.778 122 15.7193C122 15.6607 121.929 15.473 121.883 15.3557C121.833 15.2338 121.774 15.1162 121.707 15.0037C121.635 14.8717 121.553 14.7461 121.46 14.6283C121.412 14.5605 121.357 14.4976 121.296 14.4407L121.085 14.2412C120.92 14.0981 120.743 13.9687 120.557 13.8541C120.158 13.5856 119.739 13.3502 119.302 13.1503C118.774 12.9156 118.269 12.6458 117.718 12.4464L114.023 11.1795C114.023 10.4756 114.023 9.78351 114.023 9.07966C114.023 8.04735 113.941 7.01504 113.87 5.98272C113.87 5.26714 113.73 4.55156 113.612 3.83598C113.495 3.1204 113.389 2.73328 113.272 2.18193C113.24 2.05855 113.201 1.93713 113.155 1.81828C113.123 1.70638 113.084 1.59667 113.037 1.48981C113.037 1.39597 112.944 1.29039 112.897 1.20827C112.861 1.11635 112.814 1.02955 112.756 0.950197C112.713 0.877168 112.666 0.806666 112.615 0.739041L112.463 0.539617L112.31 0.398846L112.158 0.269809L112.017 0.175962L111.864 0.105575C111.78 0.0584159 111.689 0.0229056 111.595 0H111.36H110.879H110.562C110.331 0.0524634 110.107 0.131179 109.894 0.234615C109.769 0.294049 109.647 0.360634 109.53 0.43404C109.413 0.516155 109.284 0.586542 109.166 0.680388C108.959 0.830626 108.759 0.991148 108.568 1.16135C107.806 1.87693 107.055 2.61597 106.316 3.36675C105.929 3.7656 105.541 4.17617 105.143 4.61022C103.723 6.32292 102.315 8.03562 100.955 9.79524C100.356 10.5695 99.7816 11.3906 99.2537 12.2001C99.1136 12.4043 98.9844 12.6157 98.8666 12.8335C98.6555 13.2089 98.456 13.5843 98.2683 14.0066C98.2182 14.1051 98.1751 14.207 98.1393 14.3116C98.1393 14.4172 98.0689 14.5228 98.0455 14.6166C98.0203 14.7171 98.0007 14.8189 97.9868 14.9216C97.981 15.0115 97.981 15.1016 97.9868 15.1914V15.3322V15.473L98.0807 15.602L98.198 15.7428L98.4795 15.9891C98.5793 16.0748 98.6852 16.1532 98.7962 16.2237C98.9839 16.3528 99.1834 16.4701 99.3828 16.5874L99.6409 16.7282C99.6409 16.7282 99.6409 16.7282 99.5587 16.6695L99.6995 16.7399C100.873 17.3734 102.128 17.9951 103.324 18.6403C104.521 19.2855 105.741 19.9307 106.937 20.5993L109.624 22.1009C108.697 22.8165 107.747 23.4969 106.832 24.2242C106.48 24.5033 106.147 24.805 105.835 25.1274C105.577 25.3833 105.334 25.6536 105.107 25.9369C104.931 26.1598 104.767 26.3944 104.603 26.6407C104.484 26.8325 104.378 27.0324 104.286 27.239C104.207 27.3921 104.144 27.5534 104.099 27.72C104.064 27.8356 104.037 27.9531 104.016 28.0719C104.016 28.1423 104.016 28.2127 104.016 28.283C104.016 28.3534 104.016 28.283 104.016 28.3652V28.5528C104.01 28.6152 104.01 28.6781 104.016 28.7405C104.004 28.7946 104.004 28.8507 104.016 28.9048C104.016 28.9048 104.016 29.0221 104.016 29.069L104.087 29.2215C104.107 29.2686 104.135 29.3122 104.169 29.3505C104.226 29.4399 104.293 29.5225 104.368 29.5969L104.603 29.7963L104.873 29.9723L105.166 30.1013C105.263 30.1524 105.365 30.1918 105.471 30.2186C105.846 30.3007 106.222 30.3711 106.644 30.418C106.831 30.4471 107.021 30.4471 107.207 30.418C107.864 30.418 108.509 30.3007 109.155 30.2069C109.8 30.113 110.644 29.9254 111.395 29.7611C112.146 29.5969 113.143 29.374 114.011 29.1394C114.629 29.0006 115.236 28.8203 115.829 28.5998C116.287 28.4121 116.756 28.2361 117.214 28.0367L117.519 27.8725L117.765 27.7082C117.842 27.6631 117.913 27.6079 117.976 27.544C118.033 27.4909 118.084 27.432 118.129 27.368C118.167 27.3175 118.198 27.2623 118.222 27.2038C118.229 27.1493 118.229 27.0941 118.222 27.0396C118.238 26.9346 118.238 26.8278 118.222 26.7228C118.228 26.676 118.228 26.6289 118.222 26.5821C118.227 26.5353 118.227 26.4881 118.222 26.4413L118.129 26.3123L118.035 26.1949C117.97 26.1188 117.9 26.0482 117.824 25.9838L117.624 25.8313L117.425 25.7023L116.134 24.8459L114.117 23.6728C115.29 22.8399 116.568 22.0188 117.788 21.1742C118.305 20.8105 118.809 20.4351 119.302 20.0011C119.794 19.567 120.123 19.2972 120.475 18.9336C120.659 18.7532 120.831 18.5612 120.991 18.3587C121.072 18.2742 121.146 18.184 121.214 18.0889L121.39 17.8191C121.542 17.5024 121.695 17.1857 121.824 16.8572C121.877 16.7255 121.912 16.5875 121.929 16.4466C121.942 16.3807 121.942 16.3131 121.929 16.2472C121.936 16.1848 121.936 16.1219 121.929 16.0595C121.935 15.9971 121.935 15.9343 121.929 15.8718L122 15.8953ZM106.949 7.68369C107.641 6.97984 108.322 6.26426 109.014 5.57214C109.143 5.44311 109.284 5.3258 109.424 5.20849L109.565 5.09118L109.682 5.00906H109.776H109.882H110.058V5.07945L110.269 5.23195C110.302 5.32016 110.329 5.41026 110.351 5.50176C110.351 5.6308 110.351 5.75984 110.433 5.88888C110.433 6.20561 110.527 6.53407 110.562 6.8508C110.597 7.16754 110.644 7.69543 110.68 8.106L110.891 10.3349L108.416 9.76005L106.069 9.38467H105.518H105.33L106.867 7.75408L106.949 7.68369ZM105.401 10.7806H105.471H105.553L105.776 10.8745L106.081 11.0035L108.427 12.0124L109.999 12.681L111.02 13.1268H111.114C111.114 13.948 111.243 14.7574 111.278 15.5785C111.278 16.212 111.278 16.8572 111.348 17.4907C111.348 17.5728 111.348 17.6549 111.348 17.737C111.348 17.8191 111.348 17.8309 111.348 17.8661V18.0068C111.353 18.0458 111.353 18.0852 111.348 18.1241L111.278 18.2414H111.207H111.137H110.926H110.82H110.703L110.468 18.1241C110.38 18.079 110.298 18.0239 110.222 17.9599C110.131 17.9 110.045 17.8334 109.964 17.7605C109.872 17.6843 109.786 17.602 109.706 17.5141C109.518 17.3147 109.342 17.127 109.178 16.9159C108.869 16.5598 108.58 16.1878 108.31 15.8014C107.946 15.2618 107.571 14.7222 107.219 14.1826C107.002 13.8573 106.802 13.5205 106.621 13.1737L105.577 11.6956L105.401 11.1912V11.0387V10.8979V10.7572V10.7806ZM114.199 24.7638L114.844 25.1744C115.114 25.3503 115.384 25.5263 115.653 25.7257C115.845 25.8602 116.029 26.0051 116.205 26.1598C116.285 26.2281 116.359 26.3026 116.428 26.3826C116.486 26.4413 116.533 26.5117 116.592 26.5821H116.463L113.331 26.8167L109.237 27.1334H109.096L109.155 27.063L109.413 26.8401C109.941 26.4413 110.457 26.0307 111.008 25.6671L113.354 24.0951L114.234 24.6582L114.199 24.7638ZM117.307 16.693C117.312 16.728 117.312 16.7635 117.307 16.7986C117.296 16.8435 117.271 16.8842 117.237 16.9159C117.169 16.9996 117.094 17.0781 117.014 17.1505C116.847 17.3125 116.67 17.4652 116.486 17.608C115.841 18.0655 115.196 18.5347 114.539 18.9805C114.082 19.2972 113.612 19.5788 113.155 19.8838L110.445 21.6551L109.272 20.9982L104.404 18.1359C103.301 17.4789 102.198 16.8337 101.107 16.1651C100.896 16.036 100.708 15.8953 100.509 15.7545L100.333 15.6137L100.204 15.4964V15.4143C100.198 15.3833 100.198 15.3514 100.204 15.3205V15.2149V15.0976V14.9685C100.219 14.9235 100.238 14.8802 100.263 14.8395C100.307 14.757 100.358 14.6785 100.415 14.6049C100.483 14.5136 100.558 14.4273 100.638 14.3468C101.26 13.7016 101.905 13.0681 102.538 12.4229L104.239 10.6868L104.321 10.9683L104.521 11.461C104.978 12.2353 105.401 13.033 105.882 13.8072C106.363 14.5814 107.055 15.5433 107.606 16.388C107.876 16.7868 108.169 17.1739 108.474 17.5611C108.779 17.9482 109.014 18.2062 109.307 18.5113C109.571 18.7727 109.849 19.0194 110.14 19.2503C110.281 19.3676 110.445 19.4497 110.597 19.5553L110.832 19.6726L111.067 19.7547H111.301C111.375 19.766 111.45 19.766 111.524 19.7547H111.724H111.911H112.076H112.228L112.369 19.6961L112.486 19.6139L112.697 19.4497L112.85 19.2738C112.907 19.2001 112.958 19.1216 113.002 19.0391C113.061 18.9336 113.12 18.828 113.167 18.7224C113.224 18.6043 113.275 18.4828 113.319 18.3587C113.401 18.1007 113.483 17.8426 113.542 17.5845C113.645 17.2274 113.72 16.8626 113.765 16.4935L113.988 14.382C114.492 14.6166 115.008 14.8278 115.501 15.0859C115.994 15.3439 116.439 15.6255 116.909 15.8953L117.061 16.0126L117.261 16.1885C117.294 16.2227 117.322 16.2624 117.343 16.3059L117.413 16.4232V16.5522V16.6226C117.419 16.6457 117.419 16.6698 117.413 16.693H117.307Z" clip-rule="evenodd"/></svg>