<svg width="122" height="45" viewBox="0 0 122 45" fill="none" xmlns="http://www.w3.org/2000/svg">
<path d="M0 0.655273V22.5096H21.8544V0.655273H0ZM15.1327 15.7762H6.72171V7.36526H15.1327V15.7762Z" fill="#024693"/>
<path d="M36.9871 7.38135H28.5762V15.7923H36.9871V7.38135Z" fill="#024693"/>
<path d="M43.708 0.655273H55.8845C60.3539 0.655273 62.3951 3.63488 62.3951 6.35641C62.4198 7.28414 62.1689 8.19837 61.674 8.98348C61.1791 9.76859 60.4626 10.3893 59.6149 10.7672C60.77 11.0713 61.7882 11.7573 62.5039 12.7136C63.2195 13.6699 63.5905 14.8403 63.5564 16.0343C63.5564 19.1664 61.2807 22.5096 55.8963 22.5096H43.6963L43.708 0.655273ZM50.3593 17.571H54.7584C55.0492 17.5937 55.3415 17.5559 55.6169 17.46C55.8924 17.3641 56.145 17.2121 56.3588 17.0138C56.5726 16.8154 56.743 16.5748 56.8592 16.3073C56.9755 16.0398 57.035 15.7511 57.0341 15.4595C57.0239 15.2035 56.9621 14.9523 56.8523 14.7208C56.7425 14.4894 56.587 14.2826 56.3953 14.1127C56.2035 13.9429 55.9794 13.8136 55.7364 13.7325C55.4934 13.6515 55.2366 13.6204 54.9813 13.6412H50.3593V17.571ZM50.3593 9.25391H53.8786C55.4974 9.25391 56.1426 8.50314 56.1426 7.40045C56.1505 7.16633 56.1082 6.93323 56.0186 6.7168C55.9289 6.50037 55.794 6.30562 55.6229 6.14562C55.4518 5.98563 55.2485 5.86409 55.0265 5.78916C54.8046 5.71424 54.5691 5.68766 54.3361 5.71122H50.3711L50.3593 9.25391Z" fill="#024693"/>
<path d="M70.4787 0.655273H77.5171L85.5409 22.4745H78.3148L77.259 19.2133H70.5139L69.6106 22.4627H62.4431L70.4787 0.655273ZM73.7164 7.13064L71.8512 14.4037H75.8279L73.7164 7.13064Z" fill="#024693"/>
<path d="M96.7668 7.14402H103.477C103.477 3.43711 100.697 0 94.0922 0C86.8309 0 84.5786 4.00018 84.5786 6.93287C84.5786 11.6252 90.3736 12.9155 90.5495 12.9742C91.4176 13.244 95.0072 14.1473 95.8987 14.5344C96.2868 14.6437 96.6335 14.866 96.8946 15.1732C97.1558 15.4803 97.3196 15.8582 97.3651 16.2588C97.3651 17.5375 95.8401 18.1475 94.5732 18.1475C93.7637 18.1475 91.0539 17.8776 91.0539 14.9919H84.1445C84.1445 18.8278 86.7839 23.133 94.2095 23.133C102.421 23.133 104.099 18.253 104.099 15.6488C104.084 14.4253 103.696 13.2355 102.988 12.2379C102.279 11.2403 101.284 10.4823 100.134 10.065C98.4678 9.38459 95.6993 8.79805 94.2682 8.39921C93.576 8.18805 91.2416 7.71883 91.2416 6.29941C91.2416 4.46941 94.2447 4.71576 93.7989 4.71576C94.1549 4.67016 94.5165 4.69766 94.8615 4.79656C95.2066 4.89547 95.5278 5.06371 95.8056 5.29099C96.0834 5.51828 96.3119 5.79983 96.4772 6.11844C96.6424 6.43705 96.741 6.78602 96.7668 7.14402Z" fill="#024693"/>
<path d="M105.249 0.644531H122V6.41606H111.935V10.2637H120.909V15.7772H111.912V22.4989H105.213L105.249 0.644531Z" fill="#024693"/>
<path d="M8.71642 39.8035V39.7683L6.61661 31.897H5.30277L3.17951 39.8035H3.09739L3.08566 39.7683L1.2322 31.897H0.012207L2.42874 41.3168H3.69566L5.88931 33.3399H5.97142V33.3633L8.14161 41.3168H9.3968L11.9189 31.897H10.7341L8.79853 39.8035H8.71642Z" fill="#024693"/>
<path d="M17.4898 35.6837C17.2505 35.2979 16.9253 34.9727 16.5396 34.7335C16.0813 34.4655 15.557 34.3313 15.0263 34.3463C14.5865 34.3399 14.1505 34.4279 13.7477 34.6044C13.3631 34.7769 13.0193 35.0288 12.7388 35.3435C12.4451 35.6896 12.2184 36.0874 12.0702 36.5165C11.9116 36.9769 11.8323 37.4608 11.8355 37.9477C11.8439 38.4336 11.9229 38.9157 12.0702 39.3788C12.1849 39.8099 12.3932 40.2104 12.6802 40.5519C12.9567 40.868 13.3017 41.1168 13.689 41.2792C14.134 41.4674 14.6137 41.5594 15.0967 41.549C15.7836 41.5729 16.4593 41.371 17.0205 40.9742C17.5409 40.5543 17.8877 39.9569 17.9942 39.2967H16.9501C16.876 39.6927 16.6589 40.0475 16.3402 40.2938C15.9933 40.525 15.5838 40.6438 15.1671 40.634C14.825 40.6449 14.4847 40.5809 14.17 40.4463C13.9095 40.3292 13.6774 40.1571 13.4896 39.9419C13.3029 39.7286 13.1665 39.476 13.0907 39.2029C13.0075 38.9214 12.9718 38.628 12.9852 38.3348H18.135C18.1463 37.9093 18.1069 37.484 18.0176 37.0679C17.9288 36.6182 17.7578 36.1887 17.5132 35.801M12.9852 37.4081C12.995 37.1451 13.0547 36.8863 13.1611 36.6456C13.2572 36.4106 13.3964 36.1957 13.5717 36.0121C13.7451 35.8324 13.9524 35.6889 14.1817 35.5898C14.438 35.4832 14.7136 35.4313 14.9911 35.4373C15.2609 35.4321 15.5288 35.4841 15.7771 35.5898C16.0115 35.6857 16.2232 35.8296 16.3988 36.0121C16.5762 36.1919 16.7193 36.4026 16.8211 36.6338C16.9247 36.8802 16.988 37.1416 17.0088 37.4081H12.9852Z" fill="#024693"/>
<path d="M26.0538 40.5559C25.7282 40.5651 25.4056 40.4925 25.1153 40.3448C24.8627 40.2045 24.646 40.0078 24.4819 39.77C24.3162 39.5182 24.1933 39.2407 24.1182 38.9488C24.0439 38.6414 24.0045 38.3266 24.0009 38.0103C24.0034 37.6708 24.0427 37.3325 24.1182 37.0015C24.182 36.6895 24.3012 36.3916 24.4701 36.1217C24.6396 35.8665 24.8692 35.657 25.1388 35.5117C25.463 35.3521 25.8217 35.2755 26.1828 35.2888C26.6047 35.2663 27.0207 35.3952 27.3559 35.6525C27.6525 35.9152 27.8511 36.2709 27.919 36.6613H29.0099C28.9833 36.3068 28.8792 35.9624 28.7049 35.6525C28.5491 35.3669 28.3329 35.1187 28.0715 34.9252C27.8012 34.7334 27.4995 34.5905 27.1799 34.5029C26.8243 34.4069 26.4573 34.3596 26.089 34.3621C25.6048 34.3518 25.1243 34.4479 24.6813 34.6436C24.2928 34.82 23.9513 35.0852 23.6842 35.4178C23.4066 35.7655 23.1994 36.164 23.0742 36.5909C22.944 37.0566 22.8808 37.5385 22.8865 38.0221C22.8778 38.4989 22.9451 38.9741 23.0859 39.4298C23.213 39.8311 23.4205 40.2023 23.6959 40.5207C23.9695 40.8321 24.3105 41.0768 24.693 41.2363C25.1295 41.4091 25.5962 41.4929 26.0655 41.4826C26.8245 41.5279 27.5719 41.2802 28.1536 40.7905C28.6786 40.2812 29.0103 39.6053 29.092 38.8784H28.0011C27.944 39.3221 27.7419 39.7345 27.4263 40.0515C27.0524 40.3629 26.5749 40.522 26.089 40.4973" fill="#024693"/>
<path d="M32.5167 34.7228C32.0712 35.0147 31.711 35.4194 31.4727 35.8958V34.5116H30.4756V41.3154H31.5314V38.3006C31.5264 37.9051 31.5738 37.5107 31.6721 37.1276C31.7465 36.801 31.895 36.496 32.1062 36.236C32.3124 35.9834 32.5844 35.7926 32.8921 35.6847C33.2533 35.5572 33.6358 35.5014 34.0183 35.5205V34.3474H33.901C33.4135 34.3268 32.9311 34.4535 32.5167 34.711" fill="#024693"/>
<path d="M39.7565 35.6834C39.5129 35.2972 39.1838 34.9721 38.7946 34.7332C38.34 34.4668 37.8199 34.3327 37.2931 34.3461C36.8532 34.3386 36.4169 34.4266 36.0144 34.6042C35.6247 34.7737 35.2765 35.0259 34.9938 35.3432C34.6993 35.6869 34.476 36.0856 34.3369 36.5163C34.1782 36.9486 34.0949 37.4049 34.0906 37.8654C34.1105 38.3502 34.1892 38.8307 34.3252 39.2965C34.445 39.7256 34.6528 40.1251 34.9352 40.4696C35.2117 40.7857 35.5567 41.0345 35.944 41.1969C36.3898 41.3824 36.869 41.4743 37.3517 41.4667C38.0386 41.4905 38.7144 41.2886 39.2756 40.8919C39.796 40.472 40.1428 39.8745 40.2492 39.2144H39.2052C39.1364 39.6124 38.9182 39.9691 38.5952 40.2115C38.249 40.4441 37.839 40.563 37.4221 40.5517C37.084 40.5609 36.7478 40.4969 36.4367 40.364C36.171 40.25 35.9345 40.0776 35.7446 39.8596C35.5622 39.6434 35.4264 39.3917 35.3458 39.1205C35.2739 38.8368 35.2384 38.5451 35.2402 38.2525H40.39C40.3996 37.8276 40.3642 37.4029 40.2844 36.9855C40.1905 36.5373 40.0198 36.1087 39.78 35.7186M35.1933 37.2905C35.2144 37.0292 35.2737 36.7723 35.3692 36.5281C35.4697 36.2954 35.6085 36.0813 35.7798 35.8946C35.9532 35.7149 36.1605 35.5713 36.3898 35.4723C36.6463 35.3667 36.9218 35.3148 37.1992 35.3198C37.4728 35.3147 37.7445 35.3666 37.9969 35.4723C38.465 35.6749 38.8383 36.0482 39.0409 36.5163C39.1409 36.7632 39.2003 37.0247 39.2169 37.2905H35.1933Z" fill="#024693"/>
<path d="M47.2289 40.3401C47.2048 40.1414 47.2048 39.9405 47.2289 39.7418V36.2226C47.2457 35.8912 47.1685 35.5618 47.0061 35.2724C46.8663 35.0311 46.6636 34.8324 46.4195 34.6976C46.1635 34.5609 45.8856 34.4696 45.5984 34.4278C44.9389 34.3099 44.2637 34.3099 43.6041 34.4278C43.2821 34.5012 42.9761 34.6323 42.7009 34.8149C42.4405 34.9952 42.224 35.2317 42.0674 35.507C41.9076 35.8283 41.8195 36.1806 41.8093 36.5393H42.8651C42.8594 36.3371 42.9061 36.1369 43.0007 35.9581C43.0952 35.7792 43.2344 35.6279 43.4047 35.5187C43.7678 35.3341 44.1706 35.2415 44.5778 35.2489C44.7614 35.2373 44.9455 35.2373 45.1291 35.2489C45.3061 35.2715 45.4772 35.3272 45.6336 35.4132C45.7885 35.4993 45.9179 35.6247 46.0089 35.7768C46.1103 35.9636 46.1589 36.1745 46.1497 36.3868C46.1552 36.4821 46.1403 36.5775 46.1059 36.6665C46.0715 36.7555 46.0184 36.8362 45.9503 36.903C45.8006 37.0279 45.6239 37.1163 45.4341 37.161C45.1873 37.2246 44.9365 37.2716 44.6834 37.3018C44.4136 37.3018 44.1203 37.3722 43.8036 37.4309L42.9472 37.6303C42.6871 37.7068 42.4413 37.8257 42.2199 37.9822C42.0036 38.1387 41.8268 38.3435 41.7038 38.5805C41.5605 38.8719 41.492 39.1944 41.5043 39.5189C41.4964 39.8179 41.5565 40.1147 41.6803 40.387C41.7937 40.6167 41.9583 40.8173 42.1613 40.9735C42.3769 41.1272 42.6197 41.2386 42.8768 41.302C43.162 41.364 43.453 41.3955 43.7449 41.3958C44.1985 41.3999 44.6486 41.3163 45.0705 41.1495C45.4852 40.9787 45.8517 40.7088 46.138 40.3635V40.2814V40.3753C46.1265 40.5169 46.1435 40.6593 46.1878 40.7943C46.2321 40.9292 46.3029 41.054 46.3961 41.1612C46.5804 41.3227 46.8199 41.4068 47.0647 41.3958C47.3325 41.4075 47.5989 41.351 47.8389 41.2316V40.4339C47.7378 40.4484 47.6351 40.4484 47.5339 40.4339C47.3306 40.4339 47.2133 40.3635 47.182 40.2228M46.0793 38.8503C46.0726 39.0294 46.0287 39.2052 45.9503 39.3664C45.8591 39.5642 45.7318 39.7433 45.5749 39.8943C45.3757 40.0605 45.1496 40.1914 44.9063 40.2814C44.5979 40.3918 44.2717 40.4435 43.9443 40.4339C43.7728 40.4518 43.5998 40.4518 43.4282 40.4339C43.2733 40.3981 43.1263 40.3345 42.9941 40.2462C42.8699 40.165 42.7657 40.0567 42.6891 39.9295C42.6067 39.7787 42.5662 39.6086 42.5718 39.4368C42.559 39.1903 42.6292 38.9466 42.7713 38.7447C42.9037 38.57 43.0826 38.4358 43.2874 38.3576C43.5114 38.2582 43.7484 38.191 43.9913 38.1582L44.7538 38.0526L45.4693 37.9353C45.6679 37.8979 45.856 37.8179 46.0207 37.7007L46.0793 38.8503Z" fill="#024693"/>
<path d="M58.3145 35.6837C58.0752 35.2979 57.75 34.9727 57.3643 34.7335C56.906 34.4655 56.3817 34.3313 55.851 34.3463C55.4112 34.3399 54.9752 34.4279 54.5724 34.6044C54.1878 34.7769 53.844 35.0288 53.5635 35.3435C53.2698 35.6896 53.0431 36.0874 52.8949 36.5165C52.7363 36.9769 52.657 37.4608 52.6603 37.9477C52.6686 38.4336 52.7477 38.9157 52.8949 39.3788C53.0096 39.8099 53.2179 40.2104 53.5049 40.5519C53.7794 40.8651 54.1199 41.1135 54.502 41.2792C54.9514 41.4664 55.4347 41.5582 55.9214 41.549C56.6077 41.5686 57.2822 41.3671 57.8452 40.9742C58.3656 40.5543 58.7124 39.9569 58.8189 39.2967H57.7749C57.7007 39.6927 57.4836 40.0475 57.1649 40.2938C56.8177 40.5243 56.4084 40.643 55.9918 40.634C55.6536 40.6432 55.3175 40.5792 55.0064 40.4463C54.7442 40.3264 54.5088 40.1548 54.3143 39.9419C54.1355 39.725 54.0036 39.4734 53.9272 39.2029C53.844 38.9214 53.8083 38.628 53.8216 38.3348H58.9714C58.9832 37.9093 58.9438 37.484 58.8541 37.0679C58.7652 36.6182 58.5942 36.1887 58.3497 35.801M53.8451 37.4081C53.8549 37.1451 53.9146 36.8863 54.021 36.6456C54.1173 36.4134 54.2522 36.1993 54.4199 36.0121C54.5997 35.8347 54.8104 35.6916 55.0416 35.5898C55.2975 35.4822 55.5735 35.4302 55.851 35.4373C56.1208 35.4321 56.3887 35.4841 56.637 35.5898C56.8697 35.6889 57.0809 35.8323 57.2587 36.0121C57.4361 36.1919 57.5792 36.4026 57.681 36.6338C57.7846 36.8802 57.848 37.1416 57.8687 37.4081H53.8451Z" fill="#024693"/>
<path d="M66.8639 40.5529C66.5383 40.5621 66.2157 40.4895 65.9254 40.3418C65.6752 40.1983 65.4591 40.0021 65.292 39.767C65.1243 39.5163 65.0013 39.2385 64.9283 38.9458C64.8579 38.638 64.8224 38.3232 64.8227 38.0074C64.8214 37.6683 64.8568 37.33 64.9283 36.9985C64.9921 36.6866 65.1113 36.3886 65.2803 36.1187C65.4528 35.8663 65.6817 35.6574 65.9489 35.5087C66.2731 35.3491 66.6318 35.2725 66.9929 35.2858C67.4122 35.2429 67.8316 35.3663 68.1608 35.6296C68.4899 35.8929 68.7024 36.275 68.7525 36.6935H69.8552C69.8194 36.3392 69.7117 35.9959 69.5385 35.6847C69.3827 35.3991 69.1665 35.151 68.905 34.9574C68.6348 34.7657 68.3331 34.6227 68.0135 34.5351C67.6579 34.4391 67.2909 34.3918 66.9226 34.3943C66.4384 34.384 65.9578 34.4801 65.5149 34.6758C65.1264 34.8522 64.7848 35.1174 64.5178 35.4501C64.2395 35.7956 64.0358 36.195 63.9195 36.6231C63.7844 37.0881 63.7172 37.5701 63.7201 38.0543C63.718 38.5307 63.7851 39.0049 63.9195 39.462C64.0466 39.8633 64.2541 40.2345 64.5295 40.5529C64.803 40.8643 65.1441 41.109 65.5266 41.2685C65.9635 41.4399 66.4299 41.5236 66.8991 41.5149C67.6446 41.5543 68.3776 41.3114 68.952 40.8345C69.4769 40.3251 69.8087 39.6492 69.8904 38.9224H68.8112C68.7501 39.3673 68.5439 39.7796 68.2247 40.0954C67.8508 40.4068 67.3733 40.566 66.8874 40.5412" fill="#024693"/>
<path d="M76.4149 35.0491C76.2248 34.821 75.978 34.6471 75.6993 34.5447C75.3262 34.3991 74.9262 34.3351 74.5262 34.357C74.3178 34.3597 74.1098 34.3793 73.9045 34.4157C73.6902 34.463 73.4817 34.5339 73.2828 34.6268C73.0917 34.7197 72.9141 34.8381 72.7549 34.9788C72.5844 35.1229 72.4481 35.3032 72.3561 35.5066V31.8701H71.3003V41.2547H72.3561V37.4657C72.3562 37.1716 72.3996 36.879 72.4851 36.5976C72.5644 36.3424 72.6962 36.1066 72.8722 35.9055C73.0488 35.7021 73.2695 35.5416 73.5174 35.4363C73.8097 35.3268 74.1204 35.275 74.4324 35.2838C74.8163 35.266 75.1917 35.401 75.4764 35.6591C75.608 35.7981 75.7101 35.9622 75.7766 36.1416C75.8432 36.321 75.8727 36.512 75.8635 36.7032V41.3134H76.9193V36.8322C76.9243 36.4923 76.8849 36.1531 76.802 35.8234C76.7381 35.5376 76.6052 35.2718 76.4149 35.0491Z" fill="#024693"/>
<path d="M84.0143 35.6834C83.7707 35.2972 83.4416 34.9721 83.0524 34.7332C82.5978 34.4668 82.0777 34.3327 81.5509 34.3461C81.111 34.3386 80.6747 34.4266 80.2722 34.6042C79.8825 34.7737 79.5343 35.0259 79.2517 35.3432C78.9571 35.6869 78.7338 36.0856 78.5947 36.5163C78.436 36.9486 78.3527 37.4049 78.3484 37.8654C78.3683 38.3502 78.447 38.8307 78.583 39.2965C78.7028 39.7256 78.9106 40.1251 79.193 40.4696C79.4695 40.7857 79.8146 41.0345 80.2018 41.1969C80.6476 41.3824 81.1268 41.4743 81.6095 41.4667C82.2964 41.4905 82.9722 41.2886 83.5334 40.8919C84.0363 40.4643 84.3658 39.8678 84.4601 39.2144H83.4161C83.3473 39.6124 83.1291 39.9691 82.8061 40.2115C82.4599 40.4441 82.0499 40.563 81.633 40.5517C81.2948 40.5609 80.9587 40.4969 80.6476 40.364C80.3819 40.25 80.1454 40.0776 79.9555 39.8596C79.7723 39.6456 79.64 39.393 79.5684 39.1205C79.4812 38.8397 79.4416 38.5463 79.4511 38.2525H84.6009C84.6127 37.827 84.5733 37.4016 84.4836 36.9855C84.3988 36.5365 84.2318 36.107 83.9909 35.7186M79.4511 37.3257C79.4722 37.0643 79.5315 36.8075 79.627 36.5632C79.7275 36.3306 79.8663 36.1165 80.0376 35.9298C80.211 35.7501 80.4184 35.6065 80.6476 35.5075C80.9042 35.4019 81.1796 35.3499 81.457 35.355C81.7306 35.3499 82.0023 35.4018 82.2547 35.5075C82.7228 35.7101 83.0961 36.0834 83.2988 36.5515C83.3987 36.7984 83.4581 37.0599 83.4747 37.3257H79.4511Z" fill="#024693"/>
<path d="M94.9376 34.8148C94.7274 34.654 94.4886 34.5346 94.2338 34.4629C93.9305 34.3891 93.6191 34.3536 93.307 34.3573C92.8769 34.3497 92.4522 34.4549 92.0753 34.6623C91.7084 34.8597 91.4007 35.1513 91.1838 35.507V35.5773V35.4952C91.1309 35.3091 91.0413 35.1355 90.9205 34.9844C90.7996 34.8333 90.6499 34.7079 90.4799 34.6154C90.116 34.4344 89.7131 34.3458 89.3069 34.3573C88.8655 34.3428 88.428 34.4432 88.0372 34.6489C87.6464 34.8546 87.3159 35.1584 87.078 35.5304V34.5098H85.9871V41.3137H87.0428V37.0671C87.0506 36.8944 87.0863 36.7241 87.1484 36.5627C87.2233 36.3497 87.3344 36.1513 87.4769 35.9762C87.6352 35.7768 87.8304 35.6095 88.0517 35.4835C88.3202 35.3465 88.6184 35.278 88.9197 35.2841C89.1409 35.2744 89.3614 35.3145 89.5649 35.4014C89.7281 35.4731 89.8697 35.5864 89.9755 35.7298C90.0738 35.8807 90.1452 36.0474 90.1867 36.2225C90.2253 36.4275 90.2449 36.6357 90.2453 36.8443V41.3137H91.3011V37.0671C91.2903 36.828 91.3285 36.5892 91.4132 36.3653C91.4979 36.1414 91.6274 35.9371 91.7938 35.765C91.9733 35.5997 92.1842 35.472 92.4138 35.3894C92.6435 35.3068 92.8874 35.271 93.1311 35.2841C93.3675 35.2736 93.6034 35.3136 93.8232 35.4014C93.9901 35.4779 94.1352 35.5948 94.2455 35.7416C94.3466 35.8939 94.4146 36.0657 94.4449 36.246C94.4634 36.445 94.4634 36.6453 94.4449 36.8443V41.3137H95.5007V36.3164C95.506 36.0074 95.4501 35.7005 95.3365 35.4131C95.2386 35.1773 95.0809 34.971 94.879 34.8148" fill="#024693"/>
<path d="M98.4677 33.1756H97.365V31.897H98.4208L98.4677 33.1756ZM98.4677 34.4777H97.365V41.2816H98.4208L98.4677 34.4777Z" fill="#024693"/>
<path d="M104.79 41.0259C105.065 40.8666 105.295 40.6406 105.459 40.369C105.638 40.0591 105.727 39.7059 105.717 39.3484C105.723 39.0708 105.659 38.7963 105.529 38.5507C105.406 38.3336 105.233 38.1487 105.025 38.0111C104.813 37.8525 104.575 37.7333 104.321 37.6592C104.049 37.5656 103.771 37.4911 103.488 37.4363L102.691 37.2486C102.447 37.1955 102.208 37.1249 101.975 37.0374C101.775 36.9644 101.592 36.8528 101.435 36.709C101.364 36.6456 101.308 36.5678 101.269 36.4808C101.231 36.3938 101.212 36.2996 101.212 36.2045C101.205 36.0404 101.255 35.8789 101.353 35.747C101.453 35.6282 101.577 35.5321 101.717 35.4655C101.87 35.3978 102.032 35.3505 102.198 35.3247C102.554 35.2542 102.921 35.2542 103.277 35.3247C103.456 35.3593 103.627 35.4269 103.782 35.5242C103.942 35.6066 104.076 35.7327 104.169 35.8878C104.269 36.0471 104.329 36.2282 104.345 36.4157H105.4C105.388 36.0723 105.299 35.7359 105.142 35.4303C105.006 35.1652 104.804 34.9391 104.556 34.7734C104.291 34.6132 104.002 34.4982 103.699 34.4332C103.343 34.3703 102.982 34.3389 102.62 34.3394C102.316 34.3404 102.013 34.3758 101.717 34.4449C101.433 34.5224 101.161 34.6368 100.907 34.7851C100.67 34.9384 100.47 35.1428 100.321 35.3834C100.166 35.646 100.089 35.9469 100.098 36.2515C100.076 36.6189 100.189 36.9817 100.415 37.272C100.641 37.5215 100.922 37.7144 101.236 37.8351C101.583 37.9807 101.945 38.0869 102.315 38.1519C102.702 38.234 103.066 38.3161 103.394 38.4099C103.695 38.4877 103.98 38.6145 104.239 38.7853C104.353 38.8595 104.446 38.9625 104.508 39.0841C104.57 39.2056 104.598 39.3413 104.591 39.4774C104.599 39.6726 104.537 39.8643 104.415 40.017C104.312 40.1634 104.17 40.2774 104.004 40.3455C103.829 40.4224 103.643 40.4738 103.453 40.498C103.041 40.5632 102.622 40.5632 102.21 40.498C101.998 40.4537 101.796 40.3744 101.611 40.2634C101.437 40.157 101.288 40.0127 101.177 39.8411C101.077 39.6521 101.017 39.4444 101.001 39.2311H99.9456C99.9616 39.589 100.049 39.94 100.204 40.2634C100.357 40.5444 100.574 40.7855 100.837 40.9672C101.112 41.1498 101.418 41.2809 101.74 41.3543C102.441 41.5011 103.163 41.5011 103.864 41.3543C104.191 41.3 104.505 41.1846 104.79 41.0142" fill="#024693"/>
<path d="M108.579 32.4604H107.524V34.5133H106.351V35.4401H107.524V39.8508C107.513 40.1084 107.545 40.366 107.617 40.6133C107.663 40.7812 107.757 40.9321 107.887 41.0474C108.031 41.1589 108.2 41.2317 108.38 41.2585C108.626 41.2852 108.873 41.2852 109.119 41.2585H109.952V40.3435H109.471H109.025C108.929 40.334 108.837 40.3019 108.755 40.2497C108.683 40.2001 108.633 40.1244 108.615 40.0385C108.599 39.9296 108.599 39.819 108.615 39.71V35.4401H110.022V34.5133H108.615L108.579 32.4604Z" fill="#024693"/>
<path d="M50.4998 32.4604H49.4441V34.5133H48.271V35.4401H49.4441V39.8508C49.438 40.1082 49.4696 40.3651 49.5379 40.6133C49.5836 40.7812 49.6774 40.9321 49.8077 41.0474C49.9511 41.1589 50.1208 41.2317 50.3004 41.2585C50.546 41.2852 50.7938 41.2852 51.0394 41.2585H51.8723V40.3435H51.3914H50.9573C50.8572 40.3359 50.7605 40.3036 50.6758 40.2497C50.6034 40.2001 50.553 40.1244 50.535 40.0385C50.5196 39.9296 50.5196 39.819 50.535 39.71V35.4401H51.9544V34.5133H50.4998V32.4604Z" fill="#024693"/>
<path d="M112.616 36.0229V34.5096H111.631V41.3135H112.616V38.3808C112.613 37.9861 112.657 37.5924 112.745 37.2077C112.825 36.883 112.973 36.579 113.179 36.3162C113.39 36.0685 113.66 35.8788 113.965 35.7648C114.34 35.6248 114.738 35.5609 115.138 35.5771V34.404C114.624 34.3711 114.111 34.4981 113.672 34.7677C113.229 35.0629 112.87 35.4668 112.628 35.9408" fill="#024693"/>
<path d="M118.62 43.0996C118.769 42.8235 118.899 42.5374 119.008 42.2433L121.999 34.5127H120.826L118.902 40.1434H118.82L116.814 34.5362H115.641L118.351 41.34L117.881 42.5131C117.794 42.7031 117.661 42.8684 117.494 42.994C117.325 43.1092 117.124 43.1668 116.92 43.1582C116.8 43.1617 116.68 43.1418 116.568 43.0996L116.286 43.0175V43.9794L116.638 44.0615H117.037C117.259 44.0634 117.481 44.0317 117.694 43.9677C117.876 43.8932 118.043 43.7858 118.186 43.6509C118.354 43.4891 118.496 43.3033 118.609 43.0996" fill="#024693"/>
</svg>
