<svg xmlns="http://www.w3.org/2000/svg" width="122" height="55" fill="none" viewBox="0 0 122 55"><g clip-path="url(#clip0_17580_1669)"><path fill="#161413" fill-rule="evenodd" d="M35.2967 21.8428C38.8501 21.8428 41.0115 22.4654 42.0989 23.7953C42.6916 24.5189 42.9907 25.4812 42.9975 26.7C43.001 27.3772 42.9147 28.1328 42.7409 28.9738L40.3052 40.6977C39.9677 42.3186 39.7645 43.5596 39.7699 44.5883C39.772 44.9144 39.8021 45.2161 39.8493 45.5018C38.872 45.5018 33.9464 45.5018 33.1854 45.5018C33.1833 45.4298 33.173 45.36 33.173 45.286C33.1703 44.7999 33.2079 44.2866 33.2503 43.7552L33.3202 42.7935H32.9513L32.8055 43.0226C31.6098 44.9382 28.8941 46.1233 26.5672 46.1233C24.6386 46.1233 23.2568 45.6317 22.4608 44.6567C21.582 43.5834 21.3726 41.9017 21.8366 39.6613C22.7455 35.2846 24.7426 33.4326 29.751 32.3124C29.7538 32.3124 33.0765 31.5574 33.0765 31.5574C35.0496 31.1231 36.0003 30.2564 36.3527 28.5612C36.545 27.6309 36.441 26.9121 36.042 26.4217C35.6717 25.9709 35.0777 25.7425 34.2777 25.7425C32.4968 25.7425 31.5489 26.6591 30.9624 28.9404C30.3465 28.9404 25.9903 28.9404 25.0156 28.9404C26.6144 22.786 32.104 21.8428 35.2967 21.8428ZM35.2228 33.9123C35.2228 33.9123 35.0887 34.0346 34.8306 34.1358C34.4097 34.2971 33.4755 34.4494 32.8979 34.5939C32.4503 34.705 31.9452 34.8335 31.3997 35.0619C29.9475 35.675 29.1987 36.6786 28.8134 38.5237C28.5889 39.6033 28.7203 40.4861 29.198 41.0706C29.5546 41.5085 30.0823 41.7383 30.7187 41.7383C33.3161 41.7383 34.1305 39.2625 34.5172 37.3972L35.2413 33.9123H35.2228Z" clip-rule="evenodd"/><path fill="#161413" fill-rule="evenodd" d="M59.1096 43.4325C57.7032 41.7124 57.4274 39.0069 58.3979 34.1875C60.5153 23.6951 64.5177 21.8428 68.0001 21.8428C69.6554 21.8428 72.1489 22.4538 72.4419 25.3489L72.4881 25.799H72.9717C72.9717 25.799 73.5373 23.0758 73.6613 22.4682C74.3173 22.4682 79.1656 22.4682 80.1348 22.4682C79.8994 23.5982 75.3272 45.5018 75.3272 45.5018C74.1855 51.0042 70.6401 53.7453 64.1357 53.7453C58.1097 53.7453 57.2159 50.2046 57.0804 49.1082C57.029 48.6919 57.1693 47.4635 57.1693 47.4635C57.8627 47.4635 62.5876 47.4635 63.4685 47.4635C63.4685 47.4684 63.4685 47.4684 63.4685 47.4684C63.4721 48.0278 63.5141 48.8532 63.704 49.0851C63.9647 49.4057 64.1813 49.7821 65.1807 49.7821C66.5073 49.7821 67.7772 49.4008 68.3967 46.4166L69.469 41.248H68.9518L68.8088 41.491C67.5186 43.7167 65.1162 44.8418 62.5827 44.8418C61.0225 44.8418 59.885 44.3837 59.1096 43.4325ZM65.5374 33.6777C64.8288 37.0927 64.8597 38.4056 65.5528 39.2535C65.8969 39.6767 66.412 39.8792 67.1233 39.8792C69.0913 39.8792 70.0528 38.6885 71.0522 33.8823C71.7663 30.44 71.8406 28.2536 71.1573 27.4147C70.8216 27.0076 70.3303 26.805 69.6526 26.805C67.6195 26.805 66.5339 28.8714 65.5374 33.6777Z" clip-rule="evenodd"/><path fill="#161413" fill-rule="evenodd" d="M90.5161 22.4682C90.2856 23.5799 85.8893 44.7657 85.7344 45.5018C85.0715 45.5018 79.7144 45.5018 78.7262 45.5018C78.9582 44.3893 83.3593 23.2041 83.5128 22.4682C84.1751 22.4682 89.5329 22.4682 90.5161 22.4682Z" clip-rule="evenodd"/><path fill="#161413" fill-rule="evenodd" d="M103.387 14.7841C103.153 15.9141 97.1656 44.7532 97.0086 45.5018C96.3428 45.5018 90.9892 45.5018 89.9996 45.5018C90.2337 44.3684 96.2229 15.5295 96.3799 14.7841C97.0457 14.7841 102.4 14.7841 103.387 14.7841Z" clip-rule="evenodd"/><path fill="#161413" fill-rule="evenodd" d="M114.624 14.7841C114.386 15.9141 108.398 44.7532 108.24 45.5018C107.578 45.5018 102.218 45.5018 101.235 45.5018C101.471 44.3684 107.46 15.5295 107.615 14.7841C108.281 14.7841 113.639 14.7841 114.624 14.7841Z" clip-rule="evenodd"/><path fill="#161413" fill-rule="evenodd" d="M60.1075 21.8428C57.8107 21.8428 55.0779 23.4441 53.7433 26.0187L53.605 26.2846H53.0917C53.0917 26.2846 53.709 23.3152 53.8829 22.4682C53.7522 22.4682 53.5427 22.4682 53.2826 22.4682V22.4654C52.5216 22.4654 47.5953 22.4654 46.6166 22.4654C46.6639 22.7532 46.694 23.054 46.696 23.3827C46.7002 24.1213 46.5941 24.9752 46.4092 26.0002C45.1103 32.2551 42.5322 44.6568 42.3583 45.5018C43.3445 45.5018 48.702 45.5018 49.3699 45.5018C49.8176 43.3382 52.0049 32.7915 52.0049 32.7915C52.6647 29.6188 54.5317 28.1417 57.875 28.1417C58.4519 28.1417 58.959 28.1738 59.4573 28.2467C59.6133 27.4986 60.5927 22.786 60.7871 21.8428C60.4477 21.8428 60.1075 21.8428 60.1075 21.8428Z" clip-rule="evenodd"/><path fill="#161413" fill-rule="evenodd" d="M2.09927 44.3027C0.348615 42.1615 0.271244 38.2248 1.83303 30.711C4.32635 18.6987 7.93244 14.6449 16.1206 14.6449C19.392 14.6449 21.6888 15.4224 22.9433 16.9562C23.755 17.9472 24.1657 19.3003 24.1752 20.9971C24.1807 21.9212 24.0671 22.9496 23.8337 24.0736C23.8337 24.0736 23.6202 25.0993 23.4991 25.6797C22.8345 25.6797 16.599 25.6797 16.599 25.6797C16.599 25.6797 17.1102 22.4013 17.1061 21.6784C17.1013 20.8648 17.0698 20.4242 16.7577 20.0136C16.434 19.5887 15.9529 19.2484 15.1986 19.2484C12.149 19.2484 11.147 22.1429 9.41005 30.5071C8.06174 36.9998 7.57929 39.9798 8.62092 41.2529C9.01584 41.7334 9.61056 41.9673 10.4448 41.9673C12.8464 41.9673 13.7929 39.9155 14.9995 34.2078C15.6613 34.2078 20.9654 34.2078 21.9502 34.2078C21.8134 34.8684 21.5855 35.9607 21.5855 35.9607C20.1243 42.9995 15.9836 46.5717 9.27795 46.5717C5.64649 46.5717 3.36545 45.8482 2.09927 44.3027Z" clip-rule="evenodd"/><path fill="#161413" fill-rule="evenodd" d="M116.112 14.7677H118.215L118.145 15.1012H117.278L116.656 18.1041H116.285L116.908 15.1012H116.044L116.112 14.7677Z" clip-rule="evenodd"/><path fill="#161413" fill-rule="evenodd" d="M120.759 14.7677H121.412L120.718 18.1041H120.348L120.919 15.3549C120.948 15.2124 120.985 15.0746 121.006 14.9327H120.998C120.917 15.1285 120.86 15.2526 120.802 15.3815L119.535 18.1041H119.094L118.965 15.3413C118.958 15.2253 118.956 15.1142 118.953 14.9327H118.944C118.915 15.0746 118.893 15.2212 118.863 15.3645L118.294 18.1041H117.924L118.616 14.7677H119.273L119.388 17.3709C119.395 17.5128 119.384 17.6505 119.356 17.8647H119.366C119.424 17.6955 119.48 17.5305 119.554 17.3661L120.759 14.7677Z" clip-rule="evenodd"/><path fill="#00812E" fill-rule="evenodd" d="M91.116 19.7504C91.6669 7.09108 76.3483 -2.41324 62.0511 0.542537C47.7616 3.49629 40.8546 15.8944 39.0493 19.7245H41.3864C44.5148 14.4813 47.6822 10.4111 53.0807 8.89496C56.5103 7.93135 59.2047 8.15232 65.8373 11.8398C68.8922 13.5388 75.8058 18.6462 83.2332 19.6665C86.4598 20.1105 91.116 19.7504 91.116 19.7504Z" clip-rule="evenodd"/></g><defs><clipPath id="clip0_17580_1669"><rect width="122" height="54.328" fill="#fff"/></clipPath></defs></svg>