<svg width="122" height="47" viewBox="0 0 122 47" fill="none" xmlns="http://www.w3.org/2000/svg">
<path d="M33.7126 11.6412V15.622C33.7126 16.6915 34.5817 17.5605 35.6512 17.5605H44.4484V44.1059C44.4484 45.1755 45.3175 46.0445 46.387 46.0445H51.15C52.2195 46.0445 53.0885 45.1755 53.0885 44.1059V17.5605H61.8857C62.9553 17.5605 63.8243 16.6915 63.8243 15.622V11.6412C63.8243 10.5716 62.9587 9.70256 61.8857 9.69922H35.6646C34.595 9.69922 33.726 10.5682 33.726 11.6412" fill="black"/>
<path d="M14.1751 9.69922H1.80824C0.808861 9.69922 0 10.5081 0 11.5075V44.253C0 45.2523 0.808861 46.0612 1.80824 46.0612H14.1751C25.5961 46.0612 33.4875 38.1163 33.4875 27.8886V27.785C33.4875 17.5572 25.5961 9.71593 14.1751 9.71593M24.4864 27.9922C24.4864 34.0987 20.3419 38.1999 14.1751 38.1999H8.63008V17.5605H14.1718C17.1933 17.5605 19.7803 18.5566 21.6454 20.435C23.5105 22.3168 24.4831 24.8737 24.4831 27.8719V27.9922H24.4864Z" fill="black"/>
<path d="M112.303 13.7669C110.057 13.7669 108.235 11.9453 108.235 9.69922H102.594C102.594 15.0571 106.939 19.4022 112.296 19.4022C117.654 19.4022 121.999 15.0571 121.999 9.69922H116.371C116.371 11.9453 114.553 13.7636 112.31 13.7669" fill="#62BB46"/>
<path d="M112.303 7.71475e-06C106.945 -0.00667709 102.6 4.33176 102.594 9.68629V9.69966H108.229C108.289 7.45356 110.161 5.68209 112.407 5.7456C114.566 5.80576 116.304 7.54047 116.361 9.69966H121.999C121.996 4.34179 117.654 7.71475e-06 112.296 7.71475e-06" fill="#008FD5"/>
<path d="M88.0229 8.80566C83.3636 8.80566 79.8073 10.7142 76.8326 14.8086V11.6467C76.8326 10.5705 75.9602 9.69809 74.8839 9.69809H70.1444C69.0682 9.69809 68.1958 10.5705 68.1958 11.6467V44.1014C68.1958 45.171 69.0648 46.04 70.1344 46.04H74.914C75.9836 46.04 76.8526 45.171 76.8526 44.1014V25.5444C76.8526 20.1631 80.0078 16.6837 84.8878 16.6837C89.7677 16.6837 92.5084 19.859 92.5084 25.4074V44.1081C92.5084 45.1777 93.3775 46.0467 94.447 46.0467H99.2099C100.28 46.0467 101.149 45.1777 101.149 44.1081V22.8538C101.149 14.1869 96.1349 8.80566 88.0664 8.80566" fill="black"/>
</svg>
