<svg width="122" height="19" viewBox="0 0 122 19" fill="none" xmlns="http://www.w3.org/2000/svg">
<path d="M72.0142 13.1018H75.7328V10.0049H71.9907C71.9907 10.4155 71.9907 10.826 71.9907 11.1779" fill="#B863A2"/>
<path d="M85.9031 12.7381V13.1018H89.6686C89.6455 12.7776 89.6455 12.4523 89.6686 12.1281V10.0049H85.9031" fill="#F6AA00"/>
<path d="M93.845 13.1018C93.8623 12.7775 93.8623 12.4524 93.845 12.1281V10.0049H97.587V13.0783" fill="#E40065"/>
<path d="M64.0151 10.0293V13.1262H67.7455V11.6833C67.7338 11.1307 67.7613 10.578 67.8276 10.0293" fill="#009BD9"/>
<path d="M29.3262 10.0293V13.1262H33.0565V11.742C33.0373 11.1704 33.0569 10.5982 33.1152 10.0293" fill="#EA601F"/>
<path d="M44.3311 11.2962V13.1262H48.0966V10.0293H44.2959C44.3244 10.4511 44.3244 10.8744 44.2959 11.2962" fill="#C3D600"/>
<path d="M36.8362 10.0293C36.8362 10.5806 36.8362 11.132 36.8362 11.5308V13.1262H40.5665V11.742C40.5566 11.1699 40.5841 10.5978 40.6486 10.0293" fill="#009BD9"/>
<path d="M99.8169 10.0293V13.1262H103.536V11.742C103.497 11.1717 103.497 10.5995 103.536 10.0293" fill="#C3D600"/>
<path d="M114.785 11.2962V13.1262H118.48V10.0293H114.738C114.76 10.4513 114.76 10.8742 114.738 11.2962" fill="#009BD9"/>
<path d="M107.254 10.0293C107.254 10.5806 107.254 11.132 107.254 11.5308V13.1262H110.972V11.742C110.962 11.1699 110.99 10.5978 111.054 10.0293" fill="#EA601F"/>
<path d="M62.3122 11.7176C62.3075 11.144 62.2605 10.5715 62.1714 10.0049H49.9247C49.824 10.5701 49.7768 11.1435 49.7839 11.7176C49.7801 12.1816 49.8194 12.645 49.9012 13.1018H62.2301C62.2301 12.6677 62.3122 12.2102 62.3122 11.7176Z" fill="#E40065"/>
<path d="M82.5829 10.0293H78.8643V13.1262H82.5829V10.0293Z" fill="#59B555"/>
<path d="M17.3258 11.6012C17.3283 11.0604 17.44 10.5258 17.6543 10.0293H13.7011C13.6077 10.5323 13.5606 11.0427 13.5603 11.5543C13.5719 12.0808 13.6189 12.606 13.7011 13.1262H17.5956C17.3977 12.6419 17.2942 12.1243 17.2906 11.6012" fill="#F6AA00"/>
<path d="M26.8631 13.1018V10.0049H23.1797C23.3888 10.4902 23.4967 11.0131 23.4967 11.5416C23.4967 12.0701 23.3888 12.593 23.1797 13.0783" fill="#B863A2"/>
<path d="M12.5524 11.7176C12.5459 11.1431 12.491 10.5701 12.3882 10.0049H0.141455C0.0407703 10.5701 -0.00636103 11.1435 0.000687998 11.7176C-0.00307389 12.1816 0.0361962 12.645 0.117994 13.1018H12.4234C12.5097 12.6454 12.5529 12.182 12.5524 11.7176Z" fill="#009BD9"/>
<path d="M118.644 5.53828H119.09V7.18056H119.289V5.53828H119.723V5.35059H118.644" fill="#231815"/>
<path d="M121.637 5.25293L120.98 6.77791L120.311 5.25293L119.948 7.17675H120.147L120.393 5.94504L120.98 7.25886L121.555 5.94504H121.578L121.801 7.17675H122" fill="#231815"/>
<path d="M82.5829 13.1025H78.8643V17.959H82.5829V13.1025Z" fill="#231815"/>
<path d="M89.6217 5.25293H85.9031V10.0273H89.6217V5.25293Z" fill="#231815"/>
<path d="M93.8447 13.1025C93.7039 14.2756 93.2347 15.3196 91.7683 15.3196C90.302 15.3196 89.8093 14.2639 89.692 13.1025H85.9382C86.0673 16.6217 88.038 18.3696 91.8035 18.3696C95.5691 18.3696 97.5281 16.5748 97.6688 13.1025" fill="#231815"/>
<path d="M97.6095 5.25293H93.8909V10.0156H97.6095V5.25293Z" fill="#231815"/>
<path d="M67.7337 13.1025H64.0151V17.959H67.7337V13.1025Z" fill="#231815"/>
<path d="M75.7337 13.1025H72.0151V17.959H75.7337V13.1025Z" fill="#231815"/>
<path d="M75.734 10.0302C75.734 7.14452 74.561 4.84532 71.1943 4.84532C70.5389 4.80799 69.8844 4.93299 69.289 5.20925C68.6935 5.4855 68.1754 5.90446 67.7807 6.42895V5.25589H64.0151V10.042H67.8276C67.9801 8.86892 68.4728 7.76624 69.9743 7.76624C71.4758 7.76624 71.9098 8.85719 71.9919 10.042H75.734" fill="#231815"/>
<path d="M48.0497 13.1025H44.3311V17.959H48.0497V13.1025Z" fill="#231815"/>
<path d="M33.0814 13.1025H29.3628V17.959H33.0814V13.1025Z" fill="#231815"/>
<path d="M40.5655 13.1025H36.8469V17.959H40.5655V13.1025Z" fill="#231815"/>
<path d="M43.9073 4.84427C43.1581 4.83531 42.4184 5.01289 41.7549 5.36102C41.0914 5.70915 40.525 6.21688 40.1066 6.83848C39.7168 6.20312 39.1644 5.68333 38.5066 5.33276C37.8488 4.9822 37.1093 4.81356 36.3645 4.84427C35.7491 4.83788 35.1407 4.9744 34.587 5.24309C34.0333 5.51178 33.5496 5.90532 33.1738 6.39271H33.1152V5.21965H29.3262V9.99401H33.1152C33.2559 8.82095 33.6665 7.71827 35.0272 7.71827C36.388 7.71827 36.693 8.89133 36.7751 9.99401H40.6227C40.7752 8.82095 41.2327 7.71827 42.5231 7.71827C43.8135 7.71827 44.1771 8.89133 44.2592 9.99401H48.0951C48.0951 7.21386 47.274 4.80908 43.9425 4.80908" fill="#231815"/>
<path d="M56.3068 15.649C55.7207 15.6503 55.1535 15.4416 54.708 15.0607C54.2625 14.6798 53.9683 14.1519 53.8785 13.5727L53.7847 13.1621H49.8901C50.1109 14.6771 50.8933 16.0537 52.082 17.0185C53.2707 17.9834 54.7788 18.466 56.3068 18.3705C57.3878 18.4052 58.4589 18.1546 59.4124 17.6439C60.3658 17.1332 61.1679 16.3804 61.7381 15.4613L58.43 14.4759C58.2017 14.8327 57.8879 15.1268 57.5171 15.3316C57.1464 15.5365 56.7303 15.6456 56.3068 15.649Z" fill="#231815"/>
<path d="M56.1073 4.84426C54.6091 4.7534 53.1331 5.24034 51.9831 6.20486C50.8331 7.16938 50.0966 8.53807 49.9253 10.0292H53.8316C53.8081 9.68745 53.8552 9.34455 53.9698 9.02177C54.0845 8.69899 54.2643 8.40323 54.4981 8.15286C54.7318 7.9025 55.0146 7.70287 55.3287 7.56638C55.6429 7.4299 55.9818 7.35947 56.3243 7.35947C56.6669 7.35947 57.0058 7.4299 57.3199 7.56638C57.6341 7.70287 57.9168 7.9025 58.1506 8.15286C58.3844 8.40323 58.5642 8.69899 58.6788 9.02177C58.7935 9.34455 58.8405 9.68745 58.8171 10.0292H62.172C62.0289 8.54799 61.3169 7.18002 60.1859 6.21302C59.0548 5.24602 57.5928 4.75537 56.1073 4.84426Z" fill="#231815"/>
<path d="M118.504 13.1025H114.785V17.959H118.504V13.1025Z" fill="#231815"/>
<path d="M103.536 13.1025H99.8169V17.959H103.536V13.1025Z" fill="#231815"/>
<path d="M111.02 13.1025H107.301V17.959H111.02V13.1025Z" fill="#231815"/>
<path d="M114.351 4.84427C113.602 4.8374 112.863 5.01589 112.2 5.36384C111.537 5.71178 110.97 6.21838 110.55 6.83848C110.156 6.19411 109.594 5.66852 108.925 5.31744C108.256 4.96636 107.504 4.80286 106.75 4.84427C106.135 4.83968 105.527 4.97699 104.973 5.24555C104.42 5.51411 103.936 5.90667 103.559 6.39271V5.21965H99.8169V9.99401H103.594C103.735 8.82095 104.145 7.71827 105.506 7.71827C106.867 7.71827 107.172 8.89133 107.254 9.99401H111.102C111.243 8.82095 111.712 7.71827 113.014 7.71827C114.316 7.71827 114.656 8.89133 114.738 9.99401H118.48C118.48 7.21386 117.647 4.80908 114.328 4.80908" fill="#231815"/>
<path d="M6.51184 15.649C5.92573 15.6503 5.35855 15.4416 4.91308 15.0607C4.46762 14.6798 4.17335 14.1519 4.08361 13.5727L3.98976 13.1621H0.106934C0.314183 14.6857 1.08915 16.0747 2.27675 17.0514C3.46435 18.028 4.97695 18.5201 6.51184 18.4291C7.59288 18.4639 8.664 18.2133 9.61744 17.7026C10.5709 17.1919 11.373 16.4391 11.9431 15.52L8.64682 14.4759C8.41979 14.8366 8.10467 15.1336 7.73115 15.3388C7.35764 15.544 6.93802 15.6508 6.51184 15.649Z" fill="#231815"/>
<path d="M6.32412 4.84444C4.82594 4.75357 3.34993 5.24052 2.19993 6.20503C1.04993 7.16955 0.313445 8.53824 0.14209 10.0294H4.04838C4.08011 9.36787 4.35093 8.7404 4.8105 8.26357C5.27007 7.78674 5.88713 7.49298 6.547 7.4369C7.20568 7.49326 7.82132 7.78744 8.27896 8.26451C8.73661 8.74158 9.00495 9.36891 9.03389 10.0294H12.3888C12.2486 8.54701 11.5374 7.17728 10.4056 6.20971C9.27389 5.24214 7.81026 4.75256 6.32412 4.84444Z" fill="#231815"/>
<path d="M82.5837 0.961426H78.8651V5.25483H76.6128V8.31652H78.8651V10.0292H82.5837V8.31652H84.789V5.25483H82.5837" fill="#231815"/>
<path d="M23.1461 6.40491H23.0874C22.6401 5.89905 22.0889 5.49569 21.4714 5.22238C20.854 4.94908 20.1848 4.81226 19.5096 4.82128C18.0728 4.83907 16.6902 5.37237 15.6136 6.32405C14.5371 7.27573 13.8382 8.58245 13.6443 10.0062H17.6092C17.8069 9.43066 18.1794 8.93122 18.6746 8.57764C19.1699 8.22406 19.7633 8.034 20.3718 8.034C20.9803 8.034 21.5737 8.22406 22.0689 8.57764C22.5642 8.93122 22.9367 9.43066 23.1343 10.0062H26.8647V0H23.1461" fill="#231815"/>
<path d="M20.4243 15.1789C19.7962 15.1675 19.1871 14.9617 18.6808 14.5899C18.1746 14.218 17.796 13.6984 17.5972 13.1025H13.7026C13.8848 14.5406 14.5771 15.8655 15.6534 16.8363C16.7298 17.8072 18.1188 18.3596 19.5679 18.393C20.2381 18.4102 20.9033 18.2744 21.5131 17.9959C22.1229 17.7175 22.6612 17.3036 23.0871 16.7859H23.1575V17.959H26.8644V13.126H23.2044C23.0059 13.711 22.6332 14.2213 22.1362 14.5883C21.6392 14.9552 21.0418 15.1613 20.4243 15.1789Z" fill="#231815"/>
</svg>
