<svg width="126" height="46" viewBox="0 0 126 46" fill="none" xmlns="http://www.w3.org/2000/svg">
<path d="M63.0813 40.5422C82.7058 40.5422 98.6145 32.7152 98.6145 23.0601C98.6145 13.4051 82.7058 5.57812 63.0813 5.57812C43.4569 5.57812 27.5481 13.4051 27.5481 23.0601C27.5481 32.7152 43.4569 40.5422 63.0813 40.5422Z" fill="#FFD000"/>
<path d="M99.3462 17.4492H116.259C116.666 17.6932 116.747 18.2623 116.34 18.8315L111.055 26.5561C110.974 26.6374 110.892 26.7188 110.73 26.8001H100.241C100.728 25.5804 100.972 24.3607 100.972 23.0597C100.972 21.1082 100.403 19.1568 99.3462 17.4492Z" fill="white" stroke="white" stroke-width="2.4105"/>
<path d="M116.097 17.856C116.178 17.856 116.178 17.9373 116.178 18.0186V18.0999C116.178 18.2625 116.097 18.4251 116.015 18.5878L110.73 26.3124L110.649 26.3937H100.891C101.217 25.3366 101.379 24.2796 101.461 23.1412C101.461 21.3524 100.973 19.5635 100.078 17.9373L116.097 17.856Z" fill="#0080C2"/>
<path d="M118.942 15.4977C118.78 15.6604 118.536 15.823 118.211 15.9043H98.208C92.5975 8.83018 78.9371 3.87017 63 3.87017C47.0629 3.87017 33.4838 8.83018 27.8733 15.9043H7.62673C7.38279 15.823 7.13886 15.6604 6.97623 15.4977L2.26015 8.66756C1.69097 7.85444 2.09753 7.12264 3.07327 7.12264H37.2242C44.217 3.95148 53.2426 2 63.1626 2C73.0826 2 82.1082 3.95148 89.1011 7.12264H122.927C123.902 7.12264 124.309 7.85444 123.74 8.66756L118.942 15.4977Z" fill="white" stroke="white" stroke-width="2.4105"/>
<path d="M2.50418 8.42355C2.42286 8.26092 2.34155 8.0983 2.34155 7.93568C2.34155 7.85437 2.34155 7.85437 2.34155 7.77305C2.50418 7.61043 2.74811 7.52912 2.99205 7.52912H37.3056H37.3869C44.5423 4.27665 53.6492 2.48779 63.0814 2.48779C72.5136 2.48779 81.7018 4.27665 88.7759 7.52912H88.8572H122.846C123.089 7.52912 123.333 7.61043 123.496 7.77305C123.496 7.85437 123.496 7.85437 123.496 7.93568C123.496 8.0983 123.415 8.26092 123.333 8.42355L118.617 15.2537C118.455 15.335 118.373 15.4164 118.211 15.4977H98.452C92.5162 8.17961 78.6119 3.46353 63.0814 3.46353C47.5509 3.46353 33.6466 8.17961 27.7108 15.4977H7.70813C7.5455 15.4164 7.38288 15.335 7.30157 15.2537L2.50418 8.42355Z" fill="#0080C2"/>
<path d="M108.697 28.3452C109.348 28.5078 109.592 29.1583 109.104 29.8901L103.9 37.4521C103.656 37.6961 103.412 37.7774 103.087 37.8587H91.9472C91.7846 37.8587 91.6219 37.8587 91.378 37.7774C84.1413 41.6803 74.0586 44.1197 63.0002 44.1197C51.9418 44.1197 41.7779 41.6803 34.5411 37.7774C34.3785 37.8587 34.1346 37.8587 33.9719 37.8587H22.9949C22.6696 37.7774 22.4257 37.6147 22.1817 37.4521L16.8965 29.8901C16.4086 29.1583 16.6525 28.5891 17.303 28.3452H26.5726C31.126 36.3951 45.7621 42.2495 63.0815 42.2495C80.4009 42.2495 95.037 36.3951 99.5905 28.3452H108.697Z" fill="white" stroke="white" stroke-width="2.4105"/>
<path d="M108.616 28.8333C108.778 28.8333 108.86 28.9146 108.941 29.0772C108.941 29.1585 108.941 29.1585 108.941 29.2398C108.941 29.4024 108.86 29.5651 108.778 29.7277L103.574 37.2897C103.412 37.371 103.249 37.5336 103.087 37.5336H92.0282L91.459 37.4523L91.2964 37.5336C83.8157 41.5992 73.8144 43.7946 63.0813 43.7946C52.3481 43.7946 42.3468 41.5179 34.8661 37.4523L34.7848 37.371H34.6222L34.1343 37.4523H22.9946C22.832 37.371 22.6693 37.2897 22.5067 37.2084L17.2215 29.6464C17.1402 29.4838 17.0588 29.3211 17.0588 29.1585C17.0588 29.0772 17.0588 29.0772 17.0588 28.9959C17.1401 28.9146 17.2215 28.752 17.3841 28.752H26.4097C31.2884 36.9644 46.2497 42.6563 63.0813 42.6563C79.9128 42.6563 94.9554 36.9644 99.7528 28.752L108.616 28.8333Z" fill="#0080C2"/>
<path d="M15.1886 26.8001C15.1073 26.7188 15.026 26.6374 14.8634 26.5561L9.49678 18.8315C9.09023 18.2623 9.17154 17.6932 9.5781 17.4492H26.7349C25.6778 19.1568 25.1086 21.1082 25.1086 23.0597C25.1086 24.3607 25.3526 25.5804 25.8404 26.8001H15.1886Z" fill="white" stroke="white" stroke-width="2.4105"/>
<path d="M26.0846 17.856C25.1902 19.4009 24.7023 21.1897 24.7023 23.0599C24.7023 24.1983 24.8649 25.2553 25.2715 26.3124H15.3515L15.2702 26.2311L9.90359 18.5878C9.82228 18.4251 9.74097 18.2625 9.74097 18.0999V18.0186C9.74097 17.9373 9.82228 17.9373 9.82228 17.856H26.0846Z" fill="#0080C2"/>
<path d="M26.9788 23.06C26.9788 33.0613 43.1598 41.1112 62.9998 41.1112C82.8399 41.1112 99.0209 32.98 99.0209 23.06C99.0209 13.14 82.9212 5.00879 63.0812 5.00879C43.2411 5.00879 26.9788 13.14 26.9788 23.06ZM28.1171 23.06C28.1171 13.7091 43.8103 6.06584 63.0812 6.06584C82.352 6.06584 98.0452 13.7091 98.0452 23.06C98.0452 32.4108 82.352 40.0541 63.0812 40.0541C43.8103 40.0541 28.1171 32.4108 28.1171 23.06Z" fill="white"/>
<path d="M46.4124 20.0518V16.9619H36.5737V29.9718H40.4767V24.8491H46.2498V21.9219H40.4767V20.0518H46.4124Z" fill="#0080C2"/>
<path d="M46.4123 16.3919H36.0044V30.4588H41.0457V25.3361H46.8189V21.2706H41.0457V20.5388H46.9815V16.3105L46.4123 16.3919ZM45.8431 17.5302V19.563H39.9074V22.5715H45.6805V24.2791H39.9074V29.4017H37.0614V17.5302H45.8431Z" fill="white"/>
<path d="M63 23.4666C63.0813 19.7263 59.9915 16.6364 56.2511 16.5551C56.1698 16.5551 56.0072 16.5551 55.9259 16.5551C52.1042 16.3925 48.9331 19.401 48.7705 23.2227C48.6078 27.0443 51.6164 30.2155 55.438 30.3781C55.6006 30.3781 55.7633 30.3781 55.9259 30.3781C59.6662 30.5407 62.8374 27.6135 63 23.8732C63 23.7106 63 23.6292 63 23.4666Z" fill="#0080C2"/>
<path d="M48.2825 23.4664C48.2825 27.532 51.5349 30.8658 55.6005 30.8658C55.6818 30.8658 55.8445 30.8658 55.9258 30.8658C60.0727 30.8658 63.4064 27.532 63.4064 23.3851C63.4064 19.2382 60.0727 15.9044 55.9258 15.9044C51.8602 15.7418 48.4451 18.913 48.2825 23.0599C48.2825 23.2225 48.2825 23.3851 48.2825 23.4664ZM49.3395 23.4664C49.2582 20.0513 52.0228 17.2054 55.4379 17.1241C55.6005 17.1241 55.6818 17.1241 55.8445 17.1241C59.3409 17.0428 62.2681 19.7261 62.3494 23.2225C62.3494 23.3038 62.3494 23.3851 62.3494 23.4664C62.4307 26.8815 59.6661 29.7274 56.251 29.8087C56.0884 29.8087 56.0071 29.8087 55.8445 29.8087C52.1041 29.8087 49.3395 27.1254 49.3395 23.4664Z" fill="white"/>
<path d="M59.0159 23.4659C59.0159 25.4174 58.0401 27.2063 55.926 27.2063C53.8119 27.2063 52.8362 25.4987 52.8362 23.4659C52.8362 21.5144 53.8119 19.7256 55.926 19.7256C58.0401 19.7256 59.0159 21.5144 59.0159 23.4659Z" fill="#FFD000"/>
<path d="M52.2669 23.4658C52.1855 24.6854 52.6734 25.9051 53.4865 26.7995C54.137 27.45 55.0315 27.7753 55.9259 27.7753C56.8203 27.7753 57.7147 27.45 58.3652 26.7995C59.1784 25.9051 59.6662 24.6854 59.5849 23.4658C59.5849 20.8638 58.1213 19.1562 55.9259 19.1562C53.7305 19.1562 52.2669 20.9451 52.2669 23.4658ZM54.2183 25.9864C53.6492 25.2546 53.3239 24.3602 53.3239 23.4658C53.3239 21.9208 53.9744 20.2946 55.9259 20.2946C57.7961 20.2946 58.4466 21.9208 58.4466 23.4658C58.5279 24.3602 58.2026 25.2546 57.5521 25.9864C57.1456 26.393 56.4951 26.6369 55.9259 26.6369C55.2754 26.6369 54.7062 26.393 54.2183 25.9864Z" fill="white"/>
<path d="M77.0668 25.906C77.0668 22.9788 74.8714 22.0031 71.6189 21.5152C70.3993 21.2713 69.8301 21.0273 69.8301 20.4581C69.8301 19.7263 70.4806 19.4824 71.5376 19.4824C72.676 19.4824 73.733 19.9703 74.5461 20.7834L76.5789 18.5067C75.6845 17.5309 74.1396 16.5552 70.9684 16.5552C67.3907 16.5552 65.4392 18.8319 65.4392 20.7834C65.4392 22.7349 66.4963 24.605 70.5619 25.2555C72.1881 25.4995 72.676 25.906 72.676 26.5565C72.676 27.207 71.9442 27.5323 70.8058 27.5323C69.4235 27.3696 68.2038 26.8004 67.3094 25.7434L65.2766 28.2641C66.0897 29.1585 67.716 30.4595 71.0497 30.4595C74.8714 30.3782 77.0668 28.5893 77.0668 25.906Z" fill="#0080C2"/>
<path d="M64.9515 20.783C64.9515 23.5476 66.8216 25.1738 70.4807 25.8243C72.1882 26.0683 72.1882 26.3935 72.1882 26.5561C72.1882 26.7188 71.7817 26.9627 70.8872 26.9627C69.6676 26.8001 68.6105 26.3122 67.7974 25.4178L67.3908 24.8486L64.5449 28.345L64.8702 28.6702C66.4964 30.2965 68.7731 31.1096 71.0499 31.0283C75.1154 31.0283 77.6361 29.1581 77.6361 26.0683C77.6361 22.5719 74.6276 21.5961 71.7817 21.1082C70.6433 20.8643 70.4807 20.7017 70.4807 20.6204C70.4807 20.5391 70.4807 20.4578 70.562 20.3764C70.6433 20.2951 70.8872 20.1325 71.619 20.1325C72.5948 20.1325 73.5705 20.5391 74.3023 21.1896L74.7089 21.6774L77.4735 18.5876L77.1482 18.181C75.8472 16.7987 73.8145 16.0669 71.1312 16.0669C67.2282 15.9856 64.9515 18.425 64.9515 20.783ZM70.8059 28.0197C72.5948 28.0197 73.2453 27.2066 73.2453 26.4748C73.2453 25.2551 71.9443 24.8486 70.6433 24.686C66.4964 24.0355 66.0085 22.1653 66.0085 20.783C66.0085 18.9941 67.96 17.124 70.9685 17.124C72.6761 17.0427 74.3836 17.5305 75.6846 18.5876L74.3836 20.0512C73.4892 19.4007 72.5135 18.9941 71.3751 18.9941C70.7246 18.9128 70.0741 19.0755 69.5049 19.5633C69.261 19.8073 69.0984 20.2138 69.0984 20.5391C69.0984 21.7587 70.4807 22.0027 71.3751 22.1653C75.0341 22.8158 76.3351 23.8728 76.3351 26.0683C76.3351 28.5076 74.3023 29.8899 70.8872 29.8899C69.0984 29.9712 67.3095 29.402 65.9272 28.1824L67.2282 26.5561C68.2853 27.3692 69.5049 27.9384 70.8059 28.0197Z" fill="white"/>
<path d="M91.0526 25.906C91.0526 22.9788 88.8572 22.0031 85.6048 21.5152C84.3851 21.2713 83.8159 21.0273 83.8159 20.4581C83.8159 19.7263 84.4664 19.4824 85.5235 19.4824C86.6618 19.4824 87.7189 19.9703 88.532 20.7834L90.5648 18.5067C89.6704 17.5309 88.1254 16.5552 84.9543 16.5552C81.3766 16.5552 79.4251 18.8319 79.4251 20.7834C79.4251 22.7349 80.4008 24.605 84.5477 25.2555C86.1739 25.4995 86.6618 25.906 86.6618 26.5565C86.6618 27.207 85.93 27.5323 84.7916 27.5323C83.4093 27.4509 82.1897 26.8004 81.2952 25.7434L79.2625 28.2641C80.0756 29.1585 81.7018 30.4595 85.0356 30.4595C88.9385 30.3782 91.0526 28.5893 91.0526 25.906Z" fill="#0080C2"/>
<path d="M78.9373 20.7825C78.9373 23.5471 80.8075 25.1733 84.4665 25.8238C86.1741 26.0678 86.1741 26.393 86.1741 26.5556C86.1741 26.7183 85.7675 26.9622 84.8731 26.9622C83.6534 26.8809 82.5963 26.3117 81.7832 25.4173L81.3767 24.7668L78.5308 28.1819L78.856 28.5071C80.4822 30.1334 82.759 30.9465 85.0357 30.8652C89.1013 30.8652 91.6219 28.995 91.6219 25.9051C91.6219 22.4087 88.6134 21.433 85.7675 20.9451C84.6291 20.7012 84.4665 20.5386 84.4665 20.4573C84.4665 20.376 84.4665 20.2946 84.5478 20.2133C84.6291 20.132 84.8731 19.9694 85.6049 19.9694C86.5806 19.9694 87.5564 20.376 88.2882 21.0264L88.6947 21.5143L91.4593 18.4245L91.1341 18.0179C89.8331 16.6356 87.8003 15.9038 85.117 15.9038C81.214 15.9851 78.9373 18.4245 78.9373 20.7825ZM87.3124 26.4743C87.3124 25.2547 86.0927 24.8481 84.7104 24.6855C80.5636 24.035 80.0757 22.1648 80.0757 20.7825C80.0757 18.9937 82.0272 17.1235 85.0357 17.1235C86.7432 17.0422 88.4508 17.53 89.8331 18.5871L88.5321 20.0507C87.6377 19.4002 86.6619 18.9937 85.5236 18.9937C84.8731 18.9123 84.2226 19.075 83.6534 19.5628C83.4095 19.8068 83.2468 20.2133 83.2468 20.5386C83.2468 21.7583 84.6291 22.0022 85.5236 22.1648C89.1826 22.8153 90.4836 23.8724 90.4836 26.0678C90.4836 28.5071 88.4508 29.8894 85.0357 29.8894C83.2468 29.9707 81.458 29.4016 80.0757 28.1819L81.3767 26.5556C82.3524 27.4501 83.5721 27.9379 84.7918 28.0193C86.6619 28.0193 87.3124 27.2061 87.3124 26.4743Z" fill="white"/>
</svg>
