<svg width="122" height="19" viewBox="0 0 122 19" fill="none" xmlns="http://www.w3.org/2000/svg">
<path d="M5.3097 0H10.6194L5.3097 9.20114L10.6194 18.4023H5.3097L0 9.20114L5.3097 0Z" fill="#0033AB"/>
<path d="M15.9296 0L20.6649 7.58361H15.3552L10.6199 0H15.9296Z" fill="#0033AB"/>
<path d="M12.5773 9.20068H21.2393L15.9296 18.4018H10.6199L14.4293 11.7911H12.5773V9.20068Z" fill="#0033AB"/>
<path d="M119.802 4.99271C119.805 4.73492 119.905 4.48783 120.083 4.30116C120.174 4.21052 120.282 4.13893 120.4 4.09062C120.519 4.04231 120.646 4.01825 120.775 4.01985C120.903 4.01618 121.031 4.03929 121.15 4.08772C121.269 4.13615 121.377 4.20884 121.466 4.30116C121.604 4.43724 121.698 4.61124 121.736 4.80092C121.774 4.9906 121.755 5.18735 121.68 5.36602C121.606 5.54469 121.48 5.69717 121.319 5.80396C121.158 5.91076 120.968 5.96703 120.775 5.96557C120.647 5.96714 120.519 5.94306 120.401 5.89472C120.282 5.84639 120.174 5.77479 120.083 5.68413C119.993 5.59348 119.921 5.48561 119.873 5.36686C119.824 5.24812 119.8 5.12091 119.802 4.99271ZM120.775 6.16483C120.924 6.16637 121.072 6.13696 121.209 6.07845C121.346 6.01995 121.47 5.93361 121.572 5.82492C121.728 5.69618 121.849 5.52906 121.921 5.33987C121.994 5.15068 122.016 4.94589 121.986 4.74548C121.956 4.54507 121.875 4.3559 121.75 4.19642C121.624 4.03695 121.46 3.91262 121.273 3.83557C121.085 3.75853 120.881 3.73139 120.68 3.75683C120.479 3.78226 120.288 3.85939 120.126 3.98068C119.963 4.10198 119.835 4.26329 119.754 4.44888C119.672 4.63448 119.64 4.838 119.661 5.0396C119.66 5.1849 119.687 5.32909 119.741 5.46387C119.795 5.59865 119.876 5.72135 119.978 5.82492C120.185 6.00813 120.451 6.11194 120.728 6.11795L120.775 6.16483Z" fill="#0033AB"/>
<path d="M120.541 5.50901H120.389V4.4541H120.881C121.057 4.4541 121.233 4.51271 121.233 4.73541C121.237 4.78891 121.225 4.84251 121.198 4.88873C121.171 4.93496 121.13 4.97151 121.08 4.99328C121.08 4.99328 121.198 4.99328 121.209 5.19254V5.38007C121.209 5.43868 121.209 5.46212 121.209 5.48557H121.034C121.029 5.39968 121.029 5.31359 121.034 5.2277C121.034 5.13393 121.034 5.04016 120.846 5.04016H120.506L120.541 5.50901ZM120.541 4.93467H120.869C120.975 4.93467 121.08 4.93467 121.08 4.75885C121.084 4.73331 121.082 4.70718 121.074 4.6826C121.066 4.65802 121.053 4.63568 121.034 4.61739C121.016 4.59911 120.994 4.58541 120.969 4.5774C120.945 4.56939 120.918 4.56731 120.893 4.57131H120.541V4.93467Z" fill="#0033AB"/>
<path d="M78.2148 16.1398H83.6769L77.6405 3.85596H69.9631L64.3955 16.1398H69.4825L70.4788 13.9362H77.1951L78.2148 16.1398ZM71.5572 11.5333L73.8428 6.55183L76.187 11.5333H71.5572Z" fill="#0033AB"/>
<path d="M59.6027 11.3473C60.7234 11.1703 61.7803 10.7104 62.6737 10.0111C63.2843 8.82672 63.4022 7.44912 63.0019 6.17822C62.3689 3.83398 57.0123 3.83398 57.0123 3.83398H47.0376V16.1412H51.9253V12.7773H56.3442C56.8248 12.7773 57.8797 12.9765 57.8797 13.8322V16.1764H63.0605C63.0947 15.0864 63.028 13.9956 62.8612 12.9179C62.2517 11.3004 58.9346 11.3473 59.6027 11.3473ZM56.9537 9.99933H51.9253V6.74084H56.86C56.86 6.74084 58.0321 6.61191 58.0321 8.38181C58.0321 10.1517 56.9537 9.99933 56.9537 9.99933Z" fill="#0033AB"/>
<path d="M118.525 5.63887C116.462 3.4939 110.696 3.85725 110.696 3.85725C109.781 3.85725 104.905 3.70488 103.042 5.6506C101.799 6.93993 102.01 9.964 102.01 9.964C102.01 9.964 101.811 13.2342 103.475 14.6525C105.573 16.3755 110.86 16.1997 110.86 16.1997C111.727 16.1997 116.193 16.1997 118.092 14.6525C119.756 13.2928 119.545 9.964 119.545 9.964C119.545 9.964 119.756 6.9282 118.525 5.63887ZM114.048 12.5427C113.087 13.3866 110.696 13.2459 110.696 13.2459C109.588 13.3399 108.479 13.0902 107.519 12.5309C107.027 12.109 107.191 9.83506 107.191 9.83506C107.191 9.83506 107.003 7.71353 107.566 7.19779C108.129 6.68206 110.86 6.65862 110.86 6.65862C111.422 6.65862 113.391 6.65862 113.989 7.19779C114.587 7.73697 114.364 9.84678 114.364 9.84678C114.364 9.84678 114.528 12.1324 114.048 12.5427Z" fill="#0033AB"/>
<path d="M95.235 11.4044V11.756C95.235 13.1626 94.2387 13.2563 92.1524 13.2563C89.14 13.3032 89.0814 12.5648 89.0814 10.7832V8.9195C89.0814 7.2082 89.351 6.64559 92.211 6.64559C93.9105 6.64559 95.0944 6.72763 95.2702 7.81771V8.28655H100.439V7.81771C100.275 4.20758 97.8723 3.92627 92.7033 3.92627C87.1943 3.92627 83.8655 4.50061 83.8655 8.46237V11.5568C83.8655 15.9288 87.5928 16.0929 92.7033 16.0929C94.7335 16.2756 96.7781 15.9743 98.6693 15.2138C100.381 14.2995 100.404 13.1274 100.404 11.8146V11.463L95.235 11.4044Z" fill="#0033AB"/>
<path d="M44.8224 7.69025C44.8224 3.89258 41.3061 3.86914 36.5004 3.86914C30.9797 3.86914 27.5688 4.46692 27.5688 8.41696V11.5114C27.5688 15.3911 30.5812 16.0357 36.5004 16.0357C43.2166 16.0357 44.8224 15.2973 44.8224 11.2652L44.9631 9.31949H36.4183L36.266 11.1128H39.7237C39.7237 12.7772 39.0556 13.4571 36.5004 13.4571C33.9452 13.4571 32.7379 13.2344 32.7379 11.1128V9.12023C32.7379 7.18624 32.8903 6.48297 36.5004 6.48297C38.0007 6.48297 39.63 6.48297 39.7237 7.65509L44.8224 7.69025Z" fill="#0033AB"/>
</svg>
