<svg width="121" height="67" viewBox="0 0 121 67" fill="none" xmlns="http://www.w3.org/2000/svg">
<path fill-rule="evenodd" clip-rule="evenodd" d="M5.72344 65.5046C5.27217 65.5086 4.83064 65.3733 4.45907 65.1172C4.08749 64.8611 3.80395 64.4966 3.6471 64.0735C3.38343 63.1092 3.35128 62.0963 3.55325 61.1173C4.19844 57.5981 8.89075 52.1667 10.7325 50.325C11.9056 49.1519 19.8825 41.5035 20.645 41.3275V41.5973C20.4462 42.9208 20.1601 44.2297 19.7886 45.5154C19.3898 46.8175 19.0613 47.9906 18.7211 49.3279C17.9653 51.6934 17.0158 53.9926 15.8823 56.2021C14.3573 59.299 10.0169 65.4929 5.72344 65.4929V65.5046ZM117.658 1.45019e-07C118.102 -0.000147804 118.538 0.112909 118.925 0.328461C119.332 0.543934 119.667 0.87439 119.887 1.27865C120.114 1.67098 120.233 2.11602 120.233 2.56904C120.233 3.02206 120.114 3.4671 119.887 3.85942C119.666 4.25923 119.337 4.58857 118.937 4.80961C118.548 5.03179 118.107 5.14864 117.658 5.14864C117.21 5.14864 116.769 5.03179 116.38 4.80961C115.98 4.58857 115.651 4.25923 115.43 3.85942C115.203 3.4671 115.084 3.02206 115.084 2.56904C115.084 2.11602 115.203 1.67098 115.43 1.27865C115.647 0.876053 115.977 0.545772 116.38 0.328461C116.767 0.113393 117.203 0.000368248 117.647 1.45019e-07H117.658ZM117.658 0.504423C117.301 0.505984 116.95 0.598854 116.638 0.774231C116.316 0.950512 116.052 1.21507 115.875 1.53673C115.693 1.85238 115.597 2.21043 115.597 2.5749C115.597 2.93938 115.693 3.29743 115.875 3.61308C116.053 3.93357 116.317 4.19774 116.638 4.37558C116.95 4.55462 117.304 4.64881 117.664 4.64881C118.024 4.64881 118.378 4.55462 118.691 4.37558C119.011 4.19724 119.275 3.93319 119.453 3.61308C119.635 3.29743 119.731 2.93938 119.731 2.5749C119.731 2.21043 119.635 1.85238 119.453 1.53673C119.274 1.21344 119.005 0.948716 118.679 0.774231C118.367 0.599336 118.016 0.506499 117.658 0.504423V0.504423ZM116.485 3.95327V1.22H117.917C118.067 1.22419 118.215 1.26017 118.351 1.32558C118.458 1.38649 118.548 1.47573 118.609 1.58365C118.678 1.70095 118.714 1.83462 118.714 1.97077C118.717 2.15857 118.645 2.33974 118.515 2.47519C118.371 2.6216 118.18 2.71291 117.975 2.73327C118.043 2.75827 118.106 2.79391 118.163 2.83885C118.233 2.90234 118.296 2.97313 118.351 3.05L118.55 3.37846L118.867 3.92981H118.186L117.952 3.48404C117.867 3.28465 117.748 3.10191 117.6 2.94442C117.488 2.86243 117.351 2.82105 117.213 2.82712H117.072V4.00019L116.485 3.95327ZM117.037 2.40481H117.26C117.458 2.42624 117.659 2.42624 117.858 2.40481C117.933 2.38379 117.999 2.3384 118.046 2.27577C118.092 2.21527 118.117 2.1409 118.116 2.06462C118.115 1.9922 118.09 1.92209 118.046 1.86519C117.998 1.80319 117.933 1.75796 117.858 1.73615C117.659 1.71398 117.458 1.71398 117.26 1.73615H117.037V2.48692V2.40481ZM40.6694 31.4971C39.8717 31.4971 39.4963 31.0513 39.0506 31.0513H38.6048C38.2059 31.0513 37.6194 31.9429 37.6194 32.4004V32.5763C37.6194 33.2215 38.4288 33.5735 39.0623 33.5735H39.4259C40.2588 33.5735 40.6694 33.3037 41.3146 33.3037C41.3146 34.9342 38.8394 38.7115 37.0915 38.7115H36.6575C35.6017 38.7115 35.0386 37.6089 35.0386 36.5413V35.3683C35.0386 32.5646 37.4552 26.1713 39.8013 26.1713H40.4348C41.6079 26.1713 42.0536 28.2242 42.0536 29.5146V29.7844C42.0536 30.9575 41.8894 31.4971 40.7046 31.4971H40.6694ZM72.5771 23.5554C72.5771 21.4908 75.3456 16.0712 77.1638 16.0712H77.2577C77.5583 16.102 77.8391 16.2354 78.0528 16.4491C78.2665 16.6628 78.4 16.9436 78.4308 17.2442V17.4202C78.2106 18.9389 77.4927 20.3417 76.3896 21.4087C75.8617 21.9365 73.5859 23.8252 72.7765 23.8252C72.6475 23.8252 72.6006 23.7079 72.6006 23.5554H72.5771ZM53.4325 32.94C53.7696 31.8271 53.9125 30.6643 53.8548 29.5029L53.4325 24.9983V22.57C53.4325 22.0773 53.6084 22.0656 53.6084 21.5729V21.3031C53.6084 21.045 53.3034 20.8573 53.0688 20.8573C50.8517 20.8573 49.1859 24.224 48.2006 25.7138C47.5319 26.7227 44.5523 30.6056 43.3675 30.6056C43.0273 30.6056 43.2267 28.9985 43.1798 28.6231C43.1148 28.0033 42.9648 27.3954 42.734 26.8165C42.5661 26.2762 42.2318 25.8028 41.7789 25.4636C41.326 25.1245 40.7776 24.937 40.2119 24.9279H39.3086C36.7748 24.9279 34.2292 27.931 33.0327 29.456C32.3758 30.2888 28.1761 34.5588 27.1673 34.5706L29.1029 25.5613C30.489 25.1218 31.8989 24.7615 33.3259 24.4821C34.804 24.1067 36.1413 23.7783 37.6077 23.309C40.3761 22.5231 43.0859 21.6667 45.8192 20.7635C47.1448 20.3177 48.529 19.9423 49.7959 19.4379C51.0629 18.9335 52.67 18.3821 53.7961 18.0419C55.239 17.6079 60.9284 15.3438 61.8669 15.3204C61.8669 16.4935 59.0046 23.5319 58.465 24.8927C57.8198 26.5702 54.7933 32.5412 53.4208 32.9048L53.4325 32.94ZM24.1056 24.1888H23.519C22.1279 24.0731 20.7846 23.6266 19.6009 22.8867C19.0843 22.4571 18.6684 21.9192 18.3825 21.3111C18.0967 20.7029 17.948 20.0394 17.9469 19.3675V18.6637C17.9469 14.9919 21.9471 11.1442 24.3519 9.76C25.9473 8.845 27.3667 7.74231 29.1146 6.87423C30.7936 5.92457 32.5291 5.07837 34.3113 4.34038C33.7818 5.03535 33.2014 5.69015 32.5752 6.29942C31.9916 6.98257 31.4435 7.69517 30.9329 8.43442C29.9092 9.95235 29.007 11.5488 28.2348 13.2088C27.3984 14.9396 26.685 16.7271 26.0998 18.5581C25.7831 19.52 25.5133 20.435 25.1848 21.4321C25.0206 21.9248 24.5983 24.2006 24.1642 24.2006L24.1056 24.1888ZM0.644021 64.5896C0.835691 64.9457 1.10907 65.2512 1.44171 65.4812C4.47998 67.7452 9.12537 66.3492 11.9994 64.6483C13.4725 63.7684 14.815 62.6865 15.9879 61.434C18.4212 58.9577 20.4341 56.1009 21.9471 52.9762C23.6407 49.5844 24.8905 45.9887 25.6658 42.2777C25.8652 41.2923 26.135 40.3538 26.3461 39.345C26.5573 38.3362 26.6042 36.9988 27.0969 36.4827C28.3392 35.2755 29.6857 34.1803 31.1206 33.2098C31.1206 34.1483 30.405 35.4152 30.405 36.9988C30.405 39.345 31.5781 41.5152 33.7248 41.5152H35.1677C38.6869 41.5152 41.4554 36.9754 42.3938 34.1483C42.8983 32.635 42.5698 32.7406 43.7781 31.9312C44.5124 31.4488 45.2033 30.9032 45.8427 30.3006C46.4595 29.7159 47.043 29.0971 47.5906 28.4471C47.8838 28.0717 48.8692 26.4412 49.2329 26.3473L49.4675 30.7698V32.5763C49.4675 34.641 48.6698 37.1748 46.6873 37.1748H46.4175C44.8338 37.1748 44.8338 35.2744 44.1652 35.2744C43.8081 35.3046 43.4716 35.4541 43.2098 35.6988C42.9481 35.9435 42.7763 36.2692 42.7223 36.6235C42.7223 37.7965 44.3411 38.3362 45.5025 38.3362H45.8661C49.3854 38.3362 51.1215 36.6587 53.1509 35.1806C54.0861 34.37 54.9316 33.4616 55.6731 32.4708C55.9194 32.1306 57.7963 29.3387 57.8315 29.3152C58.0544 29.7962 57.8315 31.4502 58.2656 32.4825C58.4251 32.9115 58.7068 33.2845 59.0757 33.5555C59.4446 33.8265 59.8848 33.9836 60.3419 34.0075H61.4211C62.8406 34.0075 64.6706 32.1892 65.3979 31.3212C65.9118 30.7151 66.3859 30.0764 66.8173 29.409C67.0754 29.0219 67.8027 27.4265 68.1663 27.3327C68.53 28.0952 68.2836 28.9985 69.0813 29.8431C69.3695 30.1855 69.7285 30.4614 70.1335 30.6517C70.5385 30.8421 70.98 30.9424 71.4275 30.9458H72.2369C80.2725 30.9458 84.7654 14.6165 87.2406 14.6165H87.4165C87.5095 14.6267 87.5962 14.6682 87.6623 14.7344C87.7285 14.8005 87.77 14.8872 87.7802 14.9802C87.4975 17.1517 86.9213 19.2748 86.0675 21.2913C85.8211 21.8779 83.909 26.9925 83.909 27.2506C83.909 27.5087 83.9677 27.5204 84.1788 27.5204H84.3548C85.2281 27.3988 86.0856 27.1825 86.9121 26.8752C87.7567 26.535 88.4019 26.3121 88.7773 25.491C89.399 24.1067 89.8096 22.1477 90.4196 20.6462C91.0296 19.1446 93.4579 12.3173 95.1119 12.3173H95.6515C96.0034 12.3173 96.0973 12.7631 96.0973 13.1267C96.0973 15.5667 93.3992 18.7223 93.3992 21.7019V22.699C93.4655 23.2485 93.7318 23.7543 94.1472 24.12C94.5626 24.4856 95.0981 24.6855 95.6515 24.6815H96.3671C100.696 24.6815 106.186 10.065 107.453 9.71308L108.356 16.3175V18.124C108.356 19.215 107.312 20.916 106.197 20.916H105.658C104.626 20.916 104.074 19.2971 103.593 19.2971H103.523C102.854 19.2971 101.998 19.9775 101.998 20.564C101.998 21.4204 103.64 22.1008 104.52 22.1008H105.236C106.517 22.0965 107.774 21.7522 108.879 21.103C109.984 20.4538 110.896 19.5229 111.523 18.4056C112.591 16.341 113.107 12.9977 116.216 12.9977H116.309C116.767 12.983 117.221 13.0825 117.631 13.2873C118.041 13.4921 118.393 13.7957 118.656 14.1708C118.984 14.8469 119.15 15.5905 119.139 16.3421C119.129 17.0936 118.943 17.8324 118.597 18.4994C117.935 19.8245 117.037 21.0173 115.946 22.0187C114.332 23.3362 112.61 24.5135 110.796 25.5379C106.873 27.6147 102.745 29.2777 98.4786 30.5C96.3084 31.11 94.0796 31.8725 91.8977 32.4708C89.7158 33.069 87.2054 33.5383 85 34.2187C84.0263 34.5119 82.5834 34.8638 81.4808 35.075C80.3781 35.2862 78.9586 35.7671 77.9615 35.9196C76.7736 36.1302 75.5986 36.4083 74.4423 36.7525C73.41 37.081 72.0258 37.2804 71.0052 37.6323C69.9846 37.9842 68.659 38.254 67.6619 38.5121C66.4888 38.8288 65.3979 39.0987 64.2131 39.3802C63.0283 39.6617 62.0311 40.0254 60.8111 40.2952C59.8492 40.5181 58.3829 40.9287 57.4444 41.2454C56.5059 41.5621 55.0983 41.9727 54.1129 42.2308C53.1275 42.4888 51.9192 42.9698 50.8048 43.2396C48.7402 43.744 46.3236 44.6942 44.3059 45.3746C39.9538 46.8292 36.0944 48.5537 31.9652 50.2194C29.1263 51.3925 29.2906 52.4717 27.9415 54.8413C27.4019 55.7915 26.9444 56.6831 26.4048 57.6215C25.8298 58.4898 25.3351 59.4086 24.9267 60.3665V60.4604C24.9267 60.6715 24.9854 60.7302 25.1965 60.7302C25.1965 60.7302 35.6369 55.6625 36.9273 55.1112C41.0683 53.3281 45.1388 51.8969 49.3971 50.2194C51.3092 49.4687 53.8783 48.5771 55.8373 48.014C56.8461 47.7325 58.0661 47.275 59.0867 46.9465C60.1073 46.6181 61.4329 46.2896 62.43 45.879C64.4829 45.0462 66.9229 44.6356 68.9992 43.8144C71.0756 42.9933 73.5508 42.4771 75.674 41.7615C77.7973 41.046 80.1435 40.3656 82.3371 39.779C84.5308 39.1925 86.7831 38.2775 88.9533 37.6675C93.2673 36.3269 97.5079 34.7606 101.658 32.9752C105.659 31.3871 109.487 29.3943 113.083 27.0277C115.43 25.4206 119.031 22.1829 119.993 18.5346C120.4 17.1221 120.339 15.6156 119.817 14.2412C119.56 13.5755 119.115 12.9992 118.536 12.5825C117.957 12.1658 117.269 11.9269 116.556 11.895H116.016C114.315 11.895 113.412 13.2792 112.497 13.8775C111.949 11.7106 111.53 9.51309 111.242 7.29654V6.93288L111.359 5.49C111.253 5.3375 111.16 5.12635 110.913 5.12635H110.467C106.596 5.12635 100.942 21.3617 98.42 21.3617H98.1502C96.6721 21.3617 98.6429 17.1856 98.8071 16.7867C99.6024 15.2909 100.112 13.6598 100.309 11.9771V11.4375C100.282 10.9514 100.089 10.4891 99.7626 10.1282C99.4358 9.76726 98.995 9.52959 98.5138 9.455H97.6106C94.3259 9.455 92.4373 14.0887 91.8625 14.2412C91.6161 13.725 91.7921 13.0681 91.3815 12.4698C90.9977 12.0002 90.4469 11.6975 89.8448 11.6252H89.4459C83.8386 11.6252 79.9088 27.7785 75.1579 27.7785H74.3484C73.4334 27.7785 72.5536 26.4294 72.5536 25.4323C72.5536 24.9983 74.7238 24.2592 75.1579 23.9894C76.067 23.573 76.8967 23.0014 77.6096 22.3002C78.7827 21.1271 80.4602 19.2737 80.4602 16.951V16.5052C80.4602 14.6635 78.2548 14.464 76.9409 14.8277C76.1906 15.0425 75.4574 15.3131 74.7473 15.6371C73.9439 16.0581 73.2019 16.587 72.5419 17.209C71.21 18.4572 70.1376 19.9562 69.3863 21.6198C68.2836 23.8135 65.8671 30.7581 63.3098 30.7581C62.6294 30.7581 62.3244 30.0308 62.3244 29.3152V28.9515C62.3244 27.0394 64.1075 21.8544 64.6706 19.9423C65.0811 18.5698 65.5386 16.9744 65.9961 15.5902C66.8994 12.81 66.3011 13.7837 68.9054 12.7396C71.5096 11.6956 74.5361 10.9213 77.4454 9.94769C78.1613 9.70565 78.8896 9.50203 79.6273 9.33769C80.0848 9.24385 81.8327 9.02096 82.0556 8.89192C83.2137 8.03161 84.0219 6.78179 84.3313 5.37269V5.3375C84.3348 5.28885 84.3278 5.24002 84.3108 5.19431C84.2937 5.14861 84.2671 5.10711 84.2326 5.07261C84.1981 5.03812 84.1566 5.01145 84.1109 4.99441C84.0652 4.97737 84.0163 4.97036 83.9677 4.97385H82.8885C81.1523 4.97385 76.5656 6.51058 75.0758 7.06192C74.149 7.40212 68.2954 9.74827 67.8731 9.76V9.49019C67.8731 8.79808 69.4802 5.87712 68.049 5.87712C67.1823 5.99978 66.3579 6.32922 65.6453 6.83762C64.9327 7.34602 64.353 8.01843 63.955 8.79808C63.6138 9.66396 63.3239 10.5492 63.0869 11.4492C62.8992 12.2117 61.6675 12.4933 60.9284 12.7983C57.5734 14.1473 54.3006 15.4494 50.9221 16.8219C47.5436 18.1944 44.0948 19.3206 40.6342 20.5758C38.8159 21.2327 31.5546 23.661 29.6777 23.661C30.0344 21.445 30.5639 19.2603 31.2613 17.1269C31.93 14.8512 32.5634 13.0446 33.3494 11.0152C34.1189 9.15044 35.1115 7.38578 36.3056 5.75981C36.8901 4.99846 37.5209 4.2737 38.1942 3.58962C38.6517 3.10865 40.1767 2.11154 40.1767 1.3725C40.1767 1.09096 40.0946 0.832885 39.8131 0.832885C38.3584 0.832885 33.3963 3.17904 31.9534 3.77731C29.5188 4.85067 27.1664 6.10141 24.915 7.51942C21.5483 9.50192 15.3896 14.5579 15.3896 19.6021V20.5054C15.4284 21.3874 15.6979 22.2438 16.1714 22.989C16.6449 23.7343 17.3056 24.3421 18.0877 24.7519C18.9257 25.1354 19.8147 25.3962 20.7271 25.5262C21.1259 25.6083 23.9296 25.5262 23.9296 25.8312C23.9296 26.3942 22.8621 31.286 22.6392 31.9312C22.4163 32.5763 22.2521 34.0896 22.0058 34.9929C21.7594 35.8962 21.5365 37.339 21.4192 38.1015C21.2315 39.2746 20.5629 39.5327 19.7886 40.1544C19.0144 40.7762 18.4279 41.3275 17.7358 41.7967C16.3867 42.8056 14.9438 43.9787 13.63 45.0696C10.8824 47.2385 8.28401 49.59 5.85248 52.1081C4.66347 53.3887 3.54355 54.7319 2.49748 56.1317C1.97484 56.876 1.51199 57.6605 1.11325 58.4779C0.0105595 60.4604 -0.493864 62.4312 0.644021 64.5896Z" fill="black"/>
</svg>
