<svg width="122" height="28" viewBox="0 0 122 28" fill="none" xmlns="http://www.w3.org/2000/svg">
<path d="M24.4234 14.5899L31.9173 27.2177L32.0443 27.4083L22.4514 27.4183L11.0435 27.4216H7.46708H0L7.00582 15.2818L13.9247 3.31573L15.86 0H15.9169L24.4234 14.5899Z" fill="#008851"/>
<path d="M21.2008 9.08823L21.0471 9.34226L17.6712 15.1481L17.6611 15.1414V9.08154C18.9012 9.08154 19.9741 9.09157 21.2042 9.08823" fill="#A8996E"/>
<path d="M14.1079 21.2496L14.0979 15.1362C15.114 15.1496 16.7117 15.1429 17.6643 15.1429L14.1113 21.2496H14.1079Z" fill="#A8996E"/>
<path d="M11.707 25.4867C11.3727 26.0516 11.0786 26.5697 10.5906 27.4053L10.5806 21.2551L10.9282 21.2451H14.0968L11.707 25.4867Z" fill="#A8996E"/>
<path d="M101.819 23.0104L101.812 25.6342C101.929 26.2125 102.33 26.6704 102.878 26.8743C103.6 27.0749 104.493 26.8743 105.071 26.383C105.589 25.9217 105.85 25.3735 106.024 24.7685C106.231 24.7485 106.341 24.7385 106.455 24.7385C106.368 25.5741 105.793 26.5267 104.927 27.018C103.831 27.5662 102.648 27.4793 101.612 26.8442C100.228 25.9518 99.5058 24.4243 99.8534 22.7497C100.171 21.4227 101.063 20.1827 102.39 19.7214C103.851 19.3437 105.475 19.8384 106.254 21.1921C106.485 21.7102 106.612 22.372 106.639 22.8901C105.984 22.8968 105.332 22.8633 104.61 22.8934L101.394 22.9235V22.4489C102.303 22.4489 103.711 22.4322 104.73 22.4388C104.74 21.9308 104.73 21.6768 104.663 21.2021C104.623 20.7943 104.409 20.5269 104.122 20.2696C103.717 20.0089 103.025 19.9821 102.621 20.1526C101.708 20.5671 101.836 21.4461 101.832 22.3219L101.825 22.8834V23.0037L101.819 23.0104Z" fill="#008851"/>
<path d="M82.2106 22.9777L82.2039 25.6015C82.3209 26.1798 82.722 26.641 83.2702 26.8416C83.9922 27.0421 84.8846 26.8416 85.4629 26.3502C85.9809 25.889 86.2417 25.3408 86.4155 24.7358C86.6227 24.7158 86.733 24.7057 86.8466 24.7057C86.7597 25.5414 86.1848 26.494 85.3191 26.9853C84.2228 27.5335 83.0429 27.4466 82.0034 26.8115C80.6196 25.9191 79.8976 24.3882 80.2453 22.717C80.5628 21.39 81.4586 20.15 82.7822 19.6887C84.2429 19.311 85.8673 19.8057 86.6461 21.1594C86.8767 21.6775 87.0037 22.3393 87.0305 22.8574C86.3754 22.864 85.7236 22.8306 85.0016 22.8607L81.7861 22.8908V22.4162C82.6953 22.4162 84.1025 22.3994 85.1219 22.4061C85.132 21.8981 85.1219 21.6474 85.0551 21.1694C85.015 20.7616 84.801 20.4942 84.5136 20.2369C84.1092 19.9762 83.4173 19.9494 83.0128 20.1199C82.1003 20.5343 82.2307 21.4134 82.224 22.2891L82.214 22.8507V22.9743L82.2106 22.9777Z" fill="#008851"/>
<path d="M43.8545 0.085711C43.8679 0.272889 43.8311 0.46341 43.8579 0.607137C43.2662 0.620506 42.9019 0.587082 42.5008 0.607137V11.0992C42.4139 12.1086 41.9827 13.1748 41 13.7531C40.3081 14.2712 39.3856 14.5018 38.5199 14.2444C38.0887 14.1007 37.6542 13.7832 37.4537 13.352C37.2531 12.9475 37.31 12.3726 37.6576 12.025C37.8882 11.7643 38.2358 11.7376 38.55 11.7643C38.8943 11.8512 39.1283 12.1687 39.2118 12.4863C39.4424 13.0344 38.433 13.6394 39.2686 13.9001C39.7299 13.9302 40.0474 13.6394 40.2781 13.2952L40.4786 12.6033V9.77888L40.4853 0.607137H40.248H38.657C38.6536 0.456725 38.6637 0.222752 38.6637 0.0756836L42.2969 0.085711H43.8512H43.8545Z" fill="#008851"/>
<path d="M78.6586 5.70177C78.7489 6.03268 78.6887 6.56747 78.3712 6.88501C78.1105 7.10227 77.7662 7.17246 77.4787 7.02873C76.8905 6.81147 77.101 6.24994 76.7969 5.90232C76.1885 6.12961 75.5835 7.62704 75.6036 7.97131L75.5167 9.10775V12.2229L76.9874 12.233V12.624H72.5185V12.243L73.7853 12.2497V5.70177C73.3575 5.69843 72.9396 5.70846 72.5051 5.70846V5.29733H75.52V6.82484C75.861 6.10287 76.5261 5.09344 77.4486 5.03662C77.9467 5.03996 78.4581 5.18035 78.6586 5.69843" fill="#008851"/>
<path d="M59.7097 6.40335L59.7999 7.15206L59.7933 12.2594C60.2378 12.2594 60.5319 12.2594 61.0099 12.256V12.6571L57.1728 12.6671C57.3165 12.6638 57.0591 12.6571 57.0324 12.6571C57.0324 12.5134 57.0391 12.4699 57.0324 12.2761C57.3666 12.2894 57.6908 12.3028 57.985 12.2761V6.60724C57.9549 6.40669 57.8413 6.08916 57.6975 5.91535C57.1494 5.48417 56.4876 5.59781 55.9093 5.91535C55.2174 6.46351 55.0737 7.35595 55.0436 8.22165V12.2894C55.4213 12.2894 55.5617 12.256 55.8792 12.2861C55.9962 12.256 56.1366 12.2961 56.4007 12.2794C56.4007 12.3362 56.3906 12.4866 56.3873 12.6671H52.1891V12.2894C52.744 12.2527 52.7741 12.2861 53.2821 12.2794V9.37481V5.69475L52.0454 5.68472V5.25354H55.0002C55.0336 5.52094 55.0135 5.70143 55.0135 5.97551C56.0798 4.936 57.6073 4.76554 58.8473 5.34044C59.1916 5.54099 59.5927 6.03234 59.7097 6.40669" fill="#008851"/>
<path d="M64.3534 5.45013V12.2387L65.6503 12.2487C65.6837 12.4359 65.6603 12.4961 65.6536 12.6465L63.979 12.6598L61.2683 12.6498V12.2487L62.6187 12.2621V12.0181L62.6253 5.65068C62.2276 5.65068 61.6493 5.65068 61.1814 5.63731V5.20947C62.2677 5.20947 63.3473 5.21282 64.3534 5.21616V5.44679V5.45013Z" fill="#008851"/>
<path d="M45.8158 11.3303C45.8291 11.6645 46.0197 12.0221 46.3639 12.1659C46.9121 12.3698 47.5739 12.2829 48.0352 11.9653C48.9878 11.2434 48.9009 10.0334 48.9577 8.91031V5.70822L47.3065 5.69819C47.3199 5.59458 47.3132 5.45085 47.3132 5.36395V5.27704H50.6891V8.10143L50.6958 12.0723C50.6958 11.8884 50.6891 11.8918 50.7025 12.2829H51.8957V12.6572H48.9276C48.9276 12.3397 48.951 12.0489 48.9276 11.7347C48.2658 12.6572 47.1394 12.9447 45.9862 12.7742C45.3512 12.6305 44.4554 12.226 44.2047 11.5174L44.1111 10.986V5.72493L43.8805 5.72828L42.7607 5.72159C42.7641 5.55112 42.7674 5.42745 42.7741 5.2737C43.7735 5.27036 44.8097 5.26367 45.8191 5.26367L45.8124 11.3336L45.8158 11.3303Z" fill="#008851"/>
<path d="M69.2542 12.1747C69.5517 12.1613 69.8257 12.1079 69.9929 12.0176C70.4942 11.7302 70.6346 11.5363 70.6714 11.0082L70.6647 6.59277H70.6613C70.7015 5.9577 69.7723 5.21233 69.1472 5.28587C68.5389 5.21233 67.4492 5.79392 67.4526 6.62954L67.4593 10.9748C67.4927 11.4594 67.6531 11.6566 68.0007 11.9441C68.2013 12.0878 68.843 12.2014 69.2375 12.2115L69.2542 12.783C67.964 12.773 66.8676 12.2382 66.2025 11.299C65.4538 10.3464 65.2031 8.76872 65.6376 7.55875C66.0989 6.00116 67.6297 4.92822 69.0636 4.92822C70.4274 4.92822 71.5103 5.6502 72.2891 6.77327C72.9242 7.83952 73.0111 9.54083 72.346 10.6372C71.7443 11.8338 70.404 12.7763 69.194 12.7897L69.2575 12.1747H69.2542Z" fill="#008851"/>
<path d="M56.2434 20.9284L56.2535 20.9217C57.1192 19.9122 58.533 19.5379 59.7129 19.7685C60.231 19.9423 60.8995 20.3267 61.1569 20.8749L61.2471 21.2659L61.2404 26.7509L61.2471 26.9014L62.5507 26.908C62.5473 27.0685 62.544 27.1754 62.5507 27.3258L61.5814 27.3192H58.1219V26.9481C58.533 26.9481 59.0979 26.9381 59.5024 26.9381V26.7142L59.5124 21.2359C59.4823 20.8916 59.2751 20.5741 58.9575 20.427C58.4662 20.2264 57.8345 20.3401 57.3999 20.6008C56.678 21.0621 56.2802 21.8676 56.2501 22.6464L56.2368 25.4641L56.2468 26.9415C56.6947 26.9481 57.1125 26.9348 57.6005 26.9448C57.6072 27.0217 57.5871 27.1888 57.5938 27.3225H57.0323L53.5862 27.3192C53.5996 27.2323 53.5929 27.0718 53.5929 26.9548C53.9071 26.9582 54.248 26.9582 54.4987 26.9548V15.2395C54.1577 15.2261 53.9371 15.2395 53.6229 15.2328C53.6229 15.1158 53.6229 14.9487 53.6363 14.7949H56.2501L56.2368 20.925L56.2434 20.9284Z" fill="#008851"/>
<path d="M117.755 17.0103V19.9349L119.627 19.9449C119.623 20.1221 119.637 20.2491 119.63 20.3828C119.025 20.3962 118.403 20.3728 117.755 20.3962L117.748 26.0583C117.805 26.4327 118.159 26.7402 118.504 26.797C118.821 26.797 119.165 26.7402 119.399 26.4527C119.66 26.2522 119.493 25.6673 120.034 25.8177C120.034 26.2221 119.757 26.6466 119.486 26.9541C118.707 27.4154 117.902 27.5792 117.093 27.2315C116.689 27.031 116.107 26.5697 116.077 26.0216L116.084 20.3828C115.672 20.3928 115.459 20.3928 114.94 20.3928C114.91 19.8748 115.565 19.7043 115.88 19.36C116.628 18.6681 117.207 17.8893 117.464 17.0236C117.604 17.0169 117.608 17.0236 117.751 17.0136" fill="#008851"/>
<path d="M39.3916 22.9814C40.4244 22.988 41.6946 22.978 42.9112 22.9814L41.347 18.5659L41.1698 18.0479L41.133 18.1715L38.439 26.872L38.4022 26.989H39.8763V27.3667L36.9349 27.36H36.6675C36.6809 27.2564 36.6842 27.1026 36.6575 26.989C37.0218 26.9823 37.4964 26.9789 37.8541 26.989L38.0011 26.5578L41.6645 14.8792V14.8491C41.8951 14.8491 42.0389 14.8491 42.2728 14.8491L45.4983 24.2181L46.5044 26.9589H47.8982C47.9283 27.1327 47.9116 27.1895 47.9082 27.3633H43.9675L42.7207 27.36C42.7073 27.2497 42.7107 27.2631 42.7107 26.9823C43.1586 26.989 43.7469 26.9856 44.285 26.979L43.1018 23.4994L43.0316 23.3825L39.2613 23.3758L39.3883 22.9814H39.3916Z" fill="#008851"/>
<path d="M113.777 20.5118C114.095 21.0031 114.178 21.5881 114.205 22.1931V26.936C114.79 26.936 114.967 26.936 115.391 26.9227V27.2937L111.441 27.287C111.454 27.1834 111.441 27.0831 111.447 26.9527C111.845 26.9561 112.119 26.9494 112.443 26.946V21.5112C112.39 21.1368 112.249 20.7157 111.875 20.5118C111.327 20.3112 110.692 20.3681 110.174 20.7424C109.365 21.4644 109.612 22.6175 109.495 23.5969V26.9494L110.699 26.9427C110.685 27.0998 110.692 27.18 110.692 27.297H109.308H106.601C106.601 27.19 106.607 27.043 106.597 26.9327L107.764 26.9227L107.777 26.7689L107.764 20.2845C107.363 20.2812 106.942 20.2845 106.457 20.2878C106.454 20.1107 106.464 20.0037 106.464 19.86L106.711 19.8734L109.425 19.8667V20.7123C110.257 19.8767 111.497 19.5893 112.564 19.7898C112.995 19.9335 113.456 20.1374 113.774 20.5118" fill="#008851"/>
<path d="M98.7972 20.8929L98.9276 21.4912V26.9294C99.3187 26.9294 99.7131 26.9227 100.031 26.9227C100.017 27.1166 100.024 27.1901 100.024 27.3037H99.4925L96.1767 27.3004V26.9561L97.2263 26.9427V22.4438C97.1394 21.7519 97.37 20.7124 96.5043 20.455C95.7556 20.3113 95.0336 20.572 94.6292 21.2338C94.3685 21.8121 94.3284 22.5474 94.3016 23.1825L94.3116 26.9427C94.7696 26.9394 95.0804 26.9595 95.408 26.9561V27.3171H91.4572V26.9494C91.885 26.9528 92.2092 26.9661 92.5702 26.9528L92.5802 26.4247V21.4945C92.5268 21.1502 92.2928 20.7725 91.9753 20.6288C91.514 20.3681 90.909 20.4851 90.4477 20.7458C89.4383 21.3508 89.6623 22.631 89.6088 23.5702V26.9728C90.1135 26.9628 90.4444 26.9628 90.772 26.9762C90.7853 27.1099 90.7753 27.16 90.772 27.3037H86.8446L86.8512 26.9494C87.2156 26.9561 87.5264 26.9461 87.8774 26.9427V20.2645C87.4763 20.2645 87.1721 20.2712 86.6641 20.2611C86.6741 20.1208 86.6707 19.9403 86.6707 19.8266L86.7577 19.84L89.5586 19.8333C89.552 20.1375 89.5553 20.4851 89.5553 20.8327C90.4477 20.0539 91.6878 19.6796 92.871 19.967C93.3624 20.1107 93.8504 20.4283 94.081 20.8895C94.9734 19.967 96.2436 19.6194 97.4268 19.8534C97.9449 19.9704 98.5332 20.3748 98.7939 20.8996" fill="#008851"/>
<path d="M52.8805 20.5004C53.2548 20.9316 53.4587 21.5968 53.2281 22.1148C53.0543 22.4023 52.8671 22.5728 52.5061 22.6329C52.1585 22.6028 51.7841 22.4591 51.6404 22.1148C51.4365 21.5968 51.6404 21.0787 51.9847 20.6742C51.841 20.2698 51.3496 20.1829 51.0321 20.1261C50.2232 20.0091 49.5915 20.3567 49.2138 20.9918L49.04 21.453L48.923 23.9599C48.9798 25.0562 48.7492 26.5269 49.9892 26.9882C50.7379 27.2489 51.5736 26.9882 52.1518 26.5269C52.7 26.0656 52.9607 25.4907 53.1312 24.8824C53.3284 24.869 53.4487 24.8523 53.5924 24.8256C53.3919 25.9219 52.6398 26.9013 51.5736 27.3358C50.4204 27.6533 49.3542 27.5664 48.3447 26.7007C47.2217 25.7481 46.7303 24.3376 47.0178 22.8368C47.2785 21.5968 48.2879 20.33 49.4979 19.8954C50.5641 19.491 52.0047 19.6347 52.8704 20.5004" fill="#008851"/>
<path d="M80.7822 19.8042C80.8022 19.9546 80.7755 20.0983 80.7755 20.2153L79.9098 20.2086L79.0909 22.2008L77.1155 27.3348C76.935 27.3214 76.8347 27.3214 76.5506 27.3348L73.8165 20.1886C73.5524 20.1886 73.402 20.1852 73.1814 20.1919C73.1781 20.0683 73.1881 19.9245 73.1714 19.8109H76.8448V20.2187L75.6582 20.212L75.5512 20.2053L77.4865 25.0051L77.5066 24.9717L78.3723 22.8392L79.3349 20.329C79.365 20.2721 79.3416 20.3156 79.375 20.202L77.9611 20.1953C77.9645 20.0081 77.9912 19.958 77.9611 19.8142H78.1517H80.7822V19.8042Z" fill="#008851"/>
<path d="M65.8454 26.6905V26.9312H67.0955V27.3323L62.8004 27.3256C62.7971 27.222 62.7904 27.0415 62.7904 26.9245C63.1948 26.9279 63.606 26.9345 64.0438 26.9345V20.3799C63.6761 20.3733 63.2216 20.3766 62.7302 20.3766L62.7403 19.9722H65.8387V26.6905H65.8454Z" fill="#008851"/>
<path d="M68.8317 22.9781L68.825 25.6019C68.9387 26.1801 69.3431 26.6381 69.8913 26.842C70.6133 27.0425 71.5057 26.842 72.084 26.3506C72.602 25.8894 72.8627 25.3412 73.0366 24.7362C73.2438 24.7128 73.3541 24.7061 73.4677 24.7061C73.3808 25.5417 72.8059 26.4943 71.9402 26.9857C70.8439 27.5338 69.6607 27.4469 68.6245 26.8119C67.2407 25.9194 66.5187 24.3886 66.8664 22.7173C67.1839 21.3904 68.0763 20.1503 69.4033 19.6891C70.8606 19.3114 72.4884 19.8027 73.2672 21.1598C73.4978 21.6778 73.6248 22.3396 73.6516 22.8577C72.9964 22.8644 72.3447 22.831 71.6227 22.8611L68.4072 22.8912V22.4165C69.3164 22.4165 70.7236 22.3998 71.743 22.4065C71.753 21.8984 71.743 21.6478 71.6762 21.1698C71.6361 20.762 71.4221 20.4946 71.1347 20.2372C70.7303 19.9799 70.0384 19.9498 69.6339 20.1236C68.7214 20.5381 68.8484 21.4171 68.8451 22.2929L68.8351 22.8544V22.9781H68.8317Z" fill="#008851"/>
<path d="M64.8437 17.2513C65.4319 17.2513 65.9066 16.7733 65.9066 16.1884C65.9066 15.6035 65.4319 15.1255 64.8437 15.1255C64.2554 15.1255 63.7808 15.6035 63.7808 16.1884C63.7808 16.7733 64.2587 17.2513 64.8437 17.2513Z" fill="#008851"/>
<path d="M62.186 1.38761C62.186 0.799338 62.664 0.324707 63.2489 0.324707C63.8339 0.324707 64.3118 0.802681 64.3118 1.38761C64.3118 1.97255 63.8339 2.45052 63.2489 2.45052C62.664 2.45052 62.186 1.97255 62.186 1.38761Z" fill="#008851"/>
<path d="M120.846 18.9474C121.335 18.9174 121.722 18.5129 121.722 18.0182C121.722 17.5235 121.304 17.089 120.793 17.089C120.282 17.089 119.864 17.5068 119.864 18.0182C119.864 18.5296 120.298 19.0009 120.883 18.9675L120.903 19.2082C120.161 19.2315 119.606 18.7235 119.606 18.0115C119.606 17.3497 120.145 16.8149 120.803 16.8149C121.462 16.8149 122 17.3497 122 18.0115C122 18.6734 121.488 19.1848 120.846 19.2082V18.9508V18.9474Z" fill="#008851"/>
<path d="M120.607 17.6286L120.881 17.6219C121.181 17.6754 121.105 17.9796 120.51 17.906L120.543 18.1467C120.974 18.0297 120.864 18.7082 121.295 18.6548C121.349 18.5077 121.121 18.247 121.031 18.0732C121.235 18.013 121.342 17.7456 121.222 17.5417L120.988 17.4214C121.048 17.4348 120.286 17.4381 120.353 17.4214V18.6314H120.633L120.603 17.6219L120.607 17.6286Z" fill="#008851"/>
</svg>
