<svg width="122" height="27" viewBox="0 0 122 27" fill="none" xmlns="http://www.w3.org/2000/svg">
<path d="M120.593 5.90345C120.87 5.90176 121.142 5.98245 121.373 6.13529C121.604 6.28814 121.785 6.50623 121.892 6.76189C121.999 7.01754 122.027 7.29923 121.974 7.57118C121.92 7.84313 121.787 8.09308 121.592 8.28929C121.396 8.4855 121.146 8.61912 120.874 8.67319C120.603 8.72727 120.321 8.69934 120.065 8.59298C119.809 8.48661 119.59 8.30659 119.437 8.07578C119.284 7.84497 119.202 7.57377 119.203 7.29663C119.2 7.11314 119.234 6.93091 119.303 6.76075C119.372 6.59059 119.474 6.43597 119.603 6.30604C119.733 6.17612 119.887 6.07354 120.057 6.00438C120.227 5.93523 120.41 5.9009 120.593 5.90345ZM120.593 6.11937C120.287 6.13101 119.998 6.26059 119.786 6.4809C119.574 6.70121 119.456 6.99511 119.456 7.30092C119.456 7.60672 119.574 7.90062 119.786 8.12093C119.998 8.34124 120.287 8.47082 120.593 8.48246C120.744 8.47938 120.893 8.44625 121.031 8.38501C121.17 8.32378 121.294 8.23565 121.398 8.12576C121.502 8.01588 121.583 7.88643 121.636 7.74497C121.689 7.60351 121.714 7.45285 121.709 7.30177C121.713 7.15078 121.688 7.00034 121.635 6.85908C121.581 6.71782 121.5 6.58853 121.397 6.47866C121.293 6.36878 121.169 6.28047 121.031 6.21881C120.893 6.15715 120.744 6.12336 120.593 6.11937ZM120.333 8.10889H120.086V6.54435C120.231 6.52087 120.378 6.50827 120.525 6.50665C120.695 6.49549 120.865 6.53738 121.011 6.6266C121.059 6.6643 121.097 6.71324 121.122 6.76911C121.147 6.82498 121.158 6.88608 121.153 6.94705C121.153 7.03552 121.123 7.12135 121.068 7.19025C121.012 7.25915 120.935 7.30697 120.848 7.32576V7.33947C120.984 7.36518 121.078 7.48856 121.107 7.71476C121.121 7.84743 121.155 7.97732 121.207 8.10032H120.948C120.889 7.97579 120.854 7.84166 120.843 7.70447C120.841 7.66328 120.83 7.62308 120.81 7.58648C120.791 7.54988 120.765 7.51769 120.732 7.49201C120.7 7.46632 120.663 7.44771 120.623 7.43737C120.583 7.42704 120.541 7.42521 120.501 7.43201H120.329L120.333 8.10889ZM120.333 7.25208H120.513C120.718 7.25208 120.891 7.17668 120.891 6.98646C120.891 6.84937 120.79 6.71228 120.513 6.71228C120.452 6.71197 120.392 6.71656 120.333 6.72599V7.25208Z" fill="#EC1F32"/>
<path d="M118.136 6.18821C116.629 5.13605 114.366 5.01609 112.875 5.99972C112.398 6.36972 112.024 6.85606 111.789 7.41208C111.554 7.96811 111.466 8.57518 111.533 9.17507C111.788 10.6299 112.758 11.8295 113.697 12.9896C114.772 14.3159 115.785 15.56 115.766 17.1314C115.733 17.371 115.652 17.6015 115.529 17.8094C115.405 18.0172 115.241 18.198 115.046 18.3413C114.503 18.7594 113.161 18.7645 112.41 18.3807L111.854 18.1271L111.883 21.1328C111.883 21.1328 114.95 22.1849 117.467 20.3428C118.016 19.9146 118.435 19.3436 118.681 18.6926C119.234 17.2394 119.035 15.4367 118.167 13.8944C117.79 13.1335 117.209 12.4498 116.647 11.7866C115.982 11.0052 115.354 10.2666 115.065 9.46467C114.941 8.96772 115 8.41764 115.509 8.0732C116.009 7.76304 116.847 8.11776 117.615 8.59929C117.88 8.76594 118.131 8.95331 118.367 9.15964L118.273 6.28932L118.136 6.18821Z" fill="#EC1F32"/>
<path d="M111.038 8.1348V5.59863H103.861V5.65861H103.841V20.9939H103.861V21.0727H111.038V18.5348H106.939V14.0434H109.616V11.5055H106.939V8.1348H111.038Z" fill="#EC1F32"/>
<path d="M7.4063 18.4611C7.4063 18.4611 3.99961 18.4833 3.39812 18.4713L3.47866 5.61914H0L0.0222772 20.9904L7.12526 21.0144L7.4063 18.4611Z" fill="#EC1F32"/>
<path d="M82.5179 18.483C82.5179 18.483 79.5122 18.5053 78.9193 18.4933L78.9981 5.64111H75.6257L75.648 21.0141L82.1786 21.0363L82.5179 18.483Z" fill="#EC1F32"/>
<path d="M90.1796 21.0039L93.1699 21.033L91.7167 5.73207L88.2038 5.68066H88.1609C86.2108 5.88973 85.5099 6.82879 85.2615 7.57936L85.2478 7.63763C85.1621 8.19284 84.7217 11.3442 84.5349 12.3587L84.4972 12.6466C83.7702 12.738 83.0558 12.9105 82.3671 13.1606L81.9319 16.2452C82.636 16.007 83.3565 15.8203 84.0876 15.6865C83.8152 17.5715 83.3011 21.0553 83.3011 21.0553L86.1988 21.0433L87.0334 15.4826C87.9673 15.5193 88.8773 15.7884 89.6809 16.2657L90.1796 21.0039ZM87.4378 12.5455C87.52 12.0314 87.5851 11.531 87.6468 11.0357C87.7394 10.2783 87.8353 9.49348 87.9896 8.74463C88.0416 8.61629 88.124 8.50249 88.2296 8.41295C88.3353 8.32342 88.4611 8.26083 88.5962 8.23054L88.6493 8.21683C88.775 8.17895 88.9091 8.17895 89.0349 8.21683L89.3896 12.8916C89.1034 12.8059 88.807 12.7202 88.5122 12.6654C88.1524 12.6071 87.7908 12.5712 87.4309 12.5437" fill="#EC1F32"/>
<path d="M99.7537 12.3417L103.109 5.62942H99.8702L97.077 11.2004L97.0187 11.1747L97.0444 5.61914L93.8862 5.65855L93.9051 20.9972H96.9896L97.0119 14.422V14.2507C100.439 15.9643 99.9542 20.9955 99.9542 20.9955H103.1C103.212 18.0823 102.483 14.3449 99.7605 12.3331" fill="#EC1F32"/>
<path d="M29.8719 5.59326L29.8874 21.0245L26.7754 21.0468C26.7754 21.0468 26.7754 20.4144 26.7514 19.5045C26.7154 17.5972 25.9803 14.1734 23.3842 10.7924L23.3053 20.9953L20.0957 21.0382L20.1317 5.65153C20.1317 5.65153 20.6629 5.61897 20.8171 5.61897C23.7303 5.61897 26.03 8.85429 26.6212 10.2286L26.5492 5.59326H29.8719Z" fill="#EC1F32"/>
<path d="M40.8803 9.15934C42.2512 11.6544 42.1244 15.8733 40.3765 18.2621C39.1616 19.9226 36.8584 20.9799 34.3326 20.9799L31.978 20.9388L32.0192 5.67725H34.3428C37.2783 5.67725 39.6379 6.87678 40.8803 9.15248M37.8249 10.0504C37.3108 9.19361 36.1678 8.50816 35.1157 8.46874L35.0574 18.3033C36.2827 18.1593 37.2851 17.4927 37.9603 16.2949C38.8291 14.7698 39.0056 12.0194 37.8249 10.0504Z" fill="#EC1F32"/>
<path d="M18.4232 21.0416L16.9272 5.73207L13.3097 5.68066H13.2669C11.2585 5.90344 10.5354 6.83736 10.2818 7.58622L10.268 7.64448C10.1806 8.1997 9.72654 11.3511 9.53461 12.3655L9.4952 12.6568C8.77275 12.7485 8.06286 12.9209 7.37887 13.1709L6.94189 16.2555C7.64112 16.0207 8.35643 15.8368 9.08222 15.7054C8.79947 17.5904 8.27338 21.069 8.27338 21.069L11.2551 21.057L12.1119 15.4997C13.0921 15.5751 14.0569 15.8151 14.84 16.3566V16.3463L15.3438 21.0091L18.4232 21.0416ZM12.518 12.5574C12.602 12.0434 12.6706 11.5396 12.7322 11.0426C12.8282 10.2852 12.9276 9.50034 13.0938 8.75148C13.1489 8.6217 13.2345 8.50716 13.3434 8.41764C13.4523 8.32812 13.5813 8.26628 13.7193 8.2374L13.7707 8.22369C13.9011 8.18584 14.0396 8.18584 14.17 8.22369L14.5384 12.9396C14.2055 12.8336 13.8675 12.7444 13.5257 12.6723C13.1829 12.6174 12.8539 12.5814 12.518 12.5557" fill="#EC1F32"/>
<path d="M45.5962 13.1007C45.5959 15.6923 46.3641 18.2258 47.8038 20.3808C49.2434 22.5358 51.2898 24.2154 53.6841 25.2073C56.0784 26.1991 58.7131 26.4586 61.2549 25.953C63.7968 25.4473 66.1315 24.1993 67.964 22.3666C69.7964 20.5339 71.0442 18.199 71.5495 15.6571C72.0548 13.1152 71.795 10.4805 70.8028 8.08634C69.8106 5.69216 68.1307 3.64598 65.9756 2.2066C63.8204 0.767232 61.2868 -0.000677434 58.6952 4.4842e-07C55.2221 0.00408296 51.8924 1.38569 49.4367 3.84171C46.981 6.29773 45.5998 9.62757 45.5962 13.1007ZM68.1595 12.9739C68.1595 14.8348 67.6077 16.654 66.5739 18.2013C65.54 19.7487 64.0705 20.9547 62.3513 21.667C60.632 22.3792 58.7401 22.5656 56.9149 22.2027C55.0897 21.8398 53.4131 20.9438 52.0971 19.628C50.781 18.3122 49.8847 16.6358 49.5215 14.8106C49.1582 12.9855 49.3443 11.0936 50.0562 9.37419C50.7682 7.65479 51.9739 6.18511 53.5211 5.15097C55.0683 4.11683 56.8873 3.56468 58.7483 3.56434C61.2429 3.56797 63.6343 4.56044 65.3984 6.32423C67.1625 8.08803 68.1554 10.4793 68.1595 12.9739Z" fill="#EC1F32"/>
</svg>
