<svg width="122" height="25" viewBox="0 0 122 25" fill="none" xmlns="http://www.w3.org/2000/svg">
<path d="M39.7379 2.73602C38.4561 2.17868 37.0842 1.81546 35.8629 1.81546C34.0778 1.81546 33.1865 2.20715 33.1865 2.91375C33.1865 4.93519 41.1477 3.31148 41.1477 7.62526C41.1477 9.41117 39.5124 10.7899 36.2358 10.7899C34.2924 10.7899 32.7732 10.3783 31.0293 9.41117L31.7489 7.80213C33.2782 8.67265 34.7057 9.05917 36.2476 9.05917C38.1901 9.05917 39.2321 8.48457 39.2321 7.62526C39.2321 5.41402 31.2675 7.06447 31.2675 3.02245C31.2675 1.27882 32.8902 0.0795898 35.8242 0.0795898C37.5799 0.0795898 39.0562 0.474733 40.4676 1.19859L39.7379 2.73602Z" fill="black"/>
<path d="M48.6133 10.8432C45.4335 10.8432 42.7966 8.67162 42.7966 5.42765C42.7966 2.22078 45.4335 0.0078125 48.6133 0.0078125C51.8116 0.0078125 54.4065 2.22078 54.4065 5.42765C54.4065 8.67248 51.8116 10.8432 48.6133 10.8432ZM48.6133 1.75576C46.2979 1.75576 44.7156 3.36308 44.7156 5.42765C44.7156 7.54054 46.2289 9.11249 48.6133 9.11249C50.9834 9.11249 52.4892 7.52588 52.4892 5.42765C52.4892 3.36308 50.9834 1.75576 48.6133 1.75576Z" fill="black"/>
<path d="M62.0043 10.8311C58.6621 10.8311 56.1455 8.66299 56.1455 5.41471C56.1455 2.22165 58.7016 0.0078125 62.0043 0.0078125C63.9738 0.0078125 65.3852 0.581546 66.6502 1.53662L65.6655 3.03782C64.7447 2.3131 63.5925 1.78423 62.0582 1.78423C59.6199 1.78423 58.1049 3.36307 58.1049 5.41385C58.1049 7.52588 59.6342 9.059 62.0826 9.059C63.6135 9.059 64.8281 8.55256 65.7429 7.82698L66.7319 9.3299C65.4635 10.2858 63.9738 10.8311 62.0043 10.8311Z" fill="black"/>
<path d="M68.749 0.321777H70.6049V10.5567H68.749V0.321777Z" fill="black"/>
<path d="M73.3438 10.5567V0.321777H82.4353V2.01451H75.1971V4.50097H80.8227V6.18939H75.1971V8.8648H82.7543V10.5567H73.3438Z" fill="black"/>
<path d="M89.6627 2.00329V10.5567H87.8152V2.00329H83.7441V0.321777H93.7304V2.00329H89.6627Z" fill="black"/>
<path d="M95.2192 10.5567V0.321777H104.311V2.01451H97.0726V4.50097H102.702V6.18939H97.0726V8.8648H104.63V10.5567H95.2192Z" fill="black"/>
<path d="M36.7384 22.6688C37.7534 22.6688 38.8004 22.435 39.5882 22.0511V19.0763H41.3877V23.0493C40.121 23.9224 38.3796 24.4547 36.6593 24.4547C33.3221 24.4547 30.8047 22.2875 30.8047 19.0375C30.8047 15.8444 33.36 13.6357 36.6593 13.6357C38.5917 13.6357 40.0419 14.1948 41.3086 15.1499L40.3247 16.6519C39.4014 15.9281 38.2441 15.4337 36.7106 15.4337C34.2748 15.382 32.7615 16.9936 32.7615 19.0375C32.7615 21.1555 34.2925 22.6688 36.7384 22.6688Z" fill="black"/>
<path d="M43.8259 24.1807V13.9492H52.9192V15.6394H45.6734V18.125H51.3066V19.8151H45.6734V22.4905H53.2365V24.1807H43.8259Z" fill="black"/>
<path d="M56.8674 24.1807H55.0562V13.9492H56.9457L63.4559 21.6605L63.5005 21.6467C63.3911 19.7081 63.3768 18.1388 63.3768 16.6212V13.9492H65.1863V24.1807H63.312L56.8253 16.4711L56.7959 16.4866C56.8674 18.0016 56.8674 20.6477 56.8674 21.5087V24.1807" fill="black"/>
<path d="M67.793 24.1807V13.9492H76.8829V15.6394H69.6404V18.125H75.2719V19.8151H69.6404V22.4905H77.2061V24.1807H67.793Z" fill="black"/>
<path d="M83.9949 20.4164H81.0121V24.1807H79.1604V13.9492H85.5764C87.7049 13.9492 89.0255 15.2882 89.0255 17.2113C89.0255 19.0378 87.7285 20.1283 86.1621 20.3612L89.1332 24.1807H86.8144L83.9949 20.4164ZM85.3786 18.7116C86.5358 18.7116 87.1907 18.0974 87.1907 17.2122C87.1907 16.2416 86.6158 15.6402 85.5764 15.6402H81.0121V18.7125H85.3786V18.7116Z" fill="black"/>
<path d="M92.9266 21.6968L91.782 24.1807H89.7788L94.6428 13.9492H96.5878L101.458 24.1807H99.4621L98.3132 21.6968H92.9266ZM93.6976 20.0351H97.5431L95.6266 15.8887L93.6976 20.0351Z" fill="black"/>
<path d="M102.82 24.1807V13.9492H104.669V22.4905H111.335V24.1807H102.82Z" fill="black"/>
<path d="M112.585 24.1807V13.9492H121.683V15.6394H114.438V18.125H120.069V19.8151H114.438V22.4905H122V24.1807H112.585Z" fill="black"/>
<path fill-rule="evenodd" clip-rule="evenodd" d="M0 0H23.8585V12.4729H0V0Z" fill="#ED1A3A"/>
<path fill-rule="evenodd" clip-rule="evenodd" d="M0 12.2285H23.8585V24.4564H0V12.2285Z" fill="black"/>
<path d="M4.1687 12.228H19.6906" stroke="white" stroke-width="1.725" stroke-miterlimit="10"/>
</svg>
