<svg width="122" height="41" viewBox="0 0 122 41" fill="none" xmlns="http://www.w3.org/2000/svg">
<path d="M28.1757 20.0679L28.4969 18.8781L0.061696 19.3303C0.0854912 18.5331 0.156877 17.736 0.299648 16.9507L28.949 17.3553C29.1275 16.9745 29.2703 16.5819 29.3536 16.1655L0.382931 16.6057C2.38173 5.62423 12.9111 -1.66899 23.9045 0.329804C27.7831 1.03176 31.3762 2.86399 34.2316 5.58854C36.1947 7.45646 37.7771 9.66941 38.8954 12.1322L19.4667 12.6081C19.4667 12.6914 19.4667 12.7747 19.4667 12.858L39.2286 13.0126C39.5141 13.6313 39.7283 14.2738 39.8591 14.94L18.729 15.3089C18.729 15.3089 18.6457 15.4397 18.6457 15.523C18.6457 15.523 39.6569 15.6896 40.0614 15.7015C40.228 16.3321 40.3707 16.9745 40.4659 17.6289L17.8605 18.1167V18.3428L40.5254 18.5569L40.6444 20.4843L17.0515 20.8888V21.0911L40.6087 21.2934L40.4421 23.2684C40.4421 23.2684 16.171 23.6015 16.1829 23.6372L16.0996 23.8751L40.2874 24.0774C40.2042 24.7437 40.0495 25.398 39.8353 26.0286L15.362 26.4331V26.564L39.6331 26.8257C37.8246 33.3337 31.1858 39.1516 24.6183 40.3295C17.3251 41.8524 9.78203 39.2468 4.9873 33.536L24.0234 33.8929C24.19 33.536 24.309 33.1671 24.3804 32.7745L4.65417 33.2147C3.9998 32.4771 3.42871 31.6562 2.96471 30.7757L24.8325 31.1803C24.999 30.8233 25.1299 30.4426 25.237 30.0619L2.67917 30.3831C2.20326 29.6336 1.81064 28.8364 1.48941 28.0036L25.5939 28.4081L25.9627 27.2897L1.32284 27.6943C1.0135 26.9209 0.763654 26.1238 0.573292 25.3147L26.4743 25.6955C26.6528 25.3504 26.7718 24.9935 26.8432 24.6128L0.597088 24.9816C0.371033 24.2083 0.204467 23.4111 0.109286 22.6021L27.331 22.9709L27.5689 21.7812L0.121184 22.1976C0.0260033 21.4123 -0.0096895 20.6152 0.00220809 19.8181L28.1757 20.1036" fill="#FF0000"/>
<path d="M65.4845 12.2266C65.1514 13.7495 64.5684 15.3081 64.1639 16.8667H60.5946L60.3091 17.5567L57.6202 26.5394H52.1592L54.9671 17.0214C55.0384 16.7834 54.7529 16.8191 54.622 16.8191H50.9219L52.4448 12.0601H65.5321" fill="#FF0000"/>
<path d="M83.7728 16.7255L81.9048 20.5922H83.8917L83.7728 16.7493M70.0667 17.939C70.7806 17.9747 71.4826 17.939 72.1845 17.8082C72.589 17.6297 72.827 17.2133 72.7913 16.7731C72.4106 15.964 71.3279 16.1663 70.4951 16.1663L70.0667 17.939ZM66.2833 12.3829C69.0554 12.2996 71.8395 12.371 74.6116 12.5851C75.73 12.7993 76.7056 13.4774 77.3005 14.4411C77.9667 16.0354 77.6812 17.8795 76.5628 19.2002C75.849 19.9735 74.9329 20.5327 73.9216 20.8064V20.9253C74.1952 21.9009 75.0399 23.983 75.0399 23.983L75.611 23.055L81.7145 12.3472H87.9607L88.9363 23.4714L92.3152 12.3472H97.5264C98.0975 14.4173 98.6091 16.4994 99.2515 18.5339C99.8345 16.4875 100.322 14.4173 100.858 12.3472H106.188L101.976 26.6243H96.872C96.3009 24.447 95.7536 22.2936 95.1826 20.1163C94.5163 22.2222 94.0999 24.4351 93.4931 26.5767H84.2606C84.1654 25.7558 84.1178 24.9348 84.1059 24.102L83.975 24.0187H80.5009L79.2398 26.6243H71.0186C70.2452 24.8515 69.8288 23.055 69.0673 21.0919C68.4011 22.8765 67.9609 24.7683 67.3779 26.5767H61.9883L66.2833 12.3829Z" fill="#FF0000"/>
<path d="M107.377 12.3137H117.644L116.455 16.3827H111.434L111.065 17.5724H116.05L115.015 21.1417H110.113L109.661 22.5337H114.753C114.432 23.8187 113.98 25.2107 113.564 26.5432H103.165L107.377 12.2661" fill="#FF0000"/>
<path d="M120.263 12.753C119.513 12.6816 118.847 13.2289 118.764 13.9785C118.764 14.0498 118.764 14.1212 118.764 14.1926C118.8 14.9898 119.418 15.6203 120.215 15.6798C121.001 15.6798 121.643 15.0492 121.655 14.264C121.655 14.264 121.655 14.2521 121.655 14.2402C121.726 13.4907 121.179 12.8363 120.441 12.753C120.382 12.753 120.322 12.753 120.263 12.753ZM120.263 15.9297C119.299 15.9297 118.526 15.1563 118.526 14.1926C118.526 13.2289 119.299 12.4556 120.263 12.4556C121.227 12.4556 122 13.2289 122 14.1926C122.024 15.1206 121.298 15.894 120.37 15.9178C120.322 15.9178 120.263 15.9178 120.215 15.9178H120.263V15.9297ZM120.322 14.0379C120.501 14.0379 120.608 14.0379 120.608 13.7881C120.608 13.5382 120.406 13.5858 120.251 13.5858H119.977V14.0379H120.322ZM119.965 15.1444H119.561V13.2646H120.263C120.751 13.2646 121.036 13.4074 121.036 13.8238C121.06 14.0617 120.893 14.2878 120.644 14.3116C120.62 14.3116 120.608 14.3116 120.584 14.3116L121.06 15.1325H120.584L120.156 14.3473H119.965V15.1444Z" fill="#FF0000"/>
</svg>
