<svg width="122" height="9" viewBox="0 0 122 9" fill="none" xmlns="http://www.w3.org/2000/svg">
<path d="M94.5451 4.49942C95.4843 4.49942 95.86 4.07676 95.86 3.26667C95.8747 3.0944 95.8513 2.92099 95.7913 2.75884C95.7312 2.59669 95.6361 2.4498 95.5127 2.32866C95.3894 2.20753 95.2408 2.11514 95.0775 2.0581C94.9143 2.00106 94.7405 1.98078 94.5685 1.9987H93.324V8.30332C93.324 8.35112 93.3146 8.39845 93.2963 8.4426C93.278 8.48676 93.2512 8.52688 93.2174 8.56068C93.1836 8.59447 93.1435 8.62128 93.0994 8.63957C93.0552 8.65786 93.0079 8.66728 92.9601 8.66728H92.1852C92.0907 8.66423 92.0012 8.62454 91.9354 8.55661C91.8697 8.48869 91.833 8.39785 91.833 8.30332V1.49386C91.8328 1.39816 91.8692 1.30599 91.9346 1.23617C92.0001 1.16635 92.0897 1.12415 92.1852 1.11816H94.7212C96.2709 1.11816 97.2454 1.82259 97.2454 3.26667C97.26 3.71604 97.1109 4.15543 96.8258 4.50312C96.5408 4.85081 96.1391 5.08313 95.6956 5.15688L97.3275 8.2094C97.3681 8.27297 97.3923 8.34556 97.398 8.42073C97.4013 8.48113 97.3812 8.54049 97.3418 8.58642C97.3024 8.63235 97.2469 8.66132 97.1867 8.66728H96.2709C96.2087 8.66241 96.1492 8.63995 96.0993 8.60253C96.0494 8.56511 96.0112 8.51427 95.9891 8.45595L94.2163 5.016C94.1493 4.91413 94.1089 4.79705 94.0989 4.67552C94.0989 4.55812 94.0989 4.46419 94.3572 4.46419L94.5451 4.49942Z" fill="#1E3D6A"/>
<path d="M101.767 1.81011C100.206 1.81011 99.9356 3.21897 99.9356 4.89786C99.9356 6.57674 100.217 7.97385 101.744 7.97385C103.27 7.97385 103.599 6.64718 103.599 4.89786C103.599 3.14853 103.305 1.81011 101.767 1.81011ZM101.767 8.85439C100.311 8.85439 98.4563 8.34955 98.4563 4.92133C98.4563 1.49312 100.3 0.988281 101.767 0.988281C103.235 0.988281 105.078 1.49312 105.078 4.89786C105.078 8.30259 103.317 8.83091 101.767 8.83091" fill="#1E3D6A"/>
<path d="M109.35 8.83238C107.33 8.83238 106.497 7.65833 106.497 6.30818V1.49459C106.497 1.39695 106.535 1.30313 106.603 1.233C106.671 1.16287 106.763 1.12195 106.861 1.1189H107.612C107.663 1.11569 107.715 1.12303 107.763 1.14047C107.811 1.1579 107.856 1.18507 107.893 1.22028C107.931 1.25549 107.96 1.298 107.981 1.34518C108.001 1.39237 108.011 1.44322 108.011 1.49459V6.39036C108.011 7.63485 108.61 7.97532 109.455 7.97532C110.559 7.97532 110.899 7.3296 110.899 6.39036V1.49459C110.898 1.44679 110.906 1.39915 110.923 1.35439C110.94 1.30963 110.965 1.26864 110.998 1.23375C111.03 1.19885 111.07 1.17075 111.113 1.15105C111.157 1.13134 111.204 1.12042 111.252 1.1189H111.874C111.922 1.12042 111.969 1.13134 112.012 1.15105C112.056 1.17075 112.095 1.19885 112.128 1.23375C112.161 1.26864 112.186 1.30963 112.203 1.35439C112.22 1.39915 112.228 1.44679 112.226 1.49459V6.30818C112.226 7.90488 111.228 8.83238 109.385 8.83238" fill="#1E3D6A"/>
<path d="M116.148 4.89812H116.524C116.712 4.91578 116.902 4.89065 117.079 4.8246C117.257 4.75856 117.417 4.65332 117.548 4.51673C117.679 4.38014 117.777 4.21573 117.836 4.03579C117.894 3.85584 117.911 3.66501 117.886 3.47753C117.886 2.30348 117.31 1.98649 116.488 1.98649H115.314V8.30285C115.318 8.34853 115.312 8.39438 115.297 8.43765C115.282 8.48093 115.258 8.52075 115.227 8.55473C115.197 8.58871 115.16 8.61614 115.118 8.6354C115.076 8.65466 115.031 8.66534 114.986 8.66681H114.234C114.14 8.66376 114.05 8.62407 113.984 8.55615C113.919 8.48822 113.882 8.39738 113.882 8.30285V1.49339C113.882 1.39575 113.92 1.30193 113.988 1.2318C114.056 1.16167 114.148 1.12075 114.246 1.1177H116.958C117.274 1.08668 117.593 1.1261 117.892 1.23314C118.191 1.34017 118.463 1.51215 118.687 1.7367C118.912 1.96125 119.084 2.23279 119.191 2.53177C119.298 2.83075 119.337 3.14974 119.306 3.46579C119.332 3.77508 119.288 4.08624 119.177 4.37618C119.067 4.66611 118.892 4.92738 118.666 5.14055C118.441 5.35373 118.17 5.51335 117.874 5.60756C117.579 5.70177 117.265 5.72815 116.958 5.68473C116.704 5.70694 116.449 5.70694 116.195 5.68473C115.89 5.68473 115.749 5.46166 115.749 5.28556C115.749 5.10945 115.89 4.94508 116.16 4.94508" fill="#1E3D6A"/>
<path d="M79.7179 8.66728H79.0017C78.9021 8.66728 78.8065 8.62769 78.736 8.55724C78.6656 8.48678 78.626 8.39122 78.626 8.29158V5.28603H75.7144V8.29158C75.7159 8.34036 75.7077 8.38895 75.6901 8.43447C75.6725 8.47999 75.646 8.52151 75.612 8.55656C75.5781 8.59161 75.5374 8.61947 75.4925 8.63849C75.4475 8.65751 75.3992 8.6673 75.3504 8.66728H74.6342C74.5346 8.66728 74.439 8.62769 74.3686 8.55724C74.2981 8.48678 74.2585 8.39122 74.2585 8.29158V1.49386C74.2585 1.39622 74.2965 1.3024 74.3644 1.23227C74.4323 1.16214 74.5249 1.12122 74.6225 1.11816H75.3622C75.4577 1.12415 75.5473 1.16635 75.6127 1.23617C75.6782 1.30599 75.7145 1.39816 75.7144 1.49386V4.22939H78.6612V1.49386C78.6612 1.39622 78.6991 1.3024 78.7671 1.23227C78.835 1.16214 78.9276 1.12122 79.0252 1.11816H79.7648C79.8126 1.11968 79.8597 1.13061 79.9032 1.15031C79.9468 1.17002 79.9861 1.19812 80.0188 1.23301C80.0515 1.2679 80.077 1.3089 80.0939 1.35366C80.1107 1.39841 80.1186 1.44606 80.117 1.49386V8.29158C80.1186 8.34036 80.1104 8.38895 80.0928 8.43447C80.0752 8.47999 80.0486 8.52151 80.0147 8.55656C79.9807 8.59161 79.9401 8.61947 79.8951 8.63849C79.8502 8.65751 79.8019 8.6673 79.7531 8.66728" fill="#1E3D6A"/>
<path d="M3.1347 8.79434C0.821832 8.79434 3.15091e-08 7.49115 3.15091e-08 5.94141V0.55254C-4.24497e-05 0.442449 0.0428721 0.336687 0.119614 0.257752C0.196356 0.178818 0.300868 0.132941 0.410916 0.129883H1.06838C1.17843 0.132941 1.28294 0.178818 1.35968 0.257752C1.43643 0.336687 1.47934 0.442449 1.4793 0.55254V6.09403C1.4793 7.49115 2.25417 7.87858 3.16992 7.87858C4.34397 7.87858 4.87229 7.25634 4.87229 6.09403V0.55254C4.87225 0.442449 4.91516 0.336687 4.9919 0.257752C5.06865 0.178818 5.17316 0.132941 5.28321 0.129883H5.87023C5.98028 0.132941 6.08479 0.178818 6.16153 0.257752C6.23827 0.336687 6.28119 0.442449 6.28115 0.55254V5.94141C6.28115 7.7377 5.18928 8.79434 3.14644 8.79434" fill="#1E3D6A"/>
<path d="M35.2802 1.9987H34.0475V7.78674H35.3389C37.0413 7.78674 37.4522 6.49529 37.4522 4.93381C37.4522 3.37233 37.0531 1.9987 35.3389 1.9987M35.6794 8.66728H32.8735C32.7799 8.66146 32.692 8.62091 32.6268 8.55357C32.5616 8.48624 32.524 8.39698 32.5212 8.30332V1.49386C32.5237 1.39896 32.561 1.30828 32.6259 1.23902C32.6908 1.16977 32.7789 1.12676 32.8735 1.11816H35.5972C37.3935 1.11816 38.8141 2.08088 38.8141 4.93381C38.8141 7.78674 37.2761 8.66728 35.5972 8.66728" fill="#1E3D6A"/>
<path d="M46.5982 8.66606H45.9525C45.8975 8.66763 45.8428 8.65817 45.7916 8.63822C45.7404 8.61827 45.6937 8.58825 45.6543 8.54994C45.6149 8.51162 45.5835 8.46579 45.5622 8.41516C45.5408 8.36452 45.5298 8.31011 45.5298 8.25515V4.80345H42.0781V8.25515C42.0781 8.31011 42.0671 8.36452 42.0457 8.41516C42.0244 8.46579 41.993 8.51162 41.9536 8.54994C41.9142 8.58825 41.8675 8.61827 41.8163 8.63822C41.7651 8.65817 41.7104 8.66763 41.6554 8.66606H41.0097C40.9553 8.66769 40.9012 8.65817 40.8506 8.63809C40.8 8.61802 40.754 8.58781 40.7155 8.54932C40.6771 8.51084 40.6469 8.46489 40.6268 8.4143C40.6067 8.36371 40.5972 8.30955 40.5988 8.25515V0.60037C40.5988 0.493392 40.6404 0.390614 40.715 0.313881C40.7895 0.237148 40.891 0.19251 40.998 0.189453H41.6672C41.7752 0.192415 41.878 0.236659 41.9545 0.313088C42.0309 0.389517 42.0751 0.492323 42.0781 0.60037V3.72333H45.5298V0.60037C45.5328 0.492323 45.577 0.389517 45.6534 0.313088C45.7299 0.236659 45.8327 0.192415 45.9407 0.189453H46.6099C46.7159 0.195313 46.8158 0.240832 46.8897 0.316964C46.9637 0.393096 47.0063 0.494267 47.0091 0.60037V8.25515C47.0091 8.30911 46.9985 8.36254 46.9778 8.4124C46.9572 8.46225 46.9269 8.50755 46.8887 8.54571C46.8506 8.58387 46.8053 8.61413 46.7554 8.63478C46.7056 8.65544 46.6521 8.66606 46.5982 8.66606Z" fill="#1E3D6A"/>
<path d="M66.92 8.66728H63.2805C63.1808 8.66728 63.0853 8.62769 63.0148 8.55724C62.9444 8.48678 62.9048 8.39122 62.9048 8.29158V1.49386C62.9047 1.39622 62.9427 1.3024 63.0106 1.23227C63.0786 1.16214 63.1711 1.12122 63.2687 1.11816H64.0319C64.1274 1.12415 64.217 1.16635 64.2825 1.23617C64.3479 1.30599 64.3843 1.39816 64.3841 1.49386V7.5989H66.92C66.9678 7.60041 67.0149 7.61134 67.0584 7.63104C67.102 7.65075 67.1413 7.67885 67.174 7.71374C67.2067 7.74863 67.2322 7.78963 67.2491 7.83439C67.2659 7.87914 67.2738 7.92679 67.2722 7.97459V8.30332C67.2738 8.35055 67.2659 8.39762 67.2489 8.44172C67.2319 8.48581 67.2062 8.52604 67.1733 8.56C67.1405 8.59396 67.1011 8.62096 67.0576 8.63939C67.0141 8.65782 66.9673 8.6673 66.92 8.66728Z" fill="#1E3D6A"/>
<path d="M17.6101 8.66728H16.8705C16.8217 8.6673 16.7734 8.65751 16.7284 8.63849C16.6835 8.61947 16.6428 8.59161 16.6089 8.55656C16.5749 8.52151 16.5484 8.47999 16.5308 8.43447C16.5132 8.38895 16.505 8.34036 16.5065 8.29158V1.49386C16.509 1.39896 16.5463 1.30828 16.6112 1.23902C16.6761 1.16977 16.7642 1.12676 16.8587 1.11816H17.6101C17.7057 1.12415 17.7953 1.16635 17.8607 1.23617C17.9262 1.30599 17.9625 1.39816 17.9624 1.49386V8.29158C17.9639 8.34036 17.9557 8.38895 17.9381 8.43447C17.9205 8.47999 17.8939 8.52151 17.86 8.55656C17.826 8.59161 17.7854 8.61947 17.7404 8.63849C17.6955 8.65751 17.6472 8.6673 17.5984 8.66728" fill="#1E3D6A"/>
<path d="M24.6544 2.18655H22.8933V8.29158C22.8949 8.34036 22.8866 8.38895 22.869 8.43447C22.8515 8.47999 22.8249 8.52151 22.7909 8.55656C22.757 8.59161 22.7163 8.61947 22.6714 8.63849C22.6264 8.65751 22.5781 8.6673 22.5293 8.66728H21.7897C21.7409 8.6673 21.6926 8.65751 21.6476 8.63849C21.6027 8.61947 21.5621 8.59161 21.5281 8.55656C21.4941 8.52151 21.4676 8.47999 21.45 8.43447C21.4324 8.38895 21.4242 8.34036 21.4257 8.29158V2.18655H19.6999C19.6054 2.18659 19.5145 2.14987 19.4466 2.08413C19.3787 2.01839 19.339 1.92881 19.3359 1.83433V1.49386C19.3359 1.39622 19.3739 1.3024 19.4418 1.23227C19.5097 1.16214 19.6023 1.12122 19.6999 1.11816H24.6544C24.752 1.12122 24.8445 1.16214 24.9125 1.23227C24.9804 1.3024 25.0184 1.39622 25.0183 1.49386V1.83433C25.0153 1.92881 24.9756 2.01839 24.9077 2.08413C24.8397 2.14987 24.7489 2.18659 24.6544 2.18655Z" fill="#1E3D6A"/>
<path d="M72.5568 2.18655H70.7253V8.29158C70.7269 8.34036 70.7186 8.38895 70.701 8.43447C70.6835 8.47999 70.6569 8.52151 70.6229 8.55656C70.589 8.59161 70.5483 8.61947 70.5034 8.63849C70.4585 8.65751 70.4101 8.6673 70.3613 8.66728H69.6217C69.5221 8.66728 69.4265 8.62769 69.356 8.55724C69.2856 8.48678 69.246 8.39122 69.246 8.29158V2.18655H67.4028C67.3103 2.18361 67.2224 2.14556 67.157 2.08013C67.0915 2.0147 67.0535 1.92681 67.0505 1.83433V1.49386C67.0504 1.39816 67.0867 1.30599 67.1521 1.23617C67.2176 1.16635 67.3072 1.12415 67.4028 1.11816H72.5568C72.6544 1.12122 72.747 1.16214 72.8149 1.23227C72.8828 1.3024 72.9208 1.39622 72.9208 1.49386V1.83433C72.9177 1.92881 72.878 2.01839 72.8101 2.08413C72.7422 2.14987 72.6513 2.18659 72.5568 2.18655Z" fill="#1E3D6A"/>
<path d="M30.8642 8.66728H26.6142C26.5695 8.67047 26.5245 8.66479 26.482 8.65057C26.4395 8.63635 26.4002 8.61387 26.3663 8.58441C26.3325 8.55496 26.3049 8.51911 26.2849 8.47893C26.265 8.43876 26.2532 8.39503 26.2502 8.35029V1.49386C26.2502 1.39622 26.2882 1.3024 26.3561 1.23227C26.424 1.16214 26.5166 1.12122 26.6142 1.11816H30.7116C30.8092 1.12122 30.9018 1.16214 30.9697 1.23227C31.0377 1.3024 31.0756 1.39622 31.0756 1.49386V1.79911C31.0725 1.89359 31.0328 1.98317 30.9649 2.04891C30.897 2.11464 30.8061 2.15137 30.7116 2.15132H27.7295V4.24113H30.4064C30.504 4.24418 30.5965 4.2851 30.6645 4.35523C30.7324 4.42536 30.7704 4.51918 30.7703 4.61682V4.91033C30.7703 5.00686 30.732 5.09943 30.6637 5.16769C30.5955 5.23594 30.5029 5.27429 30.4064 5.27429H27.7295V7.62238H30.8642C30.9618 7.62543 31.0544 7.66635 31.1223 7.73648C31.1903 7.80661 31.2282 7.90043 31.2282 7.99807V8.33855C31.2252 8.3833 31.2134 8.42701 31.1935 8.46719C31.1736 8.50737 31.1459 8.54322 31.1121 8.57267C31.0783 8.60213 31.039 8.62461 30.9964 8.63883C30.9539 8.65305 30.909 8.65873 30.8642 8.65554" fill="#1E3D6A"/>
<path d="M53.5958 8.66728H49.3105C49.2658 8.67047 49.2208 8.66479 49.1783 8.65057C49.1358 8.63635 49.0965 8.61387 49.0626 8.58441C49.0288 8.55496 49.0012 8.51911 48.9812 8.47893C48.9613 8.43876 48.9495 8.39503 48.9465 8.35029V1.49386C48.9465 1.39622 48.9845 1.3024 49.0524 1.23227C49.1203 1.16214 49.2129 1.12122 49.3105 1.11816H53.4079C53.4557 1.11968 53.5027 1.13061 53.5463 1.15031C53.5899 1.17002 53.6292 1.19812 53.6619 1.23301C53.6946 1.2679 53.7201 1.3089 53.737 1.35366C53.7538 1.39841 53.7617 1.44606 53.7601 1.49386V1.79911C53.7601 1.89252 53.723 1.98211 53.657 2.04816C53.5909 2.11422 53.5013 2.15132 53.4079 2.15132H50.4845V4.24113H53.1614C53.2589 4.24418 53.3515 4.2851 53.4195 4.35523C53.4874 4.42536 53.5254 4.51918 53.5253 4.61682V4.91033C53.5253 5.00686 53.487 5.09943 53.4187 5.16769C53.3505 5.23594 53.2579 5.27429 53.1614 5.27429H50.4845V7.62238H53.6192C53.667 7.6239 53.7141 7.63482 53.7577 7.65453C53.8012 7.67423 53.8405 7.70233 53.8732 7.73722C53.9059 7.77212 53.9314 7.81311 53.9483 7.85787C53.9651 7.90263 53.973 7.95027 53.9715 7.99807V8.33855C53.97 8.38277 53.9596 8.42624 53.9409 8.46635C53.9223 8.50647 53.8957 8.5424 53.8628 8.572C53.8299 8.6016 53.7914 8.62426 53.7495 8.63861C53.7077 8.65296 53.6634 8.65872 53.6192 8.65554" fill="#1E3D6A"/>
<path d="M13.8998 8.66597H12.7845C12.6599 8.68055 12.534 8.65403 12.4259 8.59045C12.3178 8.52686 12.2335 8.42971 12.1857 8.31376C11.6339 7.13972 9.49713 2.32613 9.49713 2.32613V8.30202C9.49713 8.39854 9.45879 8.49112 9.39053 8.55937C9.32228 8.62763 9.2297 8.66597 9.13318 8.66597H8.62834C8.53386 8.66292 8.44427 8.62324 8.37854 8.55531C8.3128 8.48738 8.27607 8.39654 8.27612 8.30202V1.49255C8.27887 1.39889 8.31652 1.30964 8.38168 1.2423C8.44684 1.17497 8.53482 1.13442 8.62834 1.1286H9.7202C9.84964 1.11182 9.98106 1.13697 10.0952 1.20036C10.2093 1.26375 10.3 1.36204 10.3542 1.48081L13.031 7.43323V1.49255C13.034 1.39696 13.0732 1.30609 13.1409 1.23846C13.2085 1.17083 13.2994 1.13154 13.395 1.1286H13.8998C13.9933 1.13442 14.0813 1.17497 14.1465 1.2423C14.2116 1.30964 14.2493 1.39889 14.252 1.49255V8.30202C14.2521 8.39654 14.2153 8.48738 14.1496 8.55531C14.0839 8.62324 13.9943 8.66292 13.8998 8.66597Z" fill="#1E3D6A"/>
<path d="M89.8262 8.41987C89.0882 8.74607 88.284 8.89484 87.4781 8.85426C85.3531 8.85426 83.4512 7.96199 83.4512 4.42811C83.4512 1.65736 84.6252 0.00195682 87.4781 0.00195682C88.2396 -0.018773 88.9966 0.125408 89.6971 0.424614C89.9554 0.542019 89.9789 0.58898 89.9789 0.718125C89.9854 0.811934 89.9854 0.906087 89.9789 0.999896C89.9789 1.21122 89.8849 1.56344 89.8497 1.75128C89.8145 1.93913 89.8497 1.99784 89.6501 1.99784C89.4505 1.99784 89.4153 1.84521 89.3331 1.77477C89.0988 1.53222 88.8178 1.33958 88.5071 1.20843C88.1964 1.07729 87.8624 1.01035 87.5251 1.01164C85.494 1.01164 85.177 2.94881 85.177 4.42811C85.177 6.47095 85.8462 7.84458 87.5251 7.84458C87.8971 7.85199 88.2684 7.80854 88.6287 7.71544V4.92121C88.6287 4.7451 88.7226 4.69814 88.8987 4.69814H89.838C90.0376 4.69814 90.108 4.78032 90.108 4.93295V7.99721C90.108 8.27898 90.108 8.3142 89.8497 8.41987" fill="#1E3D6A"/>
<path d="M57.0591 5.9771L58.1745 2.24364L59.2428 5.9771H57.0591ZM61.4618 8.18431L59.3015 1.49225C59.2648 1.381 59.1913 1.28554 59.0932 1.22154C58.9951 1.15754 58.8781 1.1288 58.7615 1.14003H57.8105C57.6966 1.12763 57.5819 1.15629 57.4873 1.22085C57.3926 1.28542 57.324 1.38165 57.2939 1.49225L55.1806 8.23127C55.1686 8.28936 55.1686 8.34929 55.1806 8.40738C55.1837 8.47694 55.2135 8.54264 55.2638 8.59077C55.3141 8.6389 55.3811 8.66573 55.4507 8.66567H55.932C56.0467 8.67415 56.161 8.64411 56.2567 8.58031C56.3524 8.51651 56.4241 8.4226 56.4604 8.31345L56.883 6.9046H59.6303L60.0764 8.31345C60.1112 8.42593 60.1843 8.52269 60.2829 8.587C60.3815 8.65132 60.4995 8.67915 60.6165 8.66567H61.3326C61.3686 8.66734 61.4044 8.6615 61.4379 8.64852C61.4714 8.63554 61.5019 8.61571 61.5273 8.5903C61.5527 8.56488 61.5726 8.53444 61.5855 8.50092C61.5985 8.4674 61.6044 8.43154 61.6027 8.39564C61.6137 8.32562 61.6137 8.25432 61.6027 8.18431" fill="#1E3D6A"/>
<path d="M120.81 1.96231H121.056C121.221 1.96231 121.315 1.96231 121.315 1.76272C121.315 1.56313 121.185 1.57487 121.056 1.57487H120.81V1.96231ZM120.598 1.4105H121.092C121.385 1.4105 121.526 1.52791 121.526 1.76272C121.531 1.80821 121.526 1.85428 121.512 1.89775C121.498 1.94122 121.474 1.98106 121.443 2.01453C121.411 2.048 121.373 2.0743 121.331 2.09163C121.289 2.10897 121.243 2.11692 121.197 2.11493L121.561 2.67847H121.338L120.986 2.11493H120.81V2.66673H120.598V1.4105ZM121.021 2.97199C121.206 2.98137 121.39 2.93506 121.549 2.83902C121.707 2.74297 121.833 2.60161 121.911 2.43318C121.988 2.26474 122.013 2.07696 121.983 1.89406C121.953 1.71116 121.868 1.54154 121.741 1.40709C121.613 1.27264 121.448 1.17953 121.267 1.13977C121.086 1.1 120.897 1.11542 120.725 1.18403C120.553 1.25263 120.405 1.37128 120.301 1.52466C120.197 1.67803 120.141 1.8591 120.141 2.04449C120.134 2.16401 120.152 2.28358 120.194 2.3959C120.235 2.50821 120.299 2.6109 120.381 2.69771C120.464 2.78451 120.563 2.8536 120.673 2.90076C120.783 2.94792 120.901 2.97216 121.021 2.97199ZM121.021 0.964366C121.29 0.992327 121.538 1.1188 121.719 1.31936C121.9 1.51993 122 1.78036 122 2.05036C122 2.32036 121.9 2.58079 121.719 2.78135C121.538 2.98192 121.29 3.10839 121.021 3.13635C120.869 3.15219 120.715 3.1359 120.57 3.08854C120.424 3.04117 120.291 2.9638 120.177 2.86141C120.063 2.75903 119.973 2.63393 119.91 2.49422C119.848 2.3545 119.816 2.20328 119.816 2.05036C119.816 1.89744 119.848 1.74622 119.91 1.6065C119.973 1.46679 120.063 1.34169 120.177 1.2393C120.291 1.13692 120.424 1.05955 120.57 1.01218C120.715 0.964822 120.869 0.94853 121.021 0.964366Z" fill="#1E3D6A"/>
</svg>
