<svg xmlns="http://www.w3.org/2000/svg" width="122" height="29" fill="none" viewBox="0 0 122 29"><path fill="#8E89B9" d="M11.3585 7.78435C11.4398 7.7437 11.5008 7.6624 11.5618 7.60143C14.021 5.14214 16.5007 2.66253 18.9599 0.203247C19.0209 0.142273 19.0819 0.060974 19.1225 0C19.1835 0.0203247 19.2445 0.060974 19.2851 0.101623C21.1957 2.01214 23.0858 3.90234 24.9964 5.81285C26.0532 6.86974 26.7036 8.12986 27.0492 9.59324C27.2321 10.3859 27.293 11.1989 27.2321 11.9916C27.1101 13.6582 26.5207 15.2841 25.5451 16.6256C25.2199 17.0727 24.8744 17.4792 24.4882 17.8654C21.1753 21.1783 17.8624 24.4912 14.5698 27.7838C14.5292 27.8245 14.4885 27.8854 14.4479 27.9464C14.3869 27.9261 14.3259 27.8854 14.2853 27.8245L8.8789 22.4181C8.85858 22.3978 8.83826 22.3571 8.79761 22.3368C8.83826 22.2758 8.87891 22.2149 8.93988 22.1742C9.73254 21.3815 10.5049 20.6092 11.2975 19.8165C11.3382 19.7759 11.4195 19.7352 11.4195 19.6336C11.4805 19.6539 11.5211 19.7352 11.5618 19.7759C12.4764 20.6702 13.3707 21.5848 14.2649 22.4791C14.3869 22.601 14.3869 22.601 14.4885 22.4791C14.5088 22.4587 14.5088 22.4588 14.5292 22.4384C16.9478 20.0198 19.3461 17.6215 21.7647 15.2028C22.029 14.9386 22.2729 14.6541 22.4964 14.3492C23.0452 13.5972 23.3704 12.7029 23.4517 11.768C23.4923 11.3208 23.472 10.8534 23.3907 10.4062C23.2281 9.59324 22.8216 8.84123 22.2119 8.27214C21.7038 7.76402 21.1957 7.2559 20.7079 6.76811C20.2404 6.30065 19.7729 5.83318 19.3055 5.36571C19.2038 5.26409 19.2038 5.26409 19.1022 5.36571L19.0412 5.42668C17.3746 7.09331 15.708 8.75993 14.0414 10.4266C14.0007 10.4672 13.9601 10.5079 13.9194 10.5282C13.9194 10.4875 13.8991 10.4672 13.8788 10.4266C13.6349 10.0201 13.33 9.65422 13.0048 9.32902C12.5373 8.84123 12.0699 8.37376 11.5821 7.90629C11.5211 7.84532 11.4601 7.78435 11.3788 7.7437L11.3585 7.78435Z"/><path fill="#5B4F75" d="M11.358 7.7841C11.358 7.80443 11.358 7.80443 11.358 7.82475C11.2971 7.8654 11.2564 7.90605 11.2158 7.96702L9.102 10.0605C9.04103 10.1214 9.00038 10.1824 8.91908 10.2027C8.8581 10.1418 8.79713 10.1011 8.73616 10.0401L6.23622 7.54021C6.19557 7.49956 6.1346 7.45891 6.09395 7.41826C6.07363 7.41826 6.07363 7.43858 6.0533 7.43858C5.42324 8.06865 4.75252 8.69871 4.14278 9.36943C3.51272 10.0401 3.3298 10.8531 3.53304 11.7677C3.63467 12.2555 3.89889 12.6823 4.24441 13.0279L6.3785 15.162C6.39882 15.2026 6.41915 15.2433 6.39882 15.3042C6.33785 15.6091 6.31752 15.9343 6.2972 16.2595C6.2972 16.6253 6.27687 17.0115 6.31752 17.3773C6.33785 17.6212 6.35817 17.8448 6.41914 18.0887C6.50044 18.6171 6.66304 19.1253 6.84596 19.6131C7.08986 20.2228 7.41505 20.8122 7.80122 21.3407C7.8622 21.422 7.98414 21.5032 7.98414 21.6252C7.94349 21.5845 7.88252 21.5439 7.84187 21.5032C5.8094 19.4708 3.77694 17.4383 1.74447 15.4059C0.809539 14.4912 0.220124 13.2921 0.057527 11.9913C-0.186369 10.0605 0.342072 8.35319 1.70382 6.93047C2.61843 5.95488 3.59402 5.01995 4.54928 4.08501L5.95168 2.68261C5.99233 2.64196 6.01265 2.62164 6.0533 2.58099C6.07363 2.56066 6.11428 2.54034 6.15492 2.56067L6.17525 2.58099C6.19557 2.60131 6.2159 2.62164 6.23622 2.64196L11.2767 7.68248C11.2971 7.7028 11.3174 7.72313 11.3377 7.74345C11.3377 7.76378 11.3377 7.7841 11.358 7.7841Z"/><path fill="#7573A0" d="M8.91969 10.1832C9.00099 10.1832 9.06196 10.1019 9.10261 10.0409L11.2164 7.94745C11.257 7.88647 11.318 7.84583 11.3586 7.80518C11.4399 7.84583 11.5009 7.88647 11.5619 7.96777C12.0294 8.43524 12.5172 8.9027 12.9846 9.3905C13.3098 9.71569 13.6147 10.0815 13.8586 10.488C13.8789 10.5084 13.8992 10.549 13.8992 10.5897C13.8586 10.6303 13.8179 10.6913 13.757 10.7319C13.0862 11.4026 12.4155 12.0734 11.7448 12.7441C11.5416 12.927 11.3586 13.1506 11.196 13.3538C10.566 14.2074 10.1595 15.1424 10.0782 16.2196C10.0172 16.9513 10.1392 17.7033 10.444 18.374C10.6676 18.8618 10.9928 19.2886 11.379 19.6545C11.379 19.7357 11.2977 19.7764 11.257 19.8374C10.4644 20.63 9.69202 21.4024 8.89936 22.195C8.83839 22.2357 8.79774 22.2967 8.75709 22.3576C8.49287 22.1137 8.22865 21.8495 7.98475 21.5853C7.98475 21.4633 7.86281 21.382 7.80183 21.3007C7.41566 20.7723 7.09047 20.1829 6.84657 19.5732C6.64332 19.0854 6.50105 18.5569 6.41975 18.0488C6.3791 17.8252 6.35878 17.5813 6.31813 17.3374C6.27748 16.9716 6.29781 16.5854 6.29781 16.2196C6.29781 15.8944 6.33846 15.5895 6.39943 15.2643C6.41975 15.2237 6.39943 15.1627 6.3791 15.1221C6.50105 15.0611 6.4604 14.9188 6.48073 14.8172C6.72462 13.5774 7.23274 12.4189 7.96443 11.3823C8.22865 11.0165 8.51319 10.6506 8.83839 10.3051C8.87904 10.3051 8.94001 10.2645 8.91969 10.1832Z"/><path fill="#8E89B9" d="M43.3699 22.825C43.4715 22.4998 43.5528 22.2356 43.6341 21.9511C43.9187 20.9958 44.2032 20.0202 44.5081 19.065C44.9349 17.6829 45.3414 16.3008 45.7682 14.9187C46.0934 13.8415 46.4186 12.7643 46.7438 11.6871C47.1503 10.3254 47.5568 8.94329 47.9836 7.58154C48.0649 7.297 48.0243 7.35797 48.2885 7.35797C49.7112 7.35797 51.1136 7.35797 52.5363 7.35797C52.8005 7.35797 52.8005 7.33765 52.7192 7.60187C51.9876 9.71563 51.2355 11.8497 50.5039 13.9635C49.7722 16.0569 49.0405 18.1707 48.3088 20.2845C47.7397 21.9308 47.1503 23.577 46.5812 25.2437C46.2763 26.1176 45.9715 26.9916 45.6666 27.8655C45.6056 28.0078 45.6056 28.0281 45.4633 28.0281H41.3171C41.1545 28.0281 41.1545 28.0281 41.0935 27.8655C40.809 27.0322 40.5041 26.1786 40.2196 25.3453C39.4879 23.2112 38.7359 21.0568 37.9839 18.9227C37.3538 17.0935 36.7034 15.2439 36.0734 13.4147C35.4433 11.6058 34.8132 9.7766 34.1832 7.96771C34.1222 7.80511 34.0612 7.64251 34.0206 7.47992C34.0002 7.41894 34.0206 7.37829 34.0815 7.37829H38.5123C38.5326 7.37829 38.5733 7.37829 38.5936 7.37829C38.6952 7.35797 38.7359 7.41894 38.7562 7.50024C38.8375 7.80511 38.9391 8.08966 39.0204 8.39453C39.3253 9.41076 39.6302 10.4067 39.9147 11.4229C40.2602 12.6017 40.6261 13.8009 40.9716 14.9797C41.2561 15.8943 41.5204 16.8089 41.8049 17.7235C42.2114 19.1056 42.6382 20.4877 43.0447 21.8698C43.126 22.1543 43.2073 22.4389 43.3089 22.7234C43.3293 22.7031 43.3496 22.7437 43.3699 22.825ZM117.392 26.6461C117.331 26.6664 117.311 26.707 117.27 26.7477C116.539 27.52 115.563 28.0281 114.486 28.1907C113.876 28.2924 113.266 28.2924 112.657 28.2111C111.945 28.1298 111.254 27.9062 110.624 27.5607C109.75 27.0526 109.059 26.3615 108.653 25.4063C108.47 24.9591 108.368 24.4917 108.328 24.0242C108.267 23.3535 108.348 22.6624 108.571 22.012C108.897 21.0568 109.486 20.3454 110.319 19.7967C110.99 19.3698 111.722 19.0853 112.494 18.9227C112.962 18.8211 113.429 18.7398 113.917 18.6991C114.933 18.5975 115.949 18.6382 116.966 18.6382C117.25 18.6382 117.25 18.6382 117.25 18.3536C117.25 18.0894 117.25 17.8252 117.25 17.5406C117.23 17.0325 117.087 16.565 116.803 16.1585C116.518 15.7521 116.112 15.5488 115.624 15.4675C115.157 15.3862 114.669 15.3862 114.201 15.5082C113.592 15.6504 113.144 15.9756 112.901 16.5854C112.84 16.7683 112.799 16.9512 112.779 17.1341C112.779 17.2764 112.779 17.2764 112.636 17.2764C112.25 17.2764 111.844 17.2764 111.458 17.2764H108.937C108.897 17.2764 108.856 17.2764 108.815 17.2764C108.693 17.2764 108.693 17.2764 108.673 17.1341C108.673 16.687 108.754 16.2398 108.937 15.8334C109.283 14.9797 109.852 14.2277 110.624 13.6993C111.458 13.1098 112.392 12.744 113.388 12.5408C114.242 12.3782 115.096 12.3578 115.949 12.3985C116.844 12.4391 117.697 12.6424 118.51 13.0285C119.77 13.6383 120.685 14.5732 121.112 15.935C121.254 16.4024 121.335 16.8902 121.356 17.3983C121.396 18.2926 121.376 19.1666 121.376 20.0609C121.376 21.7275 121.376 23.3941 121.396 25.0607C121.396 25.7924 121.518 26.5241 121.762 27.2355C121.803 27.3778 121.864 27.52 121.945 27.6623C121.965 27.703 121.986 27.7436 121.986 27.7843C122.026 27.9672 121.986 28.0281 121.803 28.0281C120.543 28.0281 119.283 28.0281 118.022 28.0281C117.921 28.0485 117.819 27.9672 117.778 27.8655C117.636 27.4997 117.514 27.1339 117.453 26.7477C117.413 26.6664 117.413 26.6461 117.392 26.6461ZM117.23 22.3372C117.23 21.9511 117.23 21.5446 117.23 21.1584C117.23 20.9958 117.23 20.9958 117.067 20.9958C116.396 20.9958 115.726 20.9755 115.055 21.0365C114.628 21.0568 114.222 21.1584 113.815 21.3007C113.287 21.5039 112.88 21.8291 112.636 22.3372C112.453 22.7234 112.392 23.1299 112.433 23.5567C112.453 23.8819 112.575 24.1868 112.779 24.4307C113.083 24.8169 113.551 25.0607 114.039 25.0811C114.709 25.1624 115.38 25.0404 115.99 24.7559C116.457 24.5323 116.864 24.2274 117.148 23.7803C117.209 23.6787 117.25 23.577 117.25 23.4551C117.23 23.0893 117.23 22.7234 117.23 22.3372ZM85.5639 26.6461C85.5029 26.6664 85.4623 26.7274 85.4216 26.768C84.7306 27.4794 83.8566 27.9672 82.881 28.1501C82.3526 28.2517 81.8038 28.2924 81.2551 28.2517C80.7063 28.2314 80.1779 28.1298 79.6698 27.9469C78.5316 27.5404 77.617 26.829 77.0072 25.7721C76.743 25.3046 76.5804 24.7965 76.5398 24.2478C76.4381 23.4754 76.5194 22.7031 76.7633 21.9714C77.0479 21.1584 77.556 20.447 78.2673 19.9389C78.999 19.4105 79.812 19.0853 80.686 18.8821C81.3567 18.7398 82.0477 18.6382 82.7184 18.6178C83.4908 18.5772 84.2631 18.5975 85.0355 18.5975C85.0964 18.5975 85.1777 18.5975 85.2387 18.5975C85.4216 18.5975 85.4216 18.5975 85.4216 18.4146C85.4216 18.0487 85.4216 17.6829 85.4013 17.3374C85.3403 16.7886 85.1574 16.3008 84.7712 15.9147C84.507 15.6708 84.2021 15.5082 83.8363 15.4472C83.2672 15.3456 82.6778 15.3456 82.129 15.5488C81.4786 15.7927 81.0518 16.2398 80.9705 16.9512C80.9502 17.0325 80.9909 17.1545 80.9096 17.2154C80.8283 17.2764 80.7266 17.2358 80.6453 17.2358C79.4462 17.2358 78.2673 17.2358 77.0682 17.2358C76.8243 17.2358 76.8446 17.2561 76.8446 17.0122C76.8853 16.3008 77.1292 15.5895 77.5153 15C77.9828 14.2887 78.6332 13.6993 79.3852 13.3131C80.2185 12.866 81.1331 12.5814 82.0681 12.4595C82.7184 12.3782 83.3892 12.3578 84.0396 12.3985C85.1371 12.4595 86.194 12.7034 87.1492 13.2724C88.4094 14.0245 89.1817 15.122 89.4459 16.565C89.5272 16.9919 89.5475 17.4187 89.5475 17.8455C89.5475 20.0812 89.5475 22.2966 89.5475 24.5323C89.5475 25.3046 89.6288 26.0567 89.8118 26.8087C89.8727 27.0932 89.9744 27.3778 90.0963 27.642C90.1166 27.6826 90.137 27.7233 90.1573 27.7639C90.2183 27.9468 90.1776 28.0078 89.9744 28.0078C88.7142 28.0078 87.4338 28.0078 86.1736 28.0078C86.072 28.0281 85.9501 27.9469 85.9297 27.8452C85.7875 27.52 85.6858 27.1542 85.6249 26.8087C85.6249 26.7883 85.6046 26.7477 85.6046 26.7274C85.5842 26.6664 85.5639 26.6664 85.5639 26.6461ZM85.4013 22.3372C85.4013 21.9511 85.4013 21.5649 85.4013 21.1787C85.4013 20.9958 85.4013 20.9958 85.2184 20.9958C84.5477 20.9958 83.8973 20.9755 83.2266 21.0365C82.7388 21.0771 82.2713 21.1787 81.8242 21.3617C80.7673 21.8291 80.4421 22.9063 80.6453 23.8006C80.8079 24.512 81.316 24.8981 82.0071 25.0404C82.6371 25.1624 83.2875 25.1014 83.877 24.8778C84.4664 24.6543 84.9542 24.3291 85.2997 23.8006C85.3607 23.7193 85.4013 23.5974 85.4013 23.4957C85.4013 23.1096 85.4013 22.7234 85.4013 22.3372ZM96.5799 14.37L96.8034 14.1261C97.5555 13.2724 98.5717 12.7034 99.6692 12.4798C100.299 12.3578 100.95 12.3172 101.58 12.3782C102.291 12.4188 102.962 12.6017 103.592 12.9472C104.385 13.3944 104.913 14.0651 105.279 14.8984C105.502 15.4472 105.665 16.0366 105.726 16.626C105.807 17.1748 105.828 17.7439 105.828 18.2926C105.828 21.443 105.828 24.5933 105.828 27.7639C105.828 28.0281 105.848 28.0078 105.604 28.0078H101.905C101.722 28.0078 101.722 28.0078 101.722 27.8249C101.722 27.7843 101.722 27.7436 101.722 27.703C101.722 24.5323 101.722 21.382 101.722 18.2113C101.722 17.8861 101.681 17.5406 101.62 17.2358C101.437 16.4634 100.97 15.996 100.218 15.8334C99.6286 15.6911 99.0392 15.6911 98.4497 15.8334C97.6977 16.0163 97.149 16.4837 96.7425 17.1138C96.7018 17.1748 96.6815 17.2561 96.6815 17.3171C96.6815 17.3577 96.6815 17.4187 96.6815 17.4593C96.6815 20.8942 96.6815 24.3291 96.6815 27.7639C96.6815 28.0485 96.7221 28.0078 96.4376 28.0078H92.7385C92.5759 28.0078 92.5759 28.0078 92.5759 27.8452C92.5759 27.6217 92.5759 27.4184 92.5759 27.1948C92.5759 22.4185 92.5759 17.6626 92.5759 12.8863C92.5759 12.6221 92.5556 12.6424 92.7995 12.6424C93.9377 12.6424 95.0758 12.6424 96.214 12.6424C96.2547 12.6424 96.2953 12.6424 96.336 12.6424C96.4173 12.6424 96.4376 12.683 96.4376 12.744C96.4579 13.1302 96.4782 13.496 96.5189 13.8822C96.5392 14.0245 96.5595 14.1667 96.5799 14.37ZM72.3732 17.2967H70.5033C70.3407 17.2967 70.3407 17.2967 70.3204 17.1341C70.3001 16.7886 70.1781 16.4431 69.9952 16.1382C69.7513 15.7521 69.3855 15.4878 68.9383 15.3862C68.227 15.2033 67.5156 15.2033 66.8246 15.4675C66.5197 15.5895 66.2758 15.7724 66.0929 16.0366C65.6661 16.626 65.6457 17.5813 66.5197 18.0691C66.8855 18.2723 67.292 18.4146 67.6985 18.5365C68.3489 18.7195 68.9993 18.8211 69.6497 18.9837C70.4424 19.1869 71.2147 19.4105 71.9464 19.756C72.5155 20.0202 73.0236 20.4064 73.4707 20.8535C73.9585 21.382 74.2634 22.0324 74.3853 22.7234C74.4463 23.1096 74.4666 23.4957 74.4463 23.9022C74.4057 24.7965 74.0398 25.6502 73.4301 26.3006C72.7187 27.0729 71.8448 27.5607 70.8488 27.8859C70.2798 28.0688 69.6903 28.1704 69.1009 28.2314C68.6944 28.272 68.2879 28.2924 67.8611 28.2924C66.5603 28.272 65.3205 28.0281 64.162 27.3981C63.1255 26.829 62.2922 26.0363 61.784 24.9591C61.5402 24.451 61.3979 23.8819 61.3979 23.3128C61.3979 23.1502 61.3979 23.1502 61.5605 23.1502H65.1173C65.2596 23.1502 65.2596 23.1502 65.2799 23.2925C65.3002 23.4957 65.3612 23.7193 65.4222 23.9226C65.5848 24.3697 65.91 24.7559 66.3368 24.9795C66.7433 25.2233 67.2107 25.3453 67.6782 25.3656C68.1253 25.3859 68.5928 25.4063 69.04 25.2843C69.4261 25.203 69.792 25.0201 70.0765 24.7356C70.5643 24.2478 70.6659 23.2519 69.8936 22.7234C69.5481 22.4795 69.1416 22.3372 68.7351 22.195C68.1457 22.012 67.5563 21.8901 66.9465 21.7478C65.8693 21.5039 64.8124 21.1584 63.8572 20.569C63.3287 20.2438 62.8613 19.8373 62.4954 19.3292C62.1092 18.7601 61.8653 18.1097 61.845 17.4187C61.8044 16.4837 62.0076 15.6098 62.5564 14.8171C62.9832 14.2074 63.532 13.6993 64.162 13.3334C64.8531 12.9269 65.6254 12.6627 66.4181 12.5408C67.1701 12.3985 67.9424 12.3985 68.6944 12.4391C69.731 12.5001 70.7269 12.7034 71.6618 13.1708C72.4342 13.557 73.1049 14.0854 73.613 14.7968C74.1008 15.4878 74.365 16.3211 74.3853 17.1545C74.3853 17.3577 74.3853 17.3577 74.1821 17.3577H72.3732V17.2967ZM58.776 20.2845V27.7436C58.776 27.9875 58.7963 27.9672 58.5524 27.9672H54.894C54.8533 27.9672 54.8127 27.9672 54.772 27.9672C54.6907 27.9672 54.6704 27.9265 54.6704 27.8655C54.6704 27.8249 54.6704 27.7843 54.6704 27.7436V12.805C54.6704 12.6221 54.6704 12.6221 54.8533 12.6221H58.5931C58.6337 12.6221 58.6541 12.6221 58.6947 12.6221C58.7557 12.6221 58.776 12.6627 58.776 12.7034C58.776 12.7643 58.776 12.805 58.776 12.866V20.2845ZM56.7639 10.7725C56.1948 10.7725 55.707 10.6709 55.2598 10.3457C54.8127 10.0408 54.5281 9.55303 54.4468 9.00427C54.3859 8.67907 54.4062 8.3742 54.4875 8.04901C54.6907 7.297 55.1785 6.8092 55.9305 6.60596C56.4996 6.44336 57.1094 6.46368 57.6785 6.66693C58.4508 6.95148 58.8979 7.52057 58.9996 8.33355C59.0605 8.6994 59.0199 9.06524 58.8979 9.41076C58.6541 10.0815 58.1459 10.488 57.4549 10.6912C57.2313 10.7522 56.9874 10.7928 56.7639 10.7725Z"/></svg>