<svg width="158" height="99" viewBox="0 0 158 99" fill="none" xmlns="http://www.w3.org/2000/svg">
<g clip-path="url(#clip0_10825_60644)">
<path d="M91.4511 32.3687C87.8301 30.4888 83.8393 29.441 79.756 29.2869C77.0286 29.2561 74.3321 29.78 71.8205 30.8278C70.2643 31.4287 68.8621 32.3687 67.691 33.5705C67.1979 34.1098 66.8127 34.7416 66.5508 35.435H66.6586C67.9684 35.0806 69.3706 35.0806 70.6803 35.435C72.5139 36.1284 74.0086 37.4843 74.8714 39.2409C75.7035 40.7818 76.7359 43.3088 76.7513 43.3242V43.0468C76.4431 41.4135 76.9054 39.7494 77.9994 38.5013C79.6635 36.8372 83.1613 37.7925 83.1921 37.7925L83.0534 37.6076C82.1751 36.4828 81.7437 35.0806 81.8053 33.663C81.9594 32.646 82.6528 31.7985 83.6081 31.4287C84.9333 31.0281 86.3509 31.0281 87.676 31.4287H87.8763C89.3247 31.7677 92.5759 32.8925 92.6068 32.9696C92.6376 33.0466 92.6068 32.9696 92.6068 32.9696C92.6068 32.9696 92.1445 32.7231 91.4511 32.3687Z" fill="#C59717"/>
<path d="M74.2539 26.0973C75.6869 25.1266 77.2432 24.3408 78.8765 23.786C81.5268 22.9078 84.2695 22.3068 87.0585 21.9986C90.4946 21.5826 93.9615 21.521 97.4131 21.7829H97.3052C96.5502 21.4285 96.0879 20.6735 96.1187 19.8414C95.9338 17.6688 99.2467 14.5871 99.2775 14.5871L98.7382 14.8953C96.5348 16.1896 94.1927 17.222 91.7581 17.977C90.5408 18.2081 89.2003 18.1003 88.9537 17.3298C88.8305 16.3437 88.9537 15.3421 89.3389 14.4176L88.2295 15.0648C85.1478 16.8368 76.9196 21.7829 75.6099 23.4316C74.9781 24.2329 74.5313 25.1574 74.2847 26.159L74.2539 26.0973Z" fill="#C59717"/>
<path d="M93.4536 26.0666C94.5784 24.7568 95.9806 23.709 97.5523 22.9848H96.7972C93.3457 22.6458 89.8634 22.6458 86.4118 22.9848C83.1606 23.2468 79.971 24.1097 77.0126 25.4964C75.5179 26.1436 74.162 27.0835 73.0217 28.2546C72.6057 28.6398 72.3283 29.1329 72.2051 29.6876C75.3793 28.6244 78.7383 28.2546 82.0666 28.6244C85.8109 29.2561 89.4473 30.4118 92.8526 32.0759L92.7448 31.8756C91.8202 29.9649 92.0976 27.6999 93.4536 26.0666Z" fill="#C59717"/>
<path d="M105.302 24.2791L105.534 24.6951L105.626 24.8184C105.703 24.9416 105.795 25.0649 105.888 25.1728L106.011 25.3577C106.412 25.7891 106.92 26.1127 107.475 26.2976V26.1897C107.228 24.9879 107.059 23.786 106.951 22.5687C106.874 21.4747 106.874 20.3653 106.951 19.2713V18.9939L106.859 19.1018C106.011 19.98 105.102 20.7967 104.147 21.5517C103.33 22.2605 102.436 22.8769 101.481 23.3854C102.02 23.7089 102.621 23.8938 103.253 23.9247C103.515 23.9863 103.792 23.9863 104.054 23.9247H104.362V24.0633C104.101 24.541 103.268 26.1435 103.268 26.1435C100.695 24.9108 97.6135 25.4039 95.5642 27.3916C94.4547 28.4086 94.0079 29.9494 94.3931 31.3978C95.1019 32.9541 96.7506 33.8786 98.461 33.6475C100.248 33.4626 101.789 32.3378 102.513 30.689C102.714 31.1821 102.745 31.7214 102.621 32.2299C102.267 33.3701 101.435 34.2792 100.341 34.7415C98.8 35.3579 96.8123 35.7585 92.9909 34.2176L92.1897 33.8786C91.2343 33.4626 90.2636 33.1082 89.2774 32.8L88.8922 32.6922C87.7366 32.2915 86.5193 32.0758 85.2866 32.045C84.3467 31.9063 83.4222 32.3686 82.9599 33.1852C82.7904 33.5396 82.6826 33.9248 82.6826 34.3101C82.7596 35.0959 83.0061 35.8663 83.4376 36.5289C83.9769 37.5151 84.5624 38.455 85.2096 39.3795H85.0401C83.9923 38.9018 82.8983 38.5937 81.758 38.455C79.7703 38.2701 78.8766 38.5474 78.1216 39.6414C77.5361 40.8125 77.3666 42.1685 77.6594 43.4474C77.9059 44.9882 78.7996 46.3596 80.1093 47.2225L81.1417 47.7464V47.8234C80.0477 50.2272 78.553 51.8451 77.3358 51.9375C76.4883 51.9375 75.4251 50.7048 74.7163 49.842C74.516 49.58 74.3003 49.3489 74.0691 49.1178C73.4682 48.8096 72.7286 48.9174 72.2509 49.4105C72.5591 49.5184 72.8519 49.6725 73.0984 49.8882C73.4682 50.1501 73.6531 50.6278 73.5452 51.0746C73.5452 50.9822 73.1138 50.6432 72.1585 50.8743C70.972 51.1517 70.9258 53.2473 70.9258 53.2627C71.1723 52.9853 71.4497 52.7234 71.7424 52.4768C72.7902 51.7218 74.3311 53.3859 74.3927 53.463C74.2386 53.4938 74.1 53.54 73.9613 53.6017C73.1446 53.9715 72.5129 54.634 72.1893 55.4661H72.3742C74.9166 54.7881 77.5361 54.4645 80.171 54.5108C81.7272 54.5724 83.2835 54.8189 84.7935 55.2042V55.0963C84.4546 54.5262 84.0077 54.0331 83.4684 53.6479C82.436 53.3089 81.3728 53.0932 80.2942 52.9853L80.5254 52.8775C81.1879 52.5539 82.9753 51.6294 83.6071 51.2133C84.208 50.8589 84.7319 50.3967 85.1479 49.8574C85.4869 49.4105 85.7181 48.8712 85.8105 48.3165C86.0416 48.3781 86.242 48.486 86.396 48.6555C86.6426 48.9328 86.7813 49.3027 86.7813 49.6879C86.7813 49.6879 86.7813 49.5492 86.7813 49.4876C87.1202 48.5784 87.0894 47.5769 86.6888 46.6986C86.3344 46.036 85.8105 45.5121 85.1479 45.1577C84.7781 44.9574 84.4546 44.6801 84.208 44.3411C83.7612 43.432 84.1002 42.338 84.9939 41.8449C85.4407 41.5675 85.903 41.321 86.3652 41.1053C87.336 42.6153 88.6303 43.8788 90.1712 44.8033C92.0048 45.7433 94.0387 46.2209 96.1035 46.1901C96.7352 46.7294 97.1358 47.4844 97.2129 48.3165C97.2745 49.3181 96.9509 50.3196 96.3038 51.0901C95.9956 51.4753 95.5642 51.7372 95.0711 51.8143C94.2082 51.8143 93.145 50.5816 92.4362 49.7187C92.2513 49.4567 92.0356 49.2102 91.7891 48.9945C91.1881 48.6555 90.4485 48.7788 89.9862 49.2872C90.3098 49.3797 90.6026 49.5492 90.8491 49.7649C91.2189 50.0423 91.3884 50.5045 91.2806 50.9514C91.2806 50.8589 90.8491 50.5199 89.8938 50.7511C88.7073 51.0284 88.6611 53.124 88.6611 53.1394C88.9076 52.862 89.185 52.6001 89.4778 52.3536C90.5101 51.5985 92.051 53.2627 92.128 53.3397C91.974 53.3705 91.8199 53.4168 91.6812 53.4784C90.8799 53.8482 90.2482 54.5262 89.9092 55.3428H90.0941C92.6365 54.6649 95.2714 54.3413 97.9063 54.3875C99.4626 54.4491 101.019 54.6803 102.529 55.0809V54.973C102.19 54.4029 101.743 53.9098 101.204 53.5246C100.171 53.1856 99.0927 52.9545 98.0141 52.862C98.0758 52.8158 98.1374 52.7696 98.1836 52.708C99.3855 51.768 100.233 50.4275 100.557 48.9328C100.557 48.8096 100.557 48.6863 100.557 48.563C100.51 47.7618 100.264 46.976 99.8478 46.2826C100.495 46.4367 101.111 46.6832 101.681 47.0222C102.036 47.2533 102.359 47.5307 102.652 47.8388C102.652 47.8388 102.652 47.7156 102.652 47.6539C102.39 46.5599 101.604 45.6816 100.557 45.2964C98.3994 44.2949 96.4425 42.8927 94.8091 41.1515H94.9941C96.273 41.3826 97.5673 41.4751 98.8616 41.4288C100.495 41.4134 102.082 40.9512 103.484 40.1191C104.871 39.2871 105.95 38.0081 106.566 36.5135C107.028 35.4195 107.29 34.2638 107.321 33.0774C107.321 32.1529 107.167 31.2283 106.89 30.35C106.381 28.9016 105.518 27.6073 104.362 26.5903C104.362 26.5903 105.256 24.2791 105.287 24.2174V24.2791H105.302ZM95.9494 42.3225L96.0727 42.4304L95.9494 42.3225ZM99.7553 31.1205C99.216 31.3362 98.6151 31.3362 98.0758 31.1205C97.783 30.9972 97.5673 30.7507 97.4594 30.4579C97.3362 30.1035 97.3824 29.7183 97.5827 29.3947C97.8446 28.9325 98.2915 28.5935 98.8154 28.4702C99.8324 28.2853 100.849 28.6397 101.543 29.4101C101.543 29.4101 100.788 30.7969 99.7707 31.1513V31.1205H99.7553ZM95.8415 42.1839C95.4871 41.8757 95.179 41.5213 94.9016 41.1515C95.1481 41.5213 95.4409 41.8603 95.7645 42.1839H95.8415Z" fill="#C59717"/>
<path d="M69.2456 47.9005C69.6 47.1609 69.8157 46.3751 69.8773 45.5584C70.9559 45.7433 72.0499 45.7433 73.1285 45.5584C74.1763 45.3889 75.2087 45.1116 76.2103 44.7263C76.2103 44.6339 74.4383 38.4704 71.2795 36.6522C68.7525 35.2038 65.3318 36.5598 65.2085 36.6522C65.2085 36.6214 65.2085 36.5752 65.2085 36.5444C65.5167 35.2809 66.0714 34.1098 66.8572 33.0774C67.8896 31.968 69.1069 31.0435 70.4628 30.3501C70.3242 30.2422 69.8311 29.8108 70.2163 28.6397C70.7402 27.5457 71.7572 26.7599 72.959 26.5596C72.3581 26.1127 72.0962 25.3269 72.3273 24.6027C72.6046 23.7706 73.298 23.1389 74.1455 22.9386H74.238C73.7449 22.5379 73.0053 21.7521 73.4829 20.8276C73.9606 19.9031 75.0238 19.9031 75.4398 19.826H75.6247C75.1163 19.3638 74.5615 18.9785 73.976 18.6395L73.637 18.4238C73.1285 18.1619 72.8204 17.6226 72.8204 17.0525C72.8204 16.7751 72.959 16.5286 73.2056 16.3899C73.9452 15.8814 74.5615 15.2034 74.9776 14.4022H74.7156C74.2226 14.4176 73.7449 14.3714 73.2672 14.2481C73.4059 13.9861 73.8219 13.1387 73.7141 13.0462C73.6062 12.9538 73.6216 13.0462 73.6062 13.0462C72.9745 13.3236 72.2965 13.4931 71.6031 13.5701L70.5091 13.7858C69.7541 13.9399 69.0607 14.2943 68.5214 14.8336C67.1654 14.4176 65.7632 14.1556 64.3456 14.0478C63.3132 14.1402 62.6199 15.4808 62.6045 15.4962C61.6183 15.3575 60.6321 15.3575 59.646 15.4962C58.8602 15.6195 58.1205 15.943 57.4888 16.4361H57.5812C58.4287 16.3899 59.2608 16.4669 60.0774 16.6827C60.0004 16.8213 59.9542 16.9908 59.9696 17.1449C59.9696 17.3914 60.0466 17.638 60.1699 17.8537C60.4164 18.3006 61.1252 18.4238 61.8802 18.1465C62.1422 18.0386 62.3579 17.8691 62.5428 17.6534C62.7739 17.3298 63.1592 17.1603 63.5598 17.2065C64.0683 17.2374 64.4997 17.6226 64.5768 18.1311C62.6969 18.6241 60.7554 18.8707 58.8139 18.8707C58.0897 18.7782 57.3655 18.655 56.6567 18.4855C56.7492 18.2851 56.8262 18.0694 56.9033 17.8537C56.3486 17.9307 55.7784 17.9307 55.2237 17.8537C54.4225 17.8537 53.652 17.6072 52.9895 17.1449V17.2682C53.2052 18.1157 53.6829 18.9015 54.33 19.487C55.1467 20.1958 56.1174 20.7197 57.1498 21.0279V20.9508C57.0419 20.6889 56.6721 19.9647 56.6413 19.9031C57.2268 20.0417 57.8124 20.1342 58.4133 20.1804C59.2916 20.2883 60.1853 20.2112 61.0482 19.9801C60.8633 20.2575 60.74 20.5656 60.7092 20.9046V21.0125C60.74 21.3052 60.8479 21.5672 61.0174 21.7983C61.1714 21.9832 61.2639 22.2143 61.2947 22.4455C61.2947 22.4917 61.2947 22.5379 61.2947 22.5842C61.2639 22.7074 61.2639 22.8461 61.2947 22.9694C61.3409 23.5549 61.4796 24.125 61.7108 24.6643V24.5873C61.8186 24.3407 62.0651 23.6319 62.0651 23.6319C62.2809 23.0772 62.5582 22.5687 62.9126 22.0911C62.9126 22.2606 63.2516 22.9694 63.2516 22.9694C63.3287 22.5996 63.5752 22.276 63.9142 22.1065C64.6076 21.7213 65.3626 21.5055 66.1484 21.4439L65.8403 21.8445C63.8217 24.4024 61.9727 27.0835 60.324 29.8878C59.7693 31.1051 59.4919 32.4149 59.5227 33.7554C59.5227 34.5567 59.6152 35.3733 59.7847 36.1591C59.0142 35.928 58.3054 35.512 57.7199 34.9573C57.1806 33.7708 56.9187 32.4765 56.9803 31.1822L56.8724 29.6413C56.703 28.6706 56.1482 27.8077 55.3316 27.2376C55.5473 26.7291 55.7322 26.2206 55.8709 25.6813C55.9017 25.481 55.9017 25.2807 55.8709 25.0803C55.8709 24.6489 55.7938 24.2175 55.6552 23.8014V23.9247C55.6552 23.9247 55.6552 23.8631 55.6552 23.8323C55.6552 23.8323 55.6552 23.9709 55.6552 24.048C55.5473 24.3099 55.3316 24.5102 55.0542 24.5719H54.7152C54.7152 23.5857 54.0527 22.7382 53.0973 22.4917C52.6197 22.5379 52.1574 22.692 51.7722 22.9694C52.2653 23.1389 52.7121 23.4162 53.0665 23.8014C53.3901 24.6797 53.5288 25.6197 53.498 26.5596C52.9895 26.0973 52.5426 25.5888 52.1574 25.0187C51.9417 24.6489 51.464 24.541 51.0942 24.7722C51.0942 24.7722 51.0788 24.7722 51.0634 24.7876C50.8169 24.9109 50.6011 25.0803 50.4316 25.3115C50.7552 25.219 51.1096 25.2807 51.387 25.4964C51.6335 26.2052 52.065 26.8523 52.6043 27.3762C53.5442 28.1467 53.8832 29.4256 53.4517 30.5658C53.0819 32.1067 51.0326 32.6152 51.0172 32.6152C51.4486 33.1082 52.1112 33.3548 52.7583 33.2469C53.5596 32.8309 54.2376 32.23 54.7306 31.4749V31.7369C54.7306 32.7847 54.9772 36.3595 54.9772 36.3595C55.1775 37.8541 55.7784 39.2717 56.7338 40.4427L57.6121 41.8141C57.9202 42.2918 58.0897 42.8619 58.0897 43.432C58.0589 44.2949 57.7199 45.1116 57.1498 45.7433C57.1498 45.7433 57.1498 45.7895 57.1498 45.8204C57.2731 45.9282 57.6583 45.8204 58.2592 45.5584C58.7215 45.3273 59.1375 45.0345 59.5073 44.6955C60.062 44.187 60.7246 43.8018 61.4488 43.5707C62.3425 43.2933 63.3287 43.5553 63.9758 44.2333C63.9758 44.2333 64.5151 45.0037 63.4057 47.4999C62.2963 49.9961 60.8016 51.6294 59.569 51.7219C58.7061 51.7219 57.6429 50.4892 56.9495 49.6263C56.7492 49.3643 56.5335 49.1178 56.2869 48.9021C55.686 48.5631 54.9464 48.6864 54.4841 49.1948C54.7923 49.3027 55.085 49.4568 55.3316 49.6725C55.7014 49.9499 55.8709 50.4121 55.763 50.859C55.763 50.7665 55.3316 50.4275 54.3763 50.6587C53.1898 50.936 53.1436 53.0316 53.1436 53.047C53.3901 52.7696 53.6675 52.5077 53.9602 52.2612C54.9926 51.5061 56.5489 53.1703 56.6105 53.2473C56.4564 53.2781 56.3023 53.3244 56.1637 53.386C55.3624 53.7558 54.7306 54.4184 54.4071 55.2504H54.592C57.1344 54.5725 59.7539 54.2489 62.3887 54.2951C63.945 54.3567 65.5013 54.6033 67.0113 54.9885V54.8652C66.6723 54.3105 66.2255 53.8174 65.6862 53.4322C64.6538 53.0932 63.5906 52.8775 62.512 52.7696L62.7123 52.631C63.9912 51.7835 65.1315 50.7511 66.0714 49.5492C66.6877 48.5631 67.0267 47.4383 67.0575 46.2826C67.0575 46.2826 67.3965 46.3597 67.8742 47.2842C68.167 47.7772 68.3365 48.3474 68.3827 48.9175C68.7063 48.6093 68.999 48.2703 69.2456 47.9005ZM65.9173 16.1279C65.7324 16.4669 65.378 16.6672 64.9928 16.6364C64.6538 16.5902 64.3919 16.2974 64.4073 15.9584L63.9604 15.7119H65.2085L65.8249 15.8044C66.2255 15.9122 66.6569 15.9584 67.073 15.9584L65.8557 16.1742L65.9173 16.1279ZM54.7306 31.7061L54.8231 31.5828L54.7306 31.7061Z" fill="#C59717"/>
<path d="M2.77382 83.0168C0.893973 81.2602 -0.122996 78.7795 0.000273399 76.2216C0.0310906 73.9257 0.940199 71.7223 2.5427 70.0582C4.42255 68.317 6.93415 67.4387 9.49198 67.6236C10.6014 67.6236 11.6954 67.7161 12.7894 67.901C13.5599 68.0551 14.3303 68.1629 15.1007 68.24C15.3627 68.24 15.4089 68.3478 15.4089 68.4865C15.4089 68.6252 15.3319 68.9488 15.2856 69.7654C15.2394 70.5821 15.2856 71.7685 15.2856 72.1075C15.2856 72.4465 15.2086 72.5852 15.0853 72.5852C14.962 72.5852 14.9004 72.4311 14.9004 72.1075C14.9004 71.2292 14.5614 70.3972 13.9451 69.7808C12.5737 68.8717 10.9558 68.4095 9.32249 68.4865C7.42723 68.3016 5.53197 68.9025 4.09897 70.1506C2.58892 71.7377 1.84931 73.8949 2.04962 76.0829C1.98799 80.6285 5.62442 84.3574 10.17 84.419C10.2008 84.419 10.2316 84.419 10.2624 84.419C11.6954 84.6039 13.1284 84.2033 14.2532 83.2942C14.6847 82.7395 14.9775 82.0769 15.1007 81.3835C15.1007 81.137 15.1778 81.0445 15.3164 81.0445C15.4551 81.0445 15.4859 81.1986 15.4859 81.3835C15.3781 82.3697 15.2086 83.3404 14.9775 84.2957C14.8388 84.7272 14.7926 84.7734 14.3919 84.9583C13.0514 85.3435 11.6646 85.513 10.2624 85.4668C7.53509 85.6671 4.83858 84.7888 2.75842 83.0168H2.77382Z" fill="#211E1F"/>
<path d="M66.6577 82.9398C66.6577 83.5561 66.8426 84.4806 67.5822 84.758C67.9366 84.8505 68.3219 84.8967 68.6917 84.8967C68.6917 84.8967 68.8149 84.8967 68.8149 84.9891C68.8149 85.0816 68.6763 85.1432 68.4605 85.1432C68.2448 85.1432 66.2417 85.1432 65.6099 85.0354C65.2247 85.0354 65.1323 85.0354 65.1323 84.8659C65.1323 84.6964 65.1323 84.7734 65.2555 84.758C65.3788 84.7426 65.3634 84.4498 65.2555 84.1417L64.4389 75.3279L60.2632 84.2033C59.8933 84.9583 59.8471 85.1124 59.693 85.1124C59.5389 85.1124 59.4927 84.9429 59.1691 84.3266C58.8456 83.7102 57.2585 80.536 57.166 80.3665C57.0736 80.1971 55.1013 75.9597 54.9164 75.4974L54.223 83.4175V84.2957C54.223 84.5577 54.4079 84.7734 54.6698 84.8196C54.8855 84.8659 55.1013 84.8967 55.317 84.8967C55.317 84.8967 55.4557 84.8967 55.4557 84.9891C55.4557 85.0816 55.3478 85.1432 55.1475 85.1432H52.1736C52.0041 85.1432 51.8809 85.1432 51.8809 84.9891C51.8809 84.835 51.9733 84.8967 52.0504 84.8967C52.2199 84.9121 52.3893 84.9121 52.5588 84.8967C53.129 84.8042 53.1752 84.1263 53.2522 83.4791L54.3308 72.3078C54.3308 72.1229 54.4233 71.9997 54.5311 71.9997C54.639 71.9997 54.7006 72.0767 54.7777 72.2616L60.0012 83.0476L65.0244 72.2616C65.0244 72.1075 65.1631 71.9843 65.271 71.9843C65.3788 71.9843 65.4404 72.1229 65.4867 72.4465L66.6577 82.9398Z" fill="#211E1F"/>
<path d="M83.4222 72.9858C83.4222 72.8933 83.4222 72.8317 83.6225 72.8009C83.8845 72.7546 84.1618 72.7238 84.4392 72.7238C86.1187 72.7238 86.7505 74.2647 86.7505 75.6515C86.7505 76.2832 86.5348 76.8996 86.1341 77.3772C85.7797 77.7933 85.5332 77.8241 84.5933 77.8241C84.2697 77.8395 83.9307 77.8241 83.6071 77.7624C83.5147 77.7624 83.4838 77.7624 83.4838 77.5775L83.4222 72.9858ZM82.0663 80.197C82.0663 81.8303 82.0663 83.1863 81.9892 83.8951C81.9122 84.6039 81.8351 84.7734 81.4961 84.835C81.3266 84.835 81.1417 84.835 80.9722 84.835C80.9106 84.835 80.849 84.8658 80.8336 84.9429C80.8336 85.0507 80.926 85.0815 81.1109 85.0815H82.7905C82.9291 85.0815 84.6549 85.174 85.0555 85.174C87.1973 85.4205 89.1234 83.8951 89.3853 81.7533C89.3853 81.6608 89.4008 81.553 89.4008 81.4605C89.2929 79.7501 88.1064 78.3017 86.4577 77.8549C87.3822 77.0845 87.9369 75.975 87.9986 74.7732C87.9986 73.9103 87.3822 72.2153 84.5779 72.2153H80.8027C80.6024 72.2153 80.5254 72.2153 80.5254 72.354C80.5254 72.4927 80.5254 72.4465 80.6641 72.4465C80.849 72.4156 81.0493 72.4156 81.2342 72.4465C81.8043 72.5543 81.943 72.8317 81.9738 73.4172C82.0046 74.0027 81.9738 74.4342 81.9738 77.0999L82.0663 80.197ZM83.4376 78.4096C83.4376 78.3171 83.4376 78.2863 83.5301 78.2863H84.8706C85.3791 78.3171 85.8722 78.4866 86.2882 78.7794C87.3668 79.5961 87.9832 80.875 87.9215 82.2309C88.014 83.479 87.0741 84.5576 85.826 84.6501C85.7181 84.6501 85.6256 84.6501 85.5178 84.6501C84.9939 84.6655 84.47 84.5885 83.9769 84.3881C83.4376 84.1416 83.4376 83.8951 83.3914 83.063V79.3803L83.4376 78.4096Z" fill="#211E1F"/>
<path d="M105.379 73.1398C105.379 73.0474 105.426 72.9549 105.518 72.9395C105.888 72.8625 106.273 72.8162 106.658 72.8316C108.492 72.8316 109.617 74.1106 109.617 76.2524C109.709 77.2385 109.324 78.2247 108.569 78.8718C108.184 79.1184 107.737 79.2262 107.29 79.1954C106.689 79.2262 106.073 79.1338 105.503 78.9335C105.426 78.8872 105.379 78.8102 105.379 78.7177V73.1398ZM104.008 80.2432V83.9413C104.008 84.6501 103.854 84.8195 103.515 84.8812C103.346 84.8812 103.176 84.8812 103.007 84.8812C102.899 84.8812 102.868 84.8812 102.868 84.989C102.868 85.0969 102.868 85.1277 103.13 85.1277H106.766C106.951 85.1277 107.044 85.0815 107.044 84.989C107.044 84.9274 106.982 84.8658 106.905 84.8812H106.134C105.626 84.8812 105.518 84.4343 105.472 83.9413C105.426 83.4482 105.379 81.8765 105.379 80.2432V79.8271C105.379 79.8271 105.379 79.6885 105.503 79.6885H107.598C107.675 79.6885 107.768 79.7193 107.814 79.7809C108.168 80.2278 108.97 81.3218 109.678 82.3079C110.279 83.2787 111.065 84.1416 111.99 84.8195C112.56 85.0815 113.176 85.2048 113.808 85.1431H115.025C115.333 85.1431 115.426 85.1431 115.426 85.0044C115.426 84.8658 115.426 84.8966 115.272 84.8966C115.056 84.912 114.825 84.912 114.609 84.8966C113.793 84.7425 113.053 84.3111 112.529 83.6639C111.543 82.6161 110.387 81.0907 108.985 79.3033C110.218 78.3479 110.973 76.9149 111.05 75.3587C111.019 74.4187 110.557 73.5404 109.802 72.9857C108.877 72.431 107.799 72.1691 106.72 72.2461H102.775C102.59 72.2461 102.498 72.2461 102.498 72.3848C102.498 72.5235 102.498 72.4772 102.637 72.4772C102.837 72.4464 103.022 72.4464 103.222 72.4772C103.777 72.5851 103.916 72.8625 103.946 73.448C103.977 74.0335 103.946 74.4649 103.946 77.1306L104.008 80.2432Z" fill="#211E1F"/>
<path d="M128.554 80.197C128.554 81.8304 128.554 83.1863 128.647 83.8951C128.739 84.6039 128.801 84.7734 129.309 84.835H130.08C130.08 84.835 130.187 84.8659 130.203 84.9275C130.203 84.9275 130.203 84.9275 130.203 84.9429C130.203 85.0354 130.203 85.0816 129.941 85.0816H126.166C125.981 85.0816 125.888 85.0816 125.888 84.9429C125.888 84.8813 125.95 84.8196 126.027 84.835C126.197 84.835 126.366 84.835 126.536 84.835C126.875 84.835 126.967 84.3882 127.029 83.8951C127.09 83.402 127.121 81.8304 127.121 80.197V73.5097C127.121 72.9088 126.905 72.6314 126.536 72.5544C126.366 72.5236 126.181 72.5236 126.012 72.5544C126.012 72.5544 125.873 72.5544 125.873 72.4619C125.873 72.3695 125.965 72.3232 126.15 72.3232H129.54C129.725 72.3232 129.818 72.3232 129.818 72.4619C129.818 72.6006 129.818 72.5544 129.679 72.5544C129.54 72.539 129.386 72.539 129.248 72.5544C128.785 72.5544 128.647 72.9242 128.616 73.5251C128.585 74.126 128.616 74.5421 128.616 77.2078L128.554 80.197Z" fill="#211E1F"/>
<path d="M154.209 84.8966C153.978 84.8966 153.747 84.8658 153.516 84.8042C153.162 84.6963 152.668 84.419 151.975 82.9089C150.927 80.3203 148.262 73.2631 148 72.616C147.738 71.9688 147.722 71.9996 147.63 71.9996C147.537 71.9996 147.46 72.1075 147.245 72.6622L143.377 83.2633C143.069 84.1262 142.73 84.8042 141.944 84.8042H141.451C141.359 84.8042 141.297 84.8042 141.297 84.912C141.297 85.0199 141.389 85.0507 141.62 85.0507H144.872C145.026 85.0507 145.134 85.0507 145.134 84.912C145.134 84.7734 145.134 84.8042 144.964 84.8042H144.795C144.502 84.8042 144.147 84.6655 144.147 84.3111C144.147 83.9259 144.24 83.5407 144.379 83.1709L145.01 81.291H149.71V81.3989L150.819 84.3265C150.912 84.6039 150.819 84.758 150.712 84.7888C150.604 84.8196 150.588 84.7888 150.588 84.912C150.588 85.0353 150.789 85.0199 151.112 85.0353H153.778C154.024 85.0353 154.132 85.0353 154.132 84.8966C154.132 84.758 154.302 84.8966 154.209 84.8966ZM145.796 79.3804L147.337 74.7578C147.43 74.4958 147.507 74.4958 147.599 74.7578L149.14 79.3804V79.4882H145.842C145.842 79.4882 145.75 79.4574 145.796 79.3804ZM149.618 80.6901H145.349L145.488 80.2741C145.503 80.197 145.58 80.1354 145.658 80.1354H149.325C149.325 80.1354 149.448 80.1816 149.479 80.2432L149.633 80.6747C149.633 80.6747 149.633 80.6747 149.633 80.6901H149.618Z" fill="#211E1F"/>
<path d="M40.6168 84.8966C40.3857 84.8966 40.1546 84.8658 39.9389 84.8042C39.5845 84.6963 39.0914 84.419 38.475 82.9089C37.4273 80.3203 34.7462 73.2631 34.4996 72.616C34.2531 71.9688 34.2223 71.9996 34.1144 71.9996C34.0065 71.9996 33.9449 72.1075 33.7446 72.6622L29.877 83.2633C29.5689 84.1262 29.2299 84.8042 28.444 84.8042H27.951C27.8585 84.8042 27.7969 84.8042 27.7969 84.912C27.7969 85.0199 27.8893 85.0507 28.1205 85.0507H31.3717C31.5258 85.0507 31.6336 85.0507 31.6336 84.912C31.6336 84.7734 31.6336 84.8042 31.4641 84.8042H31.2946C31.0019 84.8042 30.6475 84.6655 30.6475 84.3111C30.6475 83.9259 30.7399 83.5407 30.8786 83.1709L31.5104 81.3064H36.3024V81.3989L37.4273 84.3419C37.5197 84.6193 37.4273 84.7734 37.3194 84.8042C37.2115 84.835 37.1961 84.8042 37.1961 84.9275C37.1961 85.0507 37.381 85.0353 37.7046 85.0507H40.3857C40.6323 85.0507 40.7247 85.0507 40.7247 84.912C40.7247 84.7734 40.7247 84.8966 40.6168 84.8966ZM32.2037 79.3804L33.7446 74.7578C33.8216 74.4958 33.9141 74.4958 33.9911 74.7578L35.6245 79.3804C35.6245 79.3804 35.6245 79.4882 35.5474 79.4882H32.2654C32.2654 79.4882 32.1729 79.4574 32.2037 79.3804ZM36.0559 80.6901H31.7723L31.8956 80.2895C31.8956 80.2895 31.988 80.1508 32.0805 80.1508H35.7477C35.7477 80.1508 35.8556 80.1508 35.9018 80.2586L36.0559 80.6901Z" fill="#211E1F"/>
<path d="M156.305 72.6939C155.473 72.4935 154.98 71.6458 155.18 70.8289C155.319 70.2741 155.75 69.8425 156.305 69.7038C157.138 69.9041 157.631 70.7519 157.43 71.5687C157.292 72.1236 156.86 72.5552 156.305 72.6939ZM156.305 72.8634C157.23 72.8634 157.985 72.1236 158.001 71.1988C158.001 70.2741 157.261 69.5188 156.336 69.5034C155.411 69.488 154.656 70.2432 154.641 71.168C154.641 71.168 154.641 71.1834 154.641 71.1988C154.641 72.1082 155.38 72.848 156.29 72.8634H156.305ZM155.812 71.3221C155.812 71.4917 155.812 71.6766 155.812 71.8462C155.812 71.9541 155.812 71.9695 155.627 71.9695C155.442 71.9695 155.627 71.9695 155.627 71.9695H156.074C156.074 71.9695 156.074 71.9695 156.074 71.4917V71.2913H156.413L156.675 71.6612C156.752 71.7999 156.86 71.9232 156.999 72.0157C157.107 72.0465 157.199 72.0465 157.307 72.0157H157.415C157.307 72.0157 157.215 71.9541 157.153 71.8616C157.014 71.7075 156.845 71.4763 156.644 71.2297C156.829 71.0909 156.937 70.8906 156.953 70.6594C156.953 70.5207 156.891 70.4128 156.783 70.3203C156.629 70.2432 156.475 70.2124 156.305 70.2278H155.642C155.766 70.2278 155.827 70.2278 155.843 70.3511V71.3067H155.812V71.3221ZM156.043 70.3203H156.197C156.429 70.3203 156.629 70.5052 156.629 70.7519C156.629 70.7673 156.629 70.7827 156.629 70.7981C156.629 70.9368 156.583 71.0601 156.475 71.1526C156.413 71.168 156.367 71.168 156.305 71.1526C156.213 71.168 156.136 71.168 156.043 71.1526V70.3203Z" fill="#211E1F"/>
</g>
<defs>
<clipPath id="clip0_10825_60644">
<rect width="158" height="72.4822" fill="white" transform="translate(0 13)"/>
</clipPath>
</defs>
</svg>
