<svg width="158" height="99" viewBox="0 0 158 99" fill="none" xmlns="http://www.w3.org/2000/svg">
<path d="M49.9528 32.7633C49.9528 28.3936 49.3089 22 40.6614 22C31.554 22 30.4041 28.4856 30.4041 37.639C30.4041 46.7924 31.554 53.278 40.6614 53.278C48.6189 53.278 50.2288 47.6664 50.2288 41.1808H44.1572C44.1572 47.6664 42.5473 48.8163 40.3854 48.8163C37.7636 48.8163 36.5217 47.1604 36.5217 38.053C36.5217 29.5435 37.2576 26.4617 40.2934 26.4617C43.0533 26.4617 43.9272 28.3476 43.9272 32.7173H49.9528V32.7633ZM0 52.6801H5.56565V28.6696H5.65764L10.9933 52.6801H15.731L21.0667 28.6696H21.1587V52.6801H26.7243V22.644H17.7549L13.3852 43.8486H13.2932L9.01543 22.644H0V52.6801Z" fill="#ED1C2B"/>
<path d="M2.57584 71.6769C2.57584 71.8609 2.48384 72.0449 2.25386 72.1369C2.06987 72.2748 1.83988 72.3208 1.6099 72.3208C1.47191 72.3208 1.28792 72.2748 1.14993 72.1829C0.965939 72.0449 0.827947 71.8149 0.827947 71.4929C0.827947 71.1249 1.05793 70.7569 1.5639 70.481C1.79389 70.343 2.11587 70.205 2.52984 70.067V71.6769H2.57584ZM0 71.8609C0 72.1829 0.0919945 72.4128 0.32198 72.6428C0.551965 72.8268 0.78195 72.9648 1.05793 72.9648C1.33392 72.9648 1.6099 72.8728 1.93188 72.6888C2.11587 72.5968 2.34585 72.4128 2.57584 72.1829C2.57584 72.3668 2.62183 72.5508 2.75983 72.7348C2.85182 72.8728 3.03581 72.9648 3.26579 72.9648C3.44978 72.9648 3.63377 72.9188 3.86375 72.7808C4.00175 72.6888 4.09374 72.5968 4.23173 72.4588V72.1829C4.09374 72.2748 4.00175 72.3208 3.95575 72.3668C3.90975 72.4128 3.86376 72.4128 3.77176 72.4128C3.63377 72.4128 3.54178 72.3208 3.49578 72.1829C3.44978 72.0909 3.44978 71.9529 3.44978 71.7689V69.745C3.44978 69.285 3.40378 68.9631 3.26579 68.7331C3.03581 68.3191 2.57584 68.0891 1.93188 68.0891C1.37991 68.0891 0.965939 68.2271 0.643959 68.4571C0.367977 68.7331 0.229985 68.9631 0.229985 69.193C0.229985 69.331 0.275982 69.423 0.367976 69.515C0.459971 69.607 0.551965 69.653 0.735954 69.653C0.827948 69.653 0.919942 69.653 0.965939 69.607C1.10393 69.515 1.14993 69.423 1.14993 69.239C1.14993 69.193 1.14993 69.147 1.10393 69.0551C1.10393 68.9631 1.05793 68.8711 1.05793 68.8711C1.05793 68.7331 1.14993 68.5951 1.28792 68.5031C1.42591 68.4111 1.6099 68.3651 1.79389 68.3651C2.16186 68.3651 2.39185 68.4571 2.48384 68.6871C2.52984 68.8251 2.57584 69.0551 2.57584 69.377V69.791C1.6559 70.159 1.01194 70.389 0.735954 70.619C0.229986 70.9869 0 71.4009 0 71.8609Z" fill="black"/>
<path d="M6.90039 71.3089H7.08438C7.17637 71.6769 7.26837 71.9989 7.40636 72.1829C7.63634 72.5508 8.00432 72.7348 8.41829 72.7348C8.64828 72.7348 8.87826 72.6888 9.01626 72.5048C9.15425 72.3668 9.24624 72.1829 9.24624 71.9529C9.24624 71.8149 9.20024 71.6769 9.10825 71.5389C9.01626 71.4009 8.87827 71.2629 8.64828 71.1709L8.09631 70.8489C7.68234 70.619 7.36036 70.389 7.17637 70.159C6.99238 69.929 6.90039 69.653 6.90039 69.377C6.90039 69.0091 7.03838 68.6871 7.31437 68.4571C7.59035 68.2271 7.91233 68.0891 8.3263 68.0891C8.51029 68.0891 8.69428 68.1351 8.92426 68.1811C9.15425 68.2271 9.24624 68.2731 9.29224 68.2731C9.33824 68.2731 9.38423 68.2731 9.43023 68.2271C9.47623 68.2271 9.47623 68.1811 9.52223 68.1351H9.66022L9.70621 69.561H9.56822C9.52222 69.239 9.43023 68.9631 9.29224 68.7791C9.06225 68.4571 8.78627 68.2731 8.3723 68.2731C8.14231 68.2731 7.95832 68.3651 7.82033 68.5031C7.68234 68.6411 7.63634 68.8251 7.63634 69.0091C7.63634 69.331 7.86633 69.607 8.3263 69.837L8.97026 70.205C9.70621 70.573 10.0282 71.0329 10.0282 71.5849C10.0282 71.9989 9.8902 72.3208 9.56822 72.5508C9.29224 72.7808 8.87827 72.9188 8.41829 72.9188C8.23431 72.9188 8.00432 72.8728 7.72834 72.8268C7.45236 72.7808 7.31436 72.7348 7.26837 72.7348C7.22237 72.7348 7.17637 72.7348 7.17637 72.7808C7.13038 72.8268 7.13038 72.8268 7.08438 72.8728H6.94639V71.3089H6.90039Z" fill="black"/>
<path d="M11.4984 68.2271V71.4468C11.4984 71.6768 11.5444 71.8608 11.5904 71.9988C11.7284 72.2748 11.9583 72.3668 12.2803 72.3668C12.5103 72.3668 12.7403 72.2748 12.9703 72.1368C13.1083 72.0448 13.2003 71.9528 13.3383 71.7688V69.009C13.3383 68.733 13.2923 68.595 13.2003 68.503C13.1083 68.411 12.8783 68.365 12.6023 68.365V68.2271H14.2122V71.7688C14.2122 71.9988 14.2582 72.1368 14.3502 72.2288C14.4422 72.3208 14.6262 72.3668 14.8562 72.3208V72.4588C14.6722 72.5048 14.5342 72.5508 14.4422 72.5968C14.3502 72.6428 14.2122 72.6888 14.0282 72.7348C13.9362 72.7808 13.7522 72.8268 13.4762 72.9648H13.4303V72.9188V72.0908C13.2003 72.3668 13.0163 72.5508 12.7863 72.6888C12.5103 72.8728 12.1883 73.0107 11.8663 73.0107C11.5904 73.0107 11.3144 72.9188 11.0384 72.6888C10.7624 72.5048 10.6244 72.1368 10.6244 71.6768V69.055C10.6244 68.779 10.5784 68.595 10.4404 68.503C10.3484 68.457 10.2105 68.411 9.98047 68.365V68.2271H11.4984Z" fill="black"/>
<path d="M16.1907 72.1368V69.607C16.1907 69.377 16.2827 69.193 16.5126 69.055C16.7426 68.917 16.9726 68.825 17.2026 68.825C17.6626 68.825 18.0305 69.055 18.2145 69.469C18.4445 69.883 18.5365 70.3429 18.5365 70.8489C18.5365 71.3549 18.4445 71.7689 18.2145 72.1368C17.9845 72.5048 17.6626 72.6428 17.2026 72.6428C17.0186 72.6428 16.8346 72.5968 16.6046 72.5508C16.3286 72.4128 16.2367 72.3208 16.1907 72.1368ZM14.8567 66.4332C15.0407 66.4332 15.1787 66.4792 15.2247 66.5712C15.2707 66.6632 15.3167 66.8012 15.3167 66.9852V72.3208C15.3167 72.4588 15.5007 72.5968 15.8687 72.7808C16.2367 72.9188 16.6046 73.0108 16.9726 73.0108C17.7086 73.0108 18.3065 72.7808 18.7665 72.2748C19.2265 71.7689 19.4564 71.1709 19.4564 70.4349C19.4564 69.791 19.2725 69.239 18.9505 68.825C18.5825 68.4111 18.1685 68.1811 17.7086 68.1811C17.2946 68.1811 16.9726 68.3191 16.6506 68.5491C16.4666 68.687 16.3286 68.825 16.2827 69.009V65.9272V65.8812C16.2367 65.8812 16.0987 65.9272 15.7767 66.0192C15.4547 66.1112 15.1327 66.2032 14.7188 66.2952V66.4792L14.8567 66.4332Z" fill="black"/>
<path d="M19.8242 71.3089H20.0082C20.1002 71.6769 20.1922 71.9989 20.3302 72.1829C20.5602 72.5508 20.9282 72.7348 21.3421 72.7348C21.5721 72.7348 21.8021 72.6888 21.9401 72.5048C22.0781 72.3668 22.1701 72.1829 22.1701 71.9529C22.1701 71.8149 22.1241 71.6769 22.0321 71.5389C21.9401 71.4009 21.8021 71.2629 21.5721 71.1709L21.0201 70.8489C20.6062 70.619 20.2842 70.389 20.1002 70.159C19.9162 69.929 19.8242 69.653 19.8242 69.377C19.8242 69.0091 19.9622 68.6871 20.2382 68.4571C20.5142 68.2271 20.8362 68.0891 21.2501 68.0891C21.4341 68.0891 21.6181 68.1351 21.8481 68.1811C22.0781 68.2271 22.1701 68.2731 22.2161 68.2731C22.2621 68.2731 22.3081 68.2731 22.3541 68.2271C22.4001 68.2271 22.4001 68.1811 22.4461 68.1351H22.584L22.63 69.561H22.4921C22.4461 69.239 22.3541 68.9631 22.2161 68.7791C21.9861 68.4571 21.7101 68.2731 21.2961 68.2731C21.0661 68.2731 20.8822 68.3651 20.7442 68.5031C20.6062 68.6411 20.5602 68.8251 20.5602 69.0091C20.5602 69.331 20.7902 69.607 21.2501 69.837L21.8941 70.205C22.63 70.573 22.952 71.0329 22.952 71.5849C22.952 71.9989 22.814 72.3208 22.4921 72.5508C22.2161 72.7808 21.8021 72.9188 21.3421 72.9188C21.1581 72.9188 20.9282 72.8728 20.6522 72.8268C20.3762 72.7808 20.2382 72.7348 20.1922 72.7348C20.1462 72.7348 20.1002 72.7348 20.1002 72.7808C20.0542 72.8268 20.0542 72.8268 20.0082 72.8728H19.8702V71.3089H19.8242Z" fill="black"/>
<path d="M23.826 65.9732C23.918 65.8812 24.056 65.8352 24.194 65.8352C24.332 65.8352 24.47 65.8812 24.5619 65.9732C24.6539 66.0652 24.6999 66.2032 24.6999 66.3412C24.6999 66.4792 24.6539 66.6172 24.5619 66.7091C24.47 66.8011 24.332 66.8471 24.194 66.8471C24.056 66.8471 23.918 66.8011 23.826 66.7091C23.734 66.6172 23.688 66.4792 23.688 66.3412C23.688 66.2032 23.688 66.1112 23.826 65.9732ZM22.998 72.7348C23.366 72.6888 23.596 72.6428 23.688 72.5508C23.78 72.4588 23.826 72.2288 23.826 71.8148V69.423C23.826 69.193 23.826 69.055 23.78 68.963C23.734 68.825 23.642 68.779 23.458 68.779C23.412 68.779 23.366 68.779 23.366 68.779C23.32 68.779 23.228 68.825 23.044 68.871V68.687L23.274 68.595C23.872 68.411 24.286 68.2731 24.516 68.1811C24.6079 68.1351 24.6539 68.1351 24.6999 68.1351C24.6999 68.1811 24.6999 68.1811 24.6999 68.2271V71.8148C24.6999 72.1828 24.7459 72.4128 24.8379 72.5508C24.9299 72.6428 25.1599 72.6888 25.4819 72.7348V72.8728H23.044V72.7348H22.998Z" fill="black"/>
<path d="M27.7356 72.4128C27.2296 72.4128 26.8617 72.1829 26.6317 71.7689C26.4017 71.3549 26.2637 70.8489 26.2637 70.343C26.2637 69.791 26.4017 69.331 26.6317 68.9631C26.8617 68.5951 27.1836 68.4111 27.5976 68.4111C27.8276 68.4111 28.0576 68.5031 28.2876 68.6871C28.5175 68.8711 28.6555 69.193 28.6555 69.607V71.7689C28.6555 71.9069 28.5635 72.0449 28.4256 72.2289C28.1956 72.3208 28.0116 72.4128 27.7356 72.4128ZM27.5516 68.0891C26.9536 68.0891 26.4017 68.3651 25.9877 68.8711C25.5737 69.377 25.3438 70.021 25.3438 70.7569C25.3438 71.3549 25.5277 71.8609 25.8957 72.2749C26.2637 72.7348 26.7237 72.9188 27.2756 72.9188C27.5976 72.9188 27.8736 72.8268 28.1036 72.6888C28.2416 72.5968 28.4256 72.4588 28.6095 72.2289V72.8268L28.6555 72.8728L29.4375 72.5968C29.8975 72.4588 30.1274 72.3668 30.1734 72.3668V72.1829C30.1274 72.1829 30.0815 72.1829 30.0815 72.1829C30.0355 72.1829 29.9895 72.1829 29.9895 72.1829C29.7595 72.1829 29.6215 72.1369 29.5755 72.0449C29.5295 71.9529 29.4835 71.8149 29.4835 71.5849V67.4452C29.4835 67.2612 29.4835 67.0312 29.4835 66.8472C29.4835 66.6632 29.4835 66.4332 29.4835 66.2492V65.6973H29.4375C29.2995 65.7433 29.2075 65.7893 29.1615 65.7893C29.0695 65.8353 28.9315 65.8813 28.7475 65.9273C28.6095 65.9732 28.4256 66.0192 28.2876 66.0652L27.8736 66.1572V66.3412C27.9656 66.3412 28.0576 66.3412 28.0576 66.3412C28.1036 66.3412 28.1036 66.3412 28.1496 66.3412C28.3336 66.3412 28.4256 66.3872 28.4716 66.4792C28.5176 66.5712 28.5175 66.7092 28.5175 66.8932V68.5031C28.3796 68.3651 28.2416 68.2731 28.1496 68.2271C28.0116 68.1811 27.7816 68.0891 27.5516 68.0891Z" fill="black"/>
<path d="M31.0944 65.9732C31.1864 65.8812 31.3244 65.8352 31.4624 65.8352C31.6004 65.8352 31.7384 65.8812 31.8304 65.9732C31.9224 66.0652 31.9684 66.2032 31.9684 66.3412C31.9684 66.4792 31.9224 66.6172 31.8304 66.7091C31.7384 66.8011 31.6004 66.8471 31.4624 66.8471C31.3244 66.8471 31.1864 66.8011 31.0944 66.7091C31.0025 66.6172 30.9565 66.4792 30.9565 66.3412C30.9565 66.2032 31.0025 66.1112 31.0944 65.9732ZM30.3125 72.7348C30.6805 72.6888 30.9105 72.6428 31.0025 72.5508C31.0945 72.4588 31.1404 72.2288 31.1404 71.8148V69.423C31.1404 69.193 31.1404 69.055 31.0944 68.963C31.0485 68.825 30.9565 68.779 30.7725 68.779C30.7265 68.779 30.6805 68.779 30.6805 68.779C30.6345 68.779 30.5425 68.825 30.3585 68.871V68.687L30.5885 68.595C31.1864 68.411 31.6004 68.2731 31.8304 68.1811C31.9224 68.1351 31.9684 68.1351 32.0144 68.1351C32.0144 68.1811 32.0144 68.1811 32.0144 68.2271V71.8148C32.0144 72.1828 32.0604 72.4128 32.1524 72.5508C32.2444 72.6428 32.4744 72.6888 32.7963 72.7348V72.8728H30.3585V72.7348H30.3125Z" fill="black"/>
<path d="M35.5094 71.6769C35.5094 71.8609 35.4174 72.0449 35.1875 72.1369C35.0035 72.2748 34.7735 72.3208 34.5435 72.3208C34.3595 72.3208 34.2215 72.2748 34.0835 72.1829C33.8995 72.0449 33.7615 71.8149 33.7615 71.4929C33.7615 71.1249 33.9915 70.7569 34.4975 70.481C34.7275 70.343 35.0495 70.205 35.4634 70.067V71.6769H35.5094ZM32.9336 71.8609C32.9336 72.1829 33.0256 72.4128 33.2556 72.6428C33.4856 72.8268 33.7155 72.9648 33.9915 72.9648C34.2675 72.9648 34.5435 72.8728 34.8655 72.6888C35.0495 72.5968 35.2794 72.4128 35.5094 72.1829C35.5094 72.3668 35.5554 72.5508 35.6934 72.7348C35.7854 72.8728 35.9694 72.9648 36.1994 72.9648C36.3834 72.9648 36.5674 72.9188 36.7973 72.7808C36.9353 72.6888 37.0273 72.5968 37.1653 72.4588V72.1829C37.0273 72.2748 36.9353 72.3208 36.8893 72.3668C36.8433 72.4128 36.7974 72.4128 36.7054 72.4128C36.5674 72.4128 36.4754 72.3208 36.4294 72.1829C36.3834 72.0909 36.3834 71.9529 36.3834 71.7689V69.745C36.3834 69.285 36.3374 68.9631 36.1994 68.7331C35.9694 68.3191 35.5094 68.0891 34.8655 68.0891C34.3135 68.0891 33.8995 68.2271 33.5776 68.4571C33.3016 68.7331 33.1636 68.9631 33.1636 69.193C33.1636 69.331 33.2096 69.423 33.3016 69.515C33.3936 69.607 33.4856 69.653 33.6695 69.653C33.7615 69.653 33.8535 69.653 33.8995 69.607C34.0375 69.515 34.0835 69.423 34.0835 69.239C34.0835 69.193 34.0835 69.147 34.0375 69.0551C34.0375 68.9631 33.9915 68.8711 33.9915 68.8711C33.9915 68.7331 34.0835 68.5951 34.2215 68.5031C34.3595 68.4111 34.5435 68.3651 34.7275 68.3651C35.0955 68.3651 35.3254 68.4571 35.4174 68.6871C35.4634 68.8251 35.5094 69.0551 35.5094 69.377V69.791C34.5895 70.159 33.9455 70.389 33.6695 70.619C33.1636 70.9869 32.9336 71.4009 32.9336 71.8609Z" fill="black"/>
<path d="M37.166 72.6888C37.488 72.6428 37.672 72.5968 37.764 72.5509C37.856 72.4589 37.902 72.2749 37.902 72.0449V69.745C37.902 69.4231 37.856 69.1931 37.81 69.0551C37.764 68.9171 37.626 68.8251 37.488 68.8251C37.442 68.8251 37.396 68.8251 37.35 68.8251C37.304 68.8251 37.258 68.8251 37.166 68.8711V68.6871C37.35 68.6411 37.534 68.5491 37.764 68.5031C37.948 68.4111 38.086 68.3651 38.178 68.3651C38.3619 68.3191 38.4999 68.2271 38.6839 68.1351C38.7299 68.1351 38.7299 68.1351 38.7299 68.1811C38.7299 68.1811 38.7299 68.2271 38.7299 68.2731V69.1011C38.9599 68.7791 39.1439 68.5491 39.3739 68.4111C39.5579 68.2271 39.7878 68.1811 40.0178 68.1811C40.2018 68.1811 40.3398 68.2271 40.4318 68.3191C40.5238 68.4111 40.6158 68.5491 40.6158 68.6871C40.6158 68.8251 40.5698 68.9171 40.4778 69.0551C40.3858 69.1471 40.2938 69.1931 40.1558 69.1931C40.0178 69.1931 39.8798 69.1471 39.7878 69.0091C39.6499 68.8711 39.5579 68.8251 39.4659 68.8251C39.3279 68.8251 39.1899 68.9171 39.0519 69.1011C38.8679 69.2851 38.7759 69.469 38.7759 69.699V71.9529C38.7759 72.2289 38.8219 72.4589 38.9599 72.5509C39.0979 72.6428 39.3279 72.7348 39.6499 72.6888V72.8728H37.166V72.6888Z" fill="black"/>
<path d="M40.6152 68.2271H42.7311V68.365C42.5471 68.365 42.4551 68.365 42.3631 68.411C42.2251 68.457 42.1331 68.549 42.1331 68.687C42.1331 68.733 42.1331 68.779 42.1791 68.825C42.1791 68.871 42.2251 68.963 42.2711 69.055L43.4211 71.5848L44.387 69.055C44.387 69.009 44.433 68.963 44.433 68.871C44.433 68.779 44.479 68.687 44.479 68.687C44.479 68.595 44.433 68.549 44.387 68.503C44.341 68.457 44.249 68.457 44.157 68.411H44.019V68.2271H45.3989V68.365C45.2609 68.365 45.1689 68.411 45.077 68.503C45.031 68.595 44.939 68.687 44.893 68.825L43.3291 73.0107C43.0531 73.7467 42.7771 74.2527 42.5471 74.5747C42.3171 74.8966 41.9951 75.0806 41.5812 75.0806C41.3972 75.0806 41.2132 75.0346 41.0752 74.9426C40.8912 74.8506 40.8452 74.7126 40.8452 74.4827C40.8452 74.3447 40.8912 74.2527 40.9832 74.1607C41.0752 74.0687 41.2132 74.0227 41.3512 74.0227C41.4432 74.0227 41.5812 74.0687 41.7192 74.1147C41.9031 74.1607 41.9951 74.2067 42.0871 74.2067C42.2711 74.2067 42.4551 73.9767 42.6851 73.5167C42.8691 73.0567 43.0071 72.7348 43.0071 72.5968C43.0071 72.5508 43.0071 72.5508 43.0071 72.5048C43.0071 72.4588 43.0071 72.4128 42.9611 72.4128L41.3972 68.963C41.3052 68.733 41.1672 68.549 41.0752 68.457C40.9832 68.365 40.8452 68.319 40.7072 68.319V68.2271H40.6152Z" fill="black"/>
<path d="M49.5846 68.4571C50.0906 68.4571 50.4586 68.7331 50.6885 69.2391C50.9645 69.745 51.0565 70.297 51.0565 70.895C51.0565 71.4469 50.9645 71.9069 50.7345 72.2749C50.5506 72.6428 50.2286 72.7808 49.8606 72.7808C49.4006 72.7808 48.9867 72.5049 48.7567 71.9989C48.4807 71.4929 48.3427 70.941 48.3427 70.343C48.3427 69.607 48.5267 69.0551 48.8487 68.7791C49.1246 68.5491 49.3086 68.4571 49.5846 68.4571ZM47.4688 70.527C47.4688 71.2629 47.6987 71.8149 48.1587 72.3209C48.6187 72.7808 49.1706 73.0108 49.8146 73.0108C50.5046 73.0108 51.0105 72.7808 51.4705 72.2749C51.8845 71.7689 52.1145 71.2169 52.1145 70.527C52.1145 69.791 51.8845 69.2391 51.4705 68.7791C51.0565 68.3651 50.5046 68.1351 49.8146 68.1351C49.1246 68.1351 48.6187 68.3651 48.1587 68.8251C47.6987 69.2851 47.4688 69.883 47.4688 70.527Z" fill="black"/>
<path d="M51.8379 72.7348C52.2059 72.7348 52.4359 72.6428 52.5278 72.5508C52.6198 72.4128 52.7118 72.1828 52.7118 71.8148V68.595H51.8379V68.2271H52.7118C52.7118 67.6751 52.8038 67.2611 52.9418 66.8931C53.2178 66.2032 53.7238 65.8352 54.4597 65.8352C54.7357 65.8352 55.0117 65.8812 55.2417 66.0192C55.4717 66.1572 55.6097 66.2952 55.6097 66.4792C55.6097 66.5712 55.5637 66.7091 55.4717 66.7551C55.3797 66.8471 55.2877 66.8931 55.1957 66.8931C55.1037 66.8931 55.0117 66.8471 54.9657 66.8011C54.8737 66.7551 54.8277 66.6172 54.7357 66.4792L54.6437 66.3412C54.5977 66.2492 54.5517 66.2032 54.4597 66.1572C54.4137 66.1112 54.3217 66.0652 54.1837 66.0652C53.9078 66.0652 53.7698 66.2032 53.6778 66.4332C53.6318 66.5712 53.5858 66.7551 53.5858 66.9851V68.1811H54.8277V68.549H53.5858V71.7688C53.5858 72.1368 53.6318 72.4128 53.7238 72.5048C53.8158 72.5968 54.0918 72.6888 54.5517 72.6888V72.8268H51.8379V72.7348Z" fill="black"/>
<path d="M59.3809 69.5609H63.0607L61.2208 72.7807L57.541 72.7347L59.3809 69.5609Z" fill="#ED1C2B"/>
<path d="M63.0605 69.5609H66.7863L68.6262 72.7807H64.9464L63.0605 69.5609Z" fill="#ED1C2B"/>
<path d="M63.1066 63.1213L64.9465 66.3411L63.0606 69.5609L61.2207 66.3411L63.1066 63.1213Z" fill="#ED1C2B"/>
<path d="M70.4668 72.6889C70.8808 72.6429 71.1568 72.5509 71.2947 72.4129C71.4327 72.2749 71.4787 71.9069 71.4787 71.355V67.1692C71.4787 66.8013 71.4327 66.5713 71.2947 66.4333C71.1568 66.3413 70.9268 66.2493 70.5128 66.2493V66.0653H72.5367L74.9285 71.217L77.2284 66.0653H79.2982V66.2493C78.9303 66.2953 78.6543 66.3413 78.5623 66.4793C78.4703 66.5713 78.3783 66.8473 78.3783 67.2152V71.8149C78.3783 72.1829 78.4243 72.4129 78.5623 72.5509C78.6543 72.6429 78.9303 72.7349 79.2982 72.7809V72.9649H76.4004V72.7809C76.8144 72.7349 77.0904 72.6889 77.1824 72.5509C77.2744 72.4129 77.3204 72.1369 77.3204 71.7229V67.0772L74.6985 72.9649H74.5605L71.9387 67.3532V71.447C71.9387 71.9989 72.0307 72.3669 72.1687 72.5509C72.2607 72.6429 72.5367 72.7349 72.9046 72.7809V72.9649H70.4668V72.6889Z" fill="black"/>
<path d="M79.9881 66.0193C80.0801 65.9273 80.2181 65.8813 80.3561 65.8813C80.4941 65.8813 80.6321 65.9273 80.7241 66.0193C80.816 66.1113 80.862 66.2493 80.862 66.3873C80.862 66.5253 80.816 66.6633 80.7241 66.7553C80.6321 66.8473 80.4941 66.8933 80.3561 66.8933C80.2181 66.8933 80.0801 66.8473 79.9881 66.7553C79.8961 66.6633 79.8501 66.5253 79.8501 66.3873C79.8501 66.2033 79.8961 66.1113 79.9881 66.0193ZM79.1602 72.6889C79.5281 72.6429 79.7581 72.5969 79.8501 72.5049C79.9421 72.4129 79.9881 72.1829 79.9881 71.769V69.4231C79.9881 69.1931 79.9881 69.0551 79.9421 68.9632C79.8961 68.8252 79.8041 68.7792 79.6201 68.7792C79.5741 68.7792 79.5281 68.7792 79.5281 68.7792C79.4821 68.7792 79.3901 68.8252 79.2061 68.8712V68.7332L79.4361 68.6412C80.0341 68.4572 80.4481 68.3192 80.6781 68.2272C80.77 68.1812 80.8161 68.1812 80.862 68.1812C80.862 68.2272 80.862 68.2272 80.862 68.2732V71.861C80.862 72.2289 80.908 72.5049 81 72.5969C81.092 72.6889 81.322 72.7349 81.644 72.7809V72.9189H79.2061V72.6889H79.1602Z" fill="black"/>
<path d="M83.9906 68.2271V68.5951H82.9786V71.4929C82.9786 71.7689 82.9786 71.9529 83.0246 72.0909C83.1166 72.3209 83.2546 72.4589 83.4846 72.4589C83.6226 72.4589 83.7146 72.4129 83.8066 72.3669C83.8986 72.3209 83.9906 72.2289 84.1286 72.0909L84.2666 72.1829L84.1746 72.3209C83.9906 72.5509 83.8066 72.7348 83.6226 72.8268C83.4386 72.9188 83.2546 72.9648 83.0706 72.9648C82.6567 72.9648 82.4267 72.7808 82.2887 72.4589C82.1967 72.2749 82.1507 71.9989 82.1507 71.6769V68.6411H81.5987C81.5987 68.6411 81.5527 68.6411 81.5527 68.5951V68.5491C81.5527 68.5031 81.5527 68.5031 81.5527 68.4571C81.5527 68.4571 81.5987 68.4111 81.6907 68.3191C81.9207 68.1351 82.1047 67.9511 82.1967 67.8592C82.2887 67.7212 82.5187 67.4452 82.9326 66.9392C82.9786 66.9392 83.0246 66.9392 83.0246 66.9392C83.0246 66.9392 83.0246 66.9852 83.0246 67.0312V68.2731H83.9906V68.2271Z" fill="black"/>
<path d="M84.541 71.309H84.725C84.817 71.677 84.909 71.999 85.047 72.183C85.277 72.551 85.6449 72.7349 86.0589 72.7349C86.2889 72.7349 86.5189 72.6429 86.6569 72.505C86.7949 72.367 86.8869 72.183 86.8869 71.953C86.8869 71.815 86.8409 71.677 86.7489 71.539C86.6569 71.401 86.5189 71.263 86.2889 71.171L85.7369 70.8491C85.323 70.6191 85.001 70.3891 84.817 70.1591C84.633 69.9291 84.541 69.6531 84.541 69.3772C84.541 69.0092 84.679 68.6872 84.955 68.4572C85.231 68.2272 85.5529 68.0892 85.9669 68.0892C86.1509 68.0892 86.3349 68.1352 86.5649 68.1812C86.7949 68.2272 86.8869 68.2732 86.9329 68.2732C86.9789 68.2732 87.0249 68.2732 87.0709 68.2272C87.1169 68.2272 87.1169 68.1812 87.1628 68.1352H87.3008L87.3468 69.5611H87.2088C87.1629 69.2392 87.0709 68.9632 86.9329 68.7792C86.7029 68.4572 86.4269 68.2732 86.0129 68.2732C85.7829 68.2732 85.5989 68.3652 85.461 68.5032C85.323 68.6412 85.277 68.8252 85.277 69.0092C85.277 69.3312 85.507 69.6071 85.9669 69.8371L86.6109 70.2051C87.3468 70.5731 87.6688 71.033 87.6688 71.585C87.6688 71.999 87.5308 72.321 87.2088 72.551C86.9329 72.7809 86.5189 72.9189 86.0589 72.9189C85.8749 72.9189 85.6449 72.8729 85.369 72.8269C85.093 72.7809 84.955 72.7349 84.909 72.7349C84.863 72.7349 84.817 72.7349 84.817 72.7809C84.771 72.8269 84.771 72.8269 84.725 72.8729H84.587V71.309H84.541Z" fill="black"/>
<path d="M89.1429 68.2272V71.447C89.1429 71.677 89.1889 71.8609 89.2349 71.9989C89.3729 72.2749 89.6029 72.3669 89.9249 72.3669C90.1548 72.3669 90.3848 72.2749 90.6148 72.1369C90.7528 72.0449 90.8448 71.9529 90.9828 71.7689V69.0091C90.9828 68.7331 90.9368 68.5951 90.8448 68.5032C90.7528 68.4112 90.5228 68.3652 90.2468 68.3652V68.2272H91.8567V71.7689C91.8567 71.9989 91.9027 72.1369 91.9947 72.2289C92.0867 72.3209 92.2707 72.3669 92.5007 72.3209V72.4589C92.3167 72.5049 92.1787 72.5509 92.0867 72.5509C91.9947 72.5969 91.8567 72.6429 91.6727 72.6889C91.5808 72.7349 91.3968 72.7809 91.1208 72.9189C91.1208 72.9189 91.0748 72.9189 91.0748 72.8729V72.8269V71.9989C90.8448 72.2749 90.6608 72.4589 90.4308 72.5969C90.1548 72.7809 89.8329 72.9189 89.5109 72.9189C89.2349 72.9189 88.9589 72.8269 88.6829 72.5969C88.407 72.4129 88.269 72.0449 88.269 71.585V68.9631C88.269 68.6871 88.223 68.5032 88.085 68.4112C87.993 68.3652 87.855 68.3192 87.625 68.2732V68.2272H89.1429Z" fill="black"/>
<path d="M93.8332 72.137V69.6071C93.8332 69.3771 93.9252 69.1931 94.1552 69.0551C94.3852 68.9172 94.6152 68.8252 94.8452 68.8252C95.3051 68.8252 95.6731 69.0551 95.8571 69.4691C96.0871 69.8831 96.1791 70.3431 96.1791 70.849C96.1791 71.355 96.0871 71.769 95.8571 72.137C95.6271 72.5049 95.3051 72.6429 94.8452 72.6429C94.6612 72.6429 94.4772 72.5969 94.2472 72.5509C94.0172 72.5049 93.8792 72.3209 93.8332 72.137ZM92.5453 66.4333C92.7293 66.4333 92.8673 66.4793 92.9133 66.5713C92.9593 66.6633 93.0053 66.8013 93.0053 66.9853V72.3209C93.0053 72.4589 93.1893 72.5969 93.5572 72.7809C93.9252 72.9189 94.2932 73.0109 94.6612 73.0109C95.3971 73.0109 95.9951 72.7809 96.4551 72.2749C96.915 71.769 97.145 71.171 97.145 70.4351C97.145 69.7911 96.961 69.2391 96.6391 68.8252C96.2711 68.4112 95.8571 68.1812 95.3971 68.1812C94.9832 68.1812 94.6612 68.3192 94.3392 68.5492C94.1552 68.6872 94.0172 68.8252 93.9252 69.0091V65.9273V65.8813C93.8792 65.8813 93.7412 65.9273 93.4193 66.0193C93.0973 66.1113 92.7753 66.2033 92.3613 66.2953V66.4793L92.5453 66.4333Z" fill="black"/>
<path d="M97.744 66.0193C97.836 65.9273 97.974 65.8813 98.1119 65.8813C98.2499 65.8813 98.3879 65.9273 98.4799 66.0193C98.5719 66.1113 98.6179 66.2493 98.6179 66.3873C98.6179 66.5253 98.5719 66.6633 98.4799 66.7553C98.3879 66.8473 98.2499 66.8933 98.1119 66.8933C97.974 66.8933 97.836 66.8473 97.744 66.7553C97.652 66.6633 97.606 66.5253 97.606 66.3873C97.606 66.2033 97.652 66.1113 97.744 66.0193ZM96.916 72.7349C97.284 72.6889 97.514 72.6429 97.606 72.5509C97.698 72.4589 97.744 72.2289 97.744 71.815V69.4231C97.744 69.1931 97.744 69.0551 97.698 68.9632C97.652 68.8252 97.56 68.7792 97.376 68.7792C97.33 68.7792 97.284 68.7792 97.284 68.7792C97.238 68.7792 97.146 68.8252 96.962 68.8712V68.7332L97.192 68.6412C97.79 68.4572 98.2039 68.3192 98.4339 68.2272C98.5259 68.1812 98.5719 68.1812 98.6179 68.1812C98.6179 68.2272 98.6179 68.2272 98.6179 68.2732V71.861C98.6179 72.2289 98.6639 72.5049 98.7559 72.5969C98.8479 72.6889 99.0779 72.7349 99.3999 72.7809V72.9189H96.962V72.7349H96.916Z" fill="black"/>
<path d="M99.7207 71.309H99.9047C99.9967 71.677 100.089 71.999 100.227 72.183C100.457 72.551 100.825 72.7349 101.239 72.7349C101.469 72.7349 101.699 72.6429 101.837 72.505C101.975 72.367 102.067 72.183 102.067 71.953C102.067 71.815 102.021 71.677 101.929 71.539C101.837 71.401 101.699 71.263 101.469 71.171L100.917 70.8491C100.503 70.6191 100.181 70.3891 99.9967 70.1591C99.8127 69.9291 99.7207 69.6531 99.7207 69.3772C99.7207 69.0092 99.8587 68.6872 100.135 68.4572C100.411 68.2272 100.733 68.0892 101.147 68.0892C101.331 68.0892 101.515 68.1352 101.745 68.1812C101.975 68.2272 102.067 68.2732 102.113 68.2732C102.159 68.2732 102.205 68.2732 102.251 68.2272C102.297 68.2272 102.297 68.1812 102.343 68.1352H102.481L102.527 69.5611H102.389C102.343 69.2392 102.251 68.9632 102.113 68.7792C101.883 68.4572 101.607 68.2732 101.193 68.2732C100.963 68.2732 100.779 68.3652 100.641 68.5032C100.503 68.6412 100.457 68.8252 100.457 69.0092C100.457 69.3312 100.687 69.6071 101.147 69.8371L101.791 70.2051C102.527 70.5731 102.849 71.033 102.849 71.585C102.849 71.999 102.711 72.321 102.389 72.551C102.113 72.7809 101.699 72.9189 101.239 72.9189C101.055 72.9189 100.825 72.8729 100.549 72.8269C100.273 72.7809 100.135 72.7349 100.089 72.7349C100.043 72.7349 99.9967 72.7349 99.9967 72.7809C99.9507 72.8269 99.9507 72.8269 99.9047 72.8729H99.7667V71.309H99.7207Z" fill="black"/>
<path d="M102.85 72.7349C103.126 72.6889 103.31 72.6429 103.402 72.5509C103.494 72.4589 103.54 72.2289 103.54 71.8609V67.0313C103.54 66.8473 103.494 66.7093 103.448 66.6173C103.402 66.5253 103.264 66.4793 103.08 66.4793C103.034 66.4793 102.988 66.4793 102.988 66.4793C102.942 66.4793 102.896 66.4793 102.85 66.4793V66.2953C102.988 66.2493 103.172 66.2033 103.402 66.1113C103.632 66.0653 103.77 66.0193 103.862 65.9733L104.368 65.8353V65.8813V68.9631C104.597 68.7331 104.781 68.5492 104.919 68.4572C105.195 68.2732 105.517 68.1352 105.885 68.1352C106.437 68.1352 106.805 68.3652 106.989 68.8251C107.081 69.0551 107.127 69.3771 107.127 69.7911V71.8609C107.127 72.2289 107.173 72.4589 107.265 72.5509C107.357 72.6429 107.495 72.7349 107.771 72.7809V72.9189H105.563V72.7809C105.839 72.7349 106.023 72.6889 106.115 72.5509C106.207 72.4589 106.253 72.2289 106.253 71.8609V69.8371C106.253 69.5151 106.207 69.2391 106.069 69.0551C105.977 68.8711 105.747 68.7331 105.471 68.7331C105.195 68.7331 104.965 68.8251 104.735 69.0091C104.506 69.1931 104.368 69.3311 104.368 69.3771V71.8609C104.368 72.2289 104.414 72.4589 104.506 72.5509C104.597 72.6429 104.781 72.7349 105.057 72.7349V72.8729H102.85V72.7349Z" fill="black"/>
<path d="M108.737 66.0193C108.829 65.9273 108.967 65.8813 109.105 65.8813C109.243 65.8813 109.381 65.9273 109.473 66.0193C109.565 66.1113 109.611 66.2493 109.611 66.3873C109.611 66.5253 109.565 66.6633 109.473 66.7553C109.381 66.8473 109.243 66.8933 109.105 66.8933C108.967 66.8933 108.829 66.8473 108.737 66.7553C108.645 66.6633 108.599 66.5253 108.599 66.3873C108.599 66.2033 108.645 66.1113 108.737 66.0193ZM107.955 72.7349C108.323 72.6889 108.553 72.6429 108.645 72.5509C108.737 72.4589 108.783 72.2289 108.783 71.815V69.4231C108.783 69.1931 108.783 69.0551 108.737 68.9632C108.691 68.8252 108.599 68.7792 108.415 68.7792C108.369 68.7792 108.323 68.7792 108.323 68.7792C108.277 68.7792 108.185 68.8252 108.001 68.8712V68.7332L108.231 68.6412C108.829 68.4572 109.243 68.3192 109.473 68.2272C109.565 68.1812 109.611 68.1812 109.657 68.1812C109.657 68.2272 109.657 68.2272 109.657 68.2732V71.861C109.657 72.2289 109.703 72.5049 109.795 72.5969C109.887 72.6889 110.117 72.7349 110.439 72.7809V72.9189H108.001V72.7349H107.955Z" fill="black"/>
<path d="M117.201 66.1114C117.615 66.2034 117.799 66.2954 117.845 66.2954C117.937 66.2954 118.029 66.2494 118.121 66.2034C118.213 66.1574 118.259 66.0654 118.305 65.9734H118.535L118.626 68.2732H118.397C118.259 67.8133 118.075 67.4453 117.845 67.1693C117.431 66.6173 116.833 66.3874 116.143 66.3874C115.407 66.3874 114.809 66.6633 114.349 67.2613C113.889 67.8133 113.659 68.5952 113.659 69.6072C113.659 70.5271 113.889 71.2631 114.395 71.815C114.901 72.367 115.499 72.643 116.235 72.643C116.787 72.643 117.247 72.505 117.707 72.275C117.983 72.137 118.259 71.907 118.58 71.631L118.764 71.815C118.535 72.091 118.259 72.367 117.891 72.597C117.293 72.9649 116.695 73.1489 116.005 73.1489C114.901 73.1489 114.027 72.781 113.383 72.091C112.785 71.447 112.463 70.6191 112.463 69.6532C112.463 68.6412 112.785 67.8133 113.429 67.1233C114.119 66.3874 114.947 66.0654 116.051 66.0654C116.419 65.9274 116.833 65.9734 117.201 66.1114Z" fill="black"/>
<path d="M121.11 68.4571C121.616 68.4571 121.984 68.7331 122.214 69.2391C122.49 69.745 122.582 70.297 122.582 70.895C122.582 71.4469 122.49 71.9069 122.26 72.2749C122.076 72.6428 121.754 72.7808 121.386 72.7808C120.926 72.7808 120.512 72.5049 120.282 71.9989C120.006 71.4929 119.868 70.941 119.868 70.343C119.868 69.607 120.052 69.0551 120.374 68.7791C120.604 68.5491 120.834 68.4571 121.11 68.4571ZM118.994 70.527C118.994 71.2629 119.224 71.8149 119.684 72.3209C120.144 72.7808 120.696 73.0108 121.34 73.0108C122.03 73.0108 122.536 72.7808 122.996 72.2749C123.41 71.7689 123.64 71.2169 123.64 70.527C123.64 69.791 123.41 69.2391 122.996 68.7791C122.582 68.3191 122.03 68.1351 121.34 68.1351C120.65 68.1351 120.144 68.3651 119.684 68.8251C119.178 69.2851 118.994 69.883 118.994 70.527Z" fill="black"/>
<path d="M123.318 72.6888C123.64 72.6428 123.824 72.5968 123.916 72.5049C124.008 72.4129 124.054 72.2289 124.054 71.9989V69.699C124.054 69.3771 124.008 69.1471 123.962 69.0091C123.916 68.8711 123.778 68.7791 123.64 68.7791C123.594 68.7791 123.548 68.7791 123.502 68.7791C123.456 68.7791 123.41 68.7791 123.318 68.8251V68.6871C123.502 68.6411 123.686 68.5491 123.916 68.5031C124.1 68.4111 124.238 68.3651 124.33 68.3651C124.514 68.3191 124.652 68.2271 124.836 68.1351C124.836 68.1351 124.882 68.1351 124.882 68.1811C124.882 68.1811 124.882 68.2271 124.882 68.2731V69.1011C125.112 68.8251 125.296 68.5491 125.526 68.4111C125.71 68.2271 125.94 68.1811 126.17 68.1811C126.354 68.1811 126.492 68.2271 126.584 68.3191C126.676 68.4111 126.768 68.5491 126.768 68.6871C126.768 68.8251 126.722 68.9171 126.63 69.0551C126.538 69.1471 126.446 69.1931 126.308 69.1931C126.17 69.1931 126.032 69.1471 125.94 69.0091C125.802 68.8711 125.71 68.8251 125.618 68.8251C125.48 68.8251 125.342 68.9171 125.204 69.1011C125.02 69.2851 124.928 69.469 124.928 69.699V71.9529C124.928 72.2289 124.974 72.4589 125.112 72.5509C125.25 72.6428 125.48 72.7348 125.802 72.6888V72.8728H123.318V72.6888Z" fill="black"/>
<path d="M128.422 71.953V69.4231C128.422 69.2852 128.514 69.1472 128.744 68.9632C128.928 68.8252 129.158 68.7332 129.434 68.7332C129.802 68.7332 130.078 68.8712 130.354 69.1932C130.63 69.5151 130.768 69.9751 130.768 70.5731C130.768 71.217 130.63 71.723 130.4 72.091C130.124 72.459 129.848 72.6429 129.48 72.6429C129.25 72.6429 129.02 72.5969 128.882 72.459C128.652 72.321 128.514 72.183 128.422 71.953ZM126.812 75.1268H129.296V74.9428C128.928 74.8968 128.698 74.8508 128.56 74.8048C128.468 74.7128 128.376 74.5288 128.376 74.1609V72.505C128.56 72.6889 128.744 72.8269 128.974 72.8729C129.112 72.9189 129.296 72.9649 129.48 72.9649C130.078 72.9649 130.584 72.6889 130.998 72.137C131.412 71.585 131.596 70.9871 131.596 70.2971C131.596 69.6071 131.412 69.0552 131.09 68.6872C130.768 68.2732 130.354 68.0892 129.894 68.0892C129.572 68.0892 129.25 68.1812 128.974 68.3652C128.79 68.4572 128.606 68.6412 128.376 68.8712V68.2272V68.1812C128.376 68.1812 128.376 68.1812 128.33 68.1812C127.686 68.4112 127.318 68.5032 127.318 68.5492L126.858 68.6872V68.8712C126.904 68.8712 126.95 68.8712 126.996 68.8712C127.042 68.8712 127.042 68.8712 127.088 68.8712C127.272 68.8712 127.364 68.9172 127.456 68.9632C127.502 69.0552 127.548 69.1932 127.548 69.4691V74.2068C127.548 74.4368 127.502 74.6208 127.41 74.7588C127.318 74.8508 127.134 74.9428 126.812 74.9428V75.1268Z" fill="black"/>
<path d="M134.08 68.4571C134.586 68.4571 134.954 68.7331 135.184 69.2391C135.46 69.745 135.552 70.297 135.552 70.895C135.552 71.4469 135.46 71.9069 135.23 72.2749C135.046 72.6428 134.724 72.7808 134.356 72.7808C133.896 72.7808 133.482 72.5049 133.252 71.9989C132.976 71.4929 132.838 70.941 132.838 70.343C132.838 69.607 133.022 69.0551 133.344 68.7791C133.574 68.5491 133.804 68.4571 134.08 68.4571ZM131.918 70.527C131.918 71.2629 132.148 71.8149 132.608 72.3209C133.068 72.7808 133.62 73.0108 134.264 73.0108C134.954 73.0108 135.46 72.7808 135.92 72.2749C136.334 71.7689 136.564 71.2169 136.564 70.527C136.564 69.791 136.334 69.2391 135.92 68.7791C135.506 68.3191 134.954 68.1351 134.264 68.1351C133.574 68.1351 133.068 68.3651 132.608 68.8251C132.148 69.2851 131.918 69.883 131.918 70.527Z" fill="black"/>
<path d="M136.288 72.6888C136.61 72.6428 136.794 72.5968 136.886 72.5049C136.978 72.4129 137.024 72.2289 137.024 71.9989V69.699C137.024 69.3771 136.978 69.1471 136.932 69.0091C136.886 68.8711 136.748 68.7791 136.61 68.7791C136.564 68.7791 136.518 68.7791 136.472 68.7791C136.426 68.7791 136.38 68.7791 136.288 68.8251V68.6871C136.472 68.6411 136.656 68.5491 136.886 68.5031C137.07 68.4111 137.208 68.3651 137.3 68.3651C137.484 68.3191 137.622 68.2271 137.806 68.1351C137.806 68.1351 137.852 68.1351 137.852 68.1811C137.852 68.1811 137.852 68.2271 137.852 68.2731V69.1011C138.082 68.8251 138.266 68.5491 138.496 68.4111C138.68 68.2271 138.91 68.1811 139.094 68.1811C139.278 68.1811 139.416 68.2271 139.508 68.3191C139.6 68.4111 139.692 68.5491 139.692 68.6871C139.692 68.8251 139.646 68.9171 139.554 69.0551C139.462 69.1471 139.37 69.1931 139.232 69.1931C139.094 69.1931 138.956 69.1471 138.864 69.0091C138.726 68.8711 138.634 68.8251 138.542 68.8251C138.404 68.8251 138.266 68.9171 138.128 69.1011C137.944 69.2851 137.852 69.469 137.852 69.699V71.9529C137.852 72.2289 137.898 72.4589 138.036 72.5509C138.174 72.6428 138.404 72.7348 138.726 72.6888V72.8728H136.242V72.6888H136.288Z" fill="black"/>
<path d="M142.177 71.677C142.177 71.861 142.085 72.045 141.855 72.137C141.671 72.275 141.441 72.321 141.211 72.321C141.027 72.321 140.889 72.275 140.751 72.183C140.568 72.045 140.43 71.815 140.43 71.493C140.43 71.125 140.659 70.7571 141.165 70.4811C141.395 70.3431 141.717 70.2051 142.131 70.0671V71.677H142.177ZM139.602 71.861C139.602 72.183 139.694 72.413 139.924 72.6429C140.154 72.8269 140.384 72.9649 140.659 72.9649C140.935 72.9649 141.211 72.8729 141.533 72.6889C141.717 72.5969 141.947 72.413 142.177 72.183C142.177 72.367 142.223 72.551 142.361 72.7349C142.453 72.8729 142.637 72.9649 142.867 72.9649C143.051 72.9649 143.235 72.9189 143.419 72.7809C143.557 72.6889 143.649 72.5969 143.787 72.459V72.183C143.649 72.275 143.557 72.321 143.511 72.367C143.465 72.413 143.419 72.413 143.327 72.413C143.189 72.413 143.097 72.321 143.051 72.183C143.005 72.091 143.005 71.953 143.005 71.769V69.7451C143.005 69.2852 142.959 68.9632 142.821 68.7332C142.591 68.3192 142.131 68.0892 141.487 68.0892C140.935 68.0892 140.521 68.2272 140.2 68.4572C139.924 68.7332 139.786 68.9632 139.786 69.1932C139.786 69.3312 139.832 69.4232 139.924 69.5151C140.016 69.6071 140.108 69.6531 140.292 69.6531C140.384 69.6531 140.476 69.6531 140.522 69.6071C140.659 69.5151 140.705 69.4231 140.705 69.2392C140.705 69.1932 140.705 69.1472 140.659 69.0552C140.659 68.9632 140.614 68.8712 140.614 68.8712C140.614 68.7332 140.705 68.5952 140.843 68.5032C140.981 68.4112 141.165 68.3652 141.349 68.3652C141.717 68.3652 141.947 68.4572 142.039 68.6872C142.085 68.8252 142.131 69.0552 142.131 69.3772V69.7911C141.211 70.1131 140.568 70.3891 140.292 70.6191C139.878 70.9871 139.602 71.401 139.602 71.861Z" fill="black"/>
<path d="M146.131 68.2271V68.5951H145.119V71.4929C145.119 71.7689 145.119 71.9529 145.165 72.0909C145.257 72.3209 145.395 72.4589 145.625 72.4589C145.763 72.4589 145.855 72.4129 145.947 72.3669C146.039 72.3209 146.131 72.2289 146.269 72.0909L146.407 72.1829L146.315 72.3209C146.131 72.5509 145.947 72.7348 145.763 72.8268C145.579 72.9188 145.395 72.9648 145.211 72.9648C144.797 72.9648 144.567 72.7808 144.429 72.4589C144.337 72.2749 144.291 71.9989 144.291 71.6769V68.6411H143.739C143.739 68.6411 143.693 68.6411 143.693 68.5951V68.5491C143.693 68.5031 143.693 68.5031 143.693 68.4571C143.693 68.4571 143.739 68.4111 143.831 68.3191C144.061 68.1351 144.245 67.9511 144.337 67.8592C144.429 67.7212 144.659 67.4452 145.073 66.9392C145.119 66.9392 145.119 66.9392 145.165 66.9392C145.165 66.9392 145.165 66.9852 145.165 67.0312V68.2731H146.131V68.2271Z" fill="black"/>
<path d="M147.19 66.0193C147.282 65.9273 147.42 65.8813 147.558 65.8813C147.696 65.8813 147.834 65.9273 147.926 66.0193C148.018 66.1113 148.064 66.2493 148.064 66.3873C148.064 66.5253 148.018 66.6633 147.926 66.7553C147.834 66.8473 147.696 66.8933 147.558 66.8933C147.42 66.8933 147.282 66.8473 147.19 66.7553C147.098 66.6633 147.052 66.5253 147.052 66.3873C147.052 66.2033 147.098 66.1113 147.19 66.0193ZM146.408 72.7349C146.776 72.6889 147.006 72.6429 147.098 72.5509C147.19 72.4589 147.236 72.2289 147.236 71.815V69.4231C147.236 69.1931 147.236 69.0551 147.19 68.9632C147.144 68.8252 147.052 68.7792 146.868 68.7792C146.822 68.7792 146.776 68.7792 146.776 68.7792C146.73 68.7792 146.638 68.8252 146.454 68.8712V68.7332L146.684 68.6412C147.282 68.4572 147.696 68.3192 147.926 68.2272C148.018 68.1812 148.064 68.1812 148.11 68.1812C148.11 68.2272 148.11 68.2272 148.11 68.2732V71.861C148.11 72.2289 148.156 72.5049 148.248 72.5969C148.34 72.6889 148.57 72.7349 148.892 72.7809V72.9189H146.454V72.7349H146.408Z" fill="black"/>
<path d="M150.777 68.4571C151.283 68.4571 151.651 68.7331 151.881 69.2391C152.157 69.745 152.249 70.297 152.249 70.895C152.249 71.4469 152.157 71.9069 151.927 72.2749C151.743 72.6428 151.421 72.7808 151.053 72.7808C150.593 72.7808 150.179 72.5049 149.949 71.9989C149.673 71.4929 149.535 70.941 149.535 70.343C149.535 69.607 149.719 69.0551 150.041 68.7791C150.271 68.5491 150.501 68.4571 150.777 68.4571ZM148.615 70.527C148.615 71.2629 148.845 71.8149 149.305 72.3209C149.765 72.7808 150.317 73.0108 150.961 73.0108C151.651 73.0108 152.157 72.7808 152.617 72.2749C153.031 71.7689 153.261 71.2169 153.261 70.527C153.261 69.791 153.031 69.2391 152.617 68.7791C152.203 68.3191 151.651 68.1351 150.961 68.1351C150.271 68.1351 149.765 68.3651 149.305 68.8251C148.845 69.2851 148.615 69.883 148.615 70.527Z" fill="black"/>
<path d="M153.216 72.7348C153.446 72.6888 153.63 72.6428 153.722 72.5509C153.814 72.4589 153.86 72.2749 153.86 71.9529V69.423C153.86 69.1931 153.86 69.0551 153.814 68.9631C153.768 68.8251 153.63 68.7791 153.4 68.7791C153.354 68.7791 153.354 68.7791 153.308 68.7791C153.262 68.7791 153.216 68.7791 153.17 68.7791V68.5951C153.308 68.5491 153.63 68.4571 154.136 68.2731L154.596 68.1351C154.642 68.1351 154.642 68.1351 154.642 68.1811C154.642 68.1811 154.642 68.2271 154.642 68.2731V69.0091C154.964 68.7331 155.194 68.5031 155.378 68.4111C155.654 68.2271 155.93 68.1811 156.206 68.1811C156.436 68.1811 156.62 68.2271 156.804 68.3651C157.172 68.6411 157.356 69.0551 157.356 69.745V72.0909C157.356 72.3209 157.402 72.5049 157.494 72.5968C157.586 72.6888 157.77 72.7808 158 72.7808V72.9188H155.838V72.7808C156.068 72.7348 156.252 72.6888 156.344 72.5968C156.436 72.5049 156.482 72.2749 156.482 71.9069V69.745C156.482 69.469 156.436 69.2391 156.298 69.0091C156.206 68.8251 155.976 68.7331 155.7 68.7331C155.516 68.7331 155.286 68.7791 155.102 68.9171C155.01 69.0091 154.826 69.1011 154.642 69.2851V72.0909C154.642 72.3209 154.688 72.5049 154.78 72.5968C154.872 72.6888 155.056 72.7348 155.286 72.7348V72.8728H153.078V72.7348H153.216Z" fill="black"/>
<path d="M58.1855 37.5931V22.552H61.9113L64.5791 33.6833H64.6251L67.247 22.552H70.9267V37.5931H68.6729V25.0818L65.5451 37.5931H63.5212L60.4394 25.0818V37.5931H58.1855Z" fill="black"/>
<path d="M72.3516 37.5931L76.6293 22.552H79.7111L83.6668 37.5931H81.183L80.2631 33.9133H75.8473L74.8814 37.5931H72.3516ZM76.3073 31.9814H79.8491L78.1012 24.5759H78.0552L76.3073 31.9814Z" fill="black"/>
<path d="M91.9939 32.2114H94.3858V32.5334C94.3858 34.0973 94.0638 35.2932 93.4198 36.2591C92.6379 37.363 91.4419 37.915 89.786 37.915C87.9462 37.915 86.6582 37.2711 85.8763 36.0291C85.1403 34.8332 84.8184 32.8553 84.8184 30.0955C84.8184 27.3357 85.1863 25.3578 85.8763 24.1619C86.6122 22.92 87.9462 22.276 89.786 22.276C92.8219 22.276 94.2938 23.8399 94.2938 27.0137V27.2897H91.9019V27.0597C91.9019 25.0818 91.166 24.1159 89.7401 24.1159C88.8201 24.1159 88.1761 24.5299 87.8082 25.2658C87.3942 26.1398 87.1642 27.7497 87.1642 30.0495C87.1642 32.3954 87.3942 34.0053 87.8082 34.8792C88.1761 35.7072 88.8201 36.1211 89.7401 36.1211C91.212 36.1211 91.9939 34.9252 91.9939 32.4874V32.2114Z" fill="black"/>
<path d="M96.5 37.5931V22.552H98.8918V28.5776H103.308V22.552H105.699V37.5931H103.308V30.6015H98.8918V37.5931H96.5Z" fill="black"/>
<path d="M108.506 37.5931V22.552H110.898V37.5931H108.506Z" fill="black"/>
<path d="M113.703 37.5931V22.552H116.647L121.017 33.7293V22.552H123.271V37.5931H120.327L115.957 26.0938V37.5931H113.703Z" fill="black"/>
<path d="M126.215 37.5931V22.552H134.356V24.5759H128.607V28.7616H133.988V30.7855H128.607V35.5692H134.54V37.5931H126.215Z" fill="black"/>
<path d="M136.795 37.5931V22.552H142.085C143.235 22.552 144.108 22.828 144.798 23.4259C145.534 24.0699 145.902 25.0818 145.902 26.4158C145.902 27.4277 145.672 28.2556 145.258 28.8996C144.798 29.5896 144.2 30.0035 143.373 30.1415V30.1875C144.89 30.3255 145.672 31.3834 145.718 33.2693C145.718 34.0053 145.764 35.0172 145.81 36.3051C145.856 36.9031 146.086 37.3171 146.546 37.5931H143.832C143.648 37.3631 143.51 36.9031 143.418 36.2591C143.418 36.0751 143.373 35.1552 143.327 33.4073C143.281 32.5794 143.143 31.9814 142.821 31.6134C142.499 31.2455 141.947 31.0615 141.165 31.0615H139.187V37.5931H136.795ZM139.187 29.2676H141.119C141.855 29.2676 142.453 29.0376 142.867 28.6236C143.281 28.2096 143.51 27.6117 143.51 26.8297C143.51 25.2198 142.775 24.3919 141.257 24.3919H139.233V29.2676H139.187Z" fill="black"/>
<path d="M150.684 37.5931V31.7054L146.82 22.552H149.488L152.018 29.0376L154.594 22.552H157.078L153.076 31.7054V37.5931H150.684Z" fill="black"/>
<path d="M57.541 49.4143H59.5649V49.7363C59.5649 51.3002 60.2548 52.0822 61.6808 52.0822C62.2787 52.0822 62.7847 51.8982 63.1527 51.5302C63.4746 51.1622 63.6586 50.7482 63.6586 50.2423C63.6586 49.5983 63.4746 49.0924 63.1527 48.7704C62.8767 48.4484 62.4167 48.2184 61.8187 47.9884L60.4388 47.4825C59.5189 47.1605 58.8289 46.7465 58.415 46.1945C58.001 45.6426 57.771 44.9066 57.771 43.9867C57.771 42.8367 58.139 41.9628 58.8289 41.3188C59.5649 40.6749 60.5308 40.3529 61.7267 40.3529C64.1186 40.3529 65.3605 41.4568 65.3605 43.7107V43.9867H63.2447V43.7107C63.2447 42.4688 62.6467 41.8708 61.4508 41.8708C60.3008 41.8708 59.7489 42.4688 59.7489 43.7107C59.7489 44.2627 59.8869 44.6766 60.2088 44.9986C60.4848 45.3206 60.9908 45.5966 61.6808 45.8726L63.0607 46.3785C63.9806 46.7005 64.6246 47.1605 65.0385 47.6664C65.4525 48.1724 65.6365 48.9084 65.6365 49.7823C65.6365 52.3581 64.2106 53.6461 61.4048 53.6461C59.9789 53.6461 58.9209 53.2321 58.277 52.3581C57.771 51.7142 57.541 50.8402 57.541 49.7363V49.4143Z" fill="black"/>
<path d="M69.4544 53.3701V48.4024L66.1426 40.6289H68.3964L70.5583 46.1486L72.7662 40.6289H74.882L71.4782 48.4024V53.4161H69.4544V53.3701Z" fill="black"/>
<path d="M75.1113 49.4143H77.1352V49.7363C77.1352 51.3002 77.8252 52.0822 79.2511 52.0822C79.849 52.0822 80.355 51.8982 80.723 51.5302C81.045 51.1622 81.2289 50.7482 81.2289 50.2423C81.2289 49.5983 81.045 49.0924 80.723 48.7704C80.447 48.4484 79.987 48.2184 79.3891 47.9884L78.0091 47.4825C77.0892 47.1605 76.3992 46.7465 75.9853 46.1945C75.5713 45.6426 75.3413 44.9066 75.3413 43.9867C75.3413 42.8367 75.7093 41.9628 76.3992 41.3188C77.1352 40.6749 78.1011 40.3529 79.2971 40.3529C81.6889 40.3529 82.9308 41.4568 82.9308 43.7107V43.9867H80.907V43.7107C80.907 42.4688 80.309 41.8708 79.1131 41.8708C77.9631 41.8708 77.4112 42.4688 77.4112 43.7107C77.4112 44.2627 77.5492 44.6766 77.8712 44.9986C78.1471 45.3206 78.6531 45.5966 79.3431 45.8726L80.723 46.3785C81.6429 46.7005 82.2869 47.1605 82.7008 47.6664C83.1148 48.1724 83.2988 48.9084 83.2988 49.7823C83.2988 52.3581 81.8729 53.6461 79.0671 53.6461C77.6412 53.6461 76.5832 53.2321 75.9393 52.3581C75.4333 51.7142 75.2033 50.8402 75.2033 49.7363V49.4143H75.1113Z" fill="black"/>
<path d="M86.9342 53.3701V42.3308H83.8984V40.6289H91.9479V42.3308H89.0041V53.3701H86.9342Z" fill="black"/>
<path d="M93.1426 53.3701V40.5829H100.042V42.2848H95.1664V45.8266H99.7662V47.5284H95.1664V51.6682H100.18V53.3701H93.1426Z" fill="black"/>
<path d="M101.744 53.3701V40.5829H104.918L107.172 50.0583H107.218L109.426 40.5829H112.553V53.3701H110.622V42.7447L108 53.3701H106.252L103.63 42.7447V53.3701H101.744Z" fill="black"/>
<path d="M114.209 49.4143H116.233V49.7363C116.233 51.3002 116.923 52.0822 118.349 52.0822C118.947 52.0822 119.453 51.8982 119.821 51.5302C120.143 51.1622 120.327 50.7482 120.327 50.2423C120.327 49.5983 120.143 49.0924 119.821 48.7704C119.545 48.4484 119.085 48.2184 118.487 47.9884L117.107 47.4825C116.187 47.1605 115.497 46.7465 115.083 46.1945C114.669 45.6426 114.439 44.9066 114.439 43.9867C114.439 42.8367 114.807 41.9628 115.497 41.3188C116.233 40.6749 117.199 40.3529 118.395 40.3529C120.787 40.3529 122.028 41.4568 122.028 43.7107V43.9867H120.005V43.7107C120.005 42.4688 119.407 41.8708 118.211 41.8708C117.061 41.8708 116.509 42.4688 116.509 43.7107C116.509 44.2627 116.647 44.6766 116.969 44.9986C117.245 45.3206 117.751 45.5966 118.441 45.8726L119.821 46.3785C120.741 46.7005 121.385 47.1605 121.799 47.6664C122.212 48.1724 122.396 48.9084 122.396 49.7823C122.396 52.3581 120.971 53.6461 118.165 53.6461C116.739 53.6461 115.681 53.2321 115.037 52.3581C114.531 51.7142 114.301 50.8402 114.301 49.7363V49.4143H114.209Z" fill="black"/>
<path d="M123.502 53.37V51.0242H125.526V53.37C125.526 54.9339 124.836 55.8539 123.502 56.1298V55.0719C124.1 54.9339 124.376 54.428 124.376 53.6V53.324H123.502V53.37Z" fill="black"/>
<path d="M131.275 53.3701V40.5829H133.299V53.3701H131.275Z" fill="black"/>
<path d="M135.322 53.3701V40.5829H137.806L141.532 50.1043V40.5829H143.464V53.3701H140.98L137.254 43.6187V53.3701H135.322Z" fill="black"/>
<path d="M151.422 48.8164H153.446V49.0924C153.446 50.4263 153.17 51.4382 152.618 52.2202C151.928 53.1401 150.916 53.6461 149.536 53.6461C147.973 53.6461 146.869 53.0941 146.225 52.0362C145.627 51.0243 145.305 49.3684 145.305 47.0225C145.305 44.6767 145.627 42.9748 146.225 42.0088C146.869 40.9509 147.973 40.3989 149.536 40.3989C152.112 40.3989 153.4 41.7328 153.4 44.4007V44.6307H151.376V44.4007C151.376 42.6988 150.778 41.8708 149.536 41.9168C148.754 41.9168 148.203 42.2388 147.881 42.8828C147.513 43.6187 147.329 44.9986 147.329 46.9305C147.329 48.9084 147.513 50.2883 147.881 51.0243C148.203 51.7142 148.754 52.0822 149.536 52.0822C150.778 52.0822 151.422 51.0702 151.422 49.0004V48.8164Z" fill="black"/>
<path d="M154.641 53.37V51.0242H156.664V53.37H154.641Z" fill="black"/>
</svg>
