<svg width="158" height="99" viewBox="0 0 158 99" fill="none" xmlns="http://www.w3.org/2000/svg">
<g clip-path="url(#clip0_10823_60293)">
<path d="M76.4634 86.5962C76.5474 87.8989 76.224 89.1955 75.538 90.3061C74.852 91.4168 73.8374 92.2865 72.6349 92.7946C61.8729 96.7493 50.4952 98.7656 39.0296 98.75C27.5679 98.7812 16.191 96.7856 5.42416 92.8554C2.7807 91.9742 1.5957 89.9081 1.5957 86.5962V0H76.7672" fill="#005AB4"/>
<path d="M21.3457 52.7629C11.0301 46.2758 7.49029 43.3284 7.20164 39.2113C7.10729 38.0942 7.31178 36.9722 7.79414 35.9602L6.89779 35.3677C6.06929 36.6889 5.66137 38.2305 5.72798 39.7886C5.77449 41.8763 6.38331 43.9127 7.49029 45.6833C9.00952 48.0533 10.4376 49.2231 14.2661 52.1704C17.91 54.8579 20.837 58.4005 22.7889 62.486H23.3814V58.3688C28.9874 61.6048 33.697 64.5521 36.0518 69.5656H36.6443C35.4897 63.6709 32.5424 59.5386 21.3457 52.7629ZM69.3989 69.2769H68.8064C68.8064 65.4333 65.2666 64.2634 61.4382 64.2634H49.6489C50.0477 66.2992 50.145 68.3826 49.9376 70.4467H49.3451C48.1753 61.6048 43.4505 57.4877 36.3861 52.7629V56.5913H35.7936C34.0161 52.4742 29.8989 48.6306 26.0705 45.9567C25.1741 45.3642 24.0043 44.4375 22.8193 43.6019V48.0229H22.5307C20.7532 43.9209 17.8059 41.0192 13.6736 37.1452C9.2526 33.0129 7.18644 30.6581 6.30529 27.7108C5.69516 26.1105 5.39111 24.4098 5.40894 22.6973C5.39034 21.2454 5.73333 19.8117 6.40698 18.5254C7.08063 17.2391 8.06377 16.1406 9.26779 15.329V16.8483C8.22505 18.3075 7.69121 20.0691 7.74856 21.8617C7.68171 23.6075 8.08577 25.3392 8.91837 26.8752C11.577 31.5848 20.1151 37.7833 25.4324 41.3079C42.2807 52.4742 45.8205 54.5404 48.4639 60.7692C48.8542 61.6205 49.1497 62.512 49.3451 63.4279C51.7151 63.124 60.557 61.6504 62.3193 61.3617C62.738 61.4066 63.1589 61.2986 63.5043 61.0579C65.0606 60.0964 66.3714 58.7856 67.3328 57.2294L60.8457 56.6369C60.6781 57.284 60.378 57.8892 59.9645 58.4144H59.372C59.6607 57.8219 59.6607 57.2294 59.9645 56.3483H58.187V56.0596L59.9645 55.7558C60.3042 54.0072 60.5024 52.2341 60.557 50.4536L52.2924 49.8611V52.2159H51.6543C51.4212 51.4537 51.3185 50.6576 51.3505 49.8611H49.6489V49.2231H51.4113C51.178 47.2673 51.0816 45.2976 51.1226 43.3284L46.3978 43.0398C46.7119 43.3588 46.919 43.7676 46.9903 44.2096C47.7122 46.6732 47.9139 49.26 47.5828 51.8058H46.9903C46.943 49.9798 46.5459 48.1799 45.8205 46.5036C44.6355 43.2525 41.3995 40.609 36.7051 37.3883V41.2167H36.1126C34.3503 35.9146 30.218 32.9673 24.3234 30.02C19.0213 28.5008 17.2438 25.3104 17.5476 20.5856L19.3099 21.4667C19.4157 23.3997 20.2658 25.2167 21.682 26.5366C23.0982 27.8564 24.9704 28.5767 26.9061 28.5463C28.9788 28.4998 31.0454 28.3018 33.0893 27.9538C35.748 27.3613 38.3914 26.784 40.7614 27.6652V25.0521H39.0295C38.0485 25.8922 36.7788 26.3173 35.4897 26.2371C33.4388 26.2371 29.5951 25.0521 29.5951 20.935C29.5951 17.3952 32.5424 16.8027 35.2011 16.8027H39.622C40.2145 16.8027 40.5032 16.8027 40.807 16.514C40.9171 16.3944 40.9999 16.2523 41.0497 16.0975C41.0996 15.9428 41.1152 15.7791 41.0957 15.6177V11.1967H29.3064V15.9215L25.1741 13.8554V12.6704H27.2403V10.9081H19.2795V7.0796H16.712C15.883 7.04169 15.0719 7.32827 14.4508 7.87852C13.8296 8.42878 13.4473 9.19941 13.3849 10.0269C13.3849 11.7892 13.9774 13.5667 16.0436 13.5667H16.3322V15.9215H16.0436C14.4814 15.9175 12.9845 15.2952 11.8799 14.1906C10.7753 13.086 10.153 11.589 10.1489 10.0269C10.1624 9.18575 10.3441 8.35579 10.6833 7.58594C11.0225 6.81608 11.5123 6.12188 12.1239 5.54425C12.7355 4.96662 13.4566 4.51723 14.2445 4.22255C15.0325 3.92788 15.8715 3.79388 16.712 3.82845H22.3028V7.59614H44.3468V16.1494C44.3099 16.6783 44.1541 17.192 43.891 17.6523C43.628 18.1127 43.2645 18.5077 42.8276 18.8081C41.7654 19.1096 40.6767 19.308 39.5764 19.4006H35.4897C32.8463 19.0967 32.2538 20.2817 32.2538 21.1629V21.7554C32.911 21.2425 33.6818 20.8947 34.5013 20.7414C35.3208 20.5881 36.1651 20.6336 36.9634 20.8742C40.2145 22.044 41.3995 22.044 42.8732 20.5704L43.1618 20.8742C42.7967 21.2048 42.4977 21.6018 42.2807 22.044H43.7999V30.8859L48.8134 27.9386H62.9574C65.2542 29.2408 67.6172 30.4223 70.037 31.4784C70.3997 31.6531 70.7221 31.9014 70.9836 32.2074C71.2451 32.5134 71.4402 32.8705 71.5562 33.2559C71.6051 33.9536 71.5014 34.6534 71.2524 35.3069C70.9638 35.6108 69.4901 38.2542 68.6089 39.7279C71.1891 42.5811 72.6231 46.2877 72.6349 50.1346C72.6008 52.4162 72.0532 54.6608 71.0327 56.7018C70.0122 58.7427 68.5451 60.5276 66.7403 61.9238C68.421 62.3907 69.8839 63.434 70.8726 64.8711L69.3534 69.2921L69.3989 69.2769ZM37.8597 22.1808C35.7936 21.8921 34.9124 21.8921 33.7274 23.0619C34.3804 23.3327 35.0903 23.4371 35.7936 23.3658C36.2092 23.3551 36.6157 23.2412 36.9764 23.0343C37.3371 22.8275 37.6406 22.5341 37.8597 22.1808ZM36.6747 34.8663L42.2807 31.6152C41.0904 31.0127 39.7709 30.7103 38.437 30.734C36.1483 30.9312 33.8811 31.3277 31.6613 31.919C33.414 32.7555 35.0914 33.7416 36.6747 34.8663ZM61.7268 35.155L62.6232 33.97L61.4382 32.4508L61.7268 32.1621L64.978 33.9244L64.3855 36.2944C65.0405 36.5715 65.6381 36.9682 66.1478 37.4642L68.2139 33.9244L62.6232 30.9771H50.2414L40.2145 37.1756C42.0144 38.3832 43.6934 39.762 45.228 41.2927C46.601 39.333 48.4175 37.7254 50.5296 36.6007C52.6416 35.476 54.9894 34.8662 57.3818 34.8208C58.8523 34.4864 60.3883 34.5867 61.8028 35.1094L61.7268 35.155ZM60.557 49.299C60.5194 47.6128 60.321 45.9341 59.9645 44.2856L53.4774 43.9969C52.8954 45.9078 52.5985 47.894 52.5962 49.8915L60.557 49.299ZM62.9118 44.5894C63.2012 46.1459 63.2012 47.7425 62.9118 49.299L69.3989 49.0104C69.1772 47.589 68.7792 46.2009 68.2139 44.8781L62.9118 44.5894ZM59.372 42.2346C59.0371 40.5275 58.3318 38.9147 57.3059 37.5098H54.9511C54.3586 39.2873 53.7661 40.7609 53.1888 42.5233L59.372 42.2346ZM61.4382 38.3909C61.9639 39.6281 62.361 40.9161 62.6232 42.2346L66.7403 41.9308C65.1962 40.4268 63.402 39.2033 61.4382 38.315V38.3909ZM68.5178 55.1177C69.0703 54.0448 69.3716 52.8603 69.3989 51.6538L62.6232 51.35C62.2856 53.0677 61.7766 54.7473 61.1039 56.3634L68.5178 55.1177ZM52.0037 38.6188C49.8094 39.4881 47.9512 41.0375 46.7016 43.0398L51.4113 42.7359C51.3462 41.3384 51.5473 39.9413 52.0037 38.6188Z" fill="#FEDF01"/>
<path d="M43.1623 79.2886C44.1801 79.1558 45.1196 78.6717 45.8186 77.9201C46.5176 77.1684 46.9322 76.1962 46.9908 75.1715C46.9908 73.1053 46.1096 71.0392 40.215 71.0392H30.1881V71.4038C30.6316 71.4744 31.0441 71.6754 31.3731 71.9811C32.0114 72.8257 32.3242 73.872 32.2542 74.9284V89.9688H40.5037C44.9246 89.9688 48.4644 88.1913 48.4644 84.3628C48.4644 80.823 45.821 79.6532 43.1623 79.3494V79.2886ZM39.03 72.8167C41.0962 72.8167 42.5698 73.394 42.5698 75.4601C42.5698 77.8149 40.5037 78.4074 38.4375 78.4074H36.6752V72.5128C36.6752 72.8167 37.8602 72.8167 39.03 72.8167ZM39.3339 88.1153H36.6752V80.5192H39.3339C42.8737 80.5192 44.0435 81.7042 44.0435 84.059C44.0587 86.9607 42.2812 88.1153 39.3339 88.1153ZM22.7894 89.908H28.0916L21.3158 81.0661C23.9744 80.1849 26.0406 78.7113 26.0406 76.0526C26.0406 72.8167 23.9744 71.0392 18.961 71.0392H8.67578V71.4038C9.11448 71.4755 9.5218 71.6765 9.84559 71.9811C10.5315 72.9189 10.8504 74.0754 10.7419 75.2322V89.6346H15.1933V81.3547H16.7125L22.7894 89.908ZM15.1933 72.8167H18.1406C20.4954 72.8167 21.9691 73.394 21.9691 76.0526C21.9691 78.4074 20.1916 79.5924 17.5481 79.5924H15.1933V72.8167ZM65.89 73.6978C66.5739 73.9885 67.1185 74.5331 67.4092 75.217H67.6979L68.5942 71.9659C66.8641 71.0808 64.928 70.6768 62.9883 70.7961C56.7898 70.7961 52.3537 73.7434 52.3537 80.5192C52.3537 88.1153 57.671 89.9536 62.6844 89.9536C67.1054 89.9536 68.8677 88.4344 68.8677 88.4344V86.3682C67.4445 87.4821 65.6564 88.0239 63.8542 87.8874C61.2108 87.8874 57.0785 86.7024 56.7746 80.5192C56.7746 74.9132 59.1446 72.923 62.6844 72.923C63.8244 72.9074 64.9458 73.2127 65.9204 73.8042L65.89 73.6978Z" fill="white"/>
<path d="M105.146 40.366C104.523 39.105 104.112 38.6796 103.474 37.4338C101.788 34.289 101.18 33.4231 100.542 33.2408C100.345 33.2408 100.132 33.0433 99.9194 33.0433V40.366H96.5771V23.0012H103.064C103.734 22.9563 104.406 23.0553 105.035 23.2914C105.663 23.5275 106.234 23.8953 106.709 24.3701C107.184 24.8449 107.551 25.4157 107.787 26.0443C108.024 26.6728 108.122 27.3447 108.078 28.0146C108.078 30.5213 106.406 32.8306 104.112 32.8306C104.523 33.0433 104.523 33.2408 104.735 33.4535C105.784 34.7144 108.913 40.1533 108.913 40.1533H105.146V40.366ZM103.474 26.1308C102.865 25.9428 102.225 25.8757 101.591 25.9333H100.345V30.734H101.393C102.343 30.8265 103.297 30.6079 104.112 30.1111C104.526 29.6539 104.748 29.0561 104.735 28.44C104.735 27.179 104.31 26.3435 103.474 26.1308ZM120.626 38.8923C120.101 39.4821 119.458 39.9548 118.738 40.2793C118.018 40.6039 117.238 40.7732 116.449 40.7761C112.894 40.7761 110.584 38.2694 110.584 34.0915C110.584 29.9137 112.894 27.3462 116.449 27.3462C117.276 27.3006 118.103 27.447 118.865 27.7738C119.626 28.1005 120.302 28.5989 120.839 29.23C121.919 30.4941 122.464 32.1288 122.358 33.7877C122.364 35.6344 121.755 37.4305 120.626 38.8923ZM117.907 30.5213C117.717 30.3105 117.481 30.145 117.218 30.0372C116.955 29.9294 116.672 29.882 116.388 29.8985C116.004 29.8718 115.624 29.9847 115.316 30.2164C115.009 30.4482 114.796 30.7831 114.717 31.1594C114.423 32.1086 114.279 33.098 114.291 34.0915C114.266 35.1507 114.41 36.2071 114.717 37.2211C114.871 37.5333 115.109 37.7965 115.404 37.9815C115.699 38.1666 116.04 38.2662 116.388 38.2694C117.907 38.2694 118.484 37.0085 118.484 33.8788C118.608 32.7278 118.408 31.5651 117.907 30.5213ZM132.34 27.6044H135.895L131.337 40.5635C130.486 43.0854 129.818 44.1185 128.815 44.7565C127.889 45.4202 126.815 45.8478 125.686 46.0023L124.425 43.921C125.166 43.7638 125.875 43.4813 126.521 43.0854C126.931 42.8727 127.144 42.4473 127.569 42.0371C127.864 41.5709 128.075 41.0568 128.192 40.5179H127.357C126.931 39.2721 126.308 37.3883 126.096 36.9629L122.966 27.969L126.308 27.5588L128.618 35.079C128.815 35.9146 129.241 37.601 129.241 37.7985M146.803 41.156C146.052 40.8309 145.406 40.3052 144.934 39.6367C144.721 39.8494 144.296 40.0621 144.083 40.2748C143.325 40.7198 142.455 40.9361 141.577 40.8977C138.645 40.8977 137.186 39.3785 137.186 36.9173C137.186 34.0004 139.283 32.5267 143.461 32.5267H144.326V31.9038C144.326 30.3846 144.114 30.02 142.807 30.02C141.448 30.2182 140.156 30.7392 139.04 31.5392L137.52 29.0325C138.195 28.6465 138.89 28.2966 139.602 27.9842C140.699 27.4161 141.921 27.129 143.157 27.1487C144.014 27.0568 144.878 27.2324 145.632 27.6513C146.385 28.0701 146.991 28.7118 147.365 29.4883V36.1729C147.365 37.6921 147.365 38.2694 148.611 39.105L146.803 41.156ZM143.856 34.9423C141.546 34.9423 140.711 35.3525 140.711 36.8261C140.689 37.038 140.713 37.2521 140.78 37.4543C140.846 37.6565 140.955 37.8425 141.098 38C141.241 38.1576 141.416 38.2833 141.611 38.369C141.806 38.4547 142.017 38.4984 142.23 38.4973C142.87 38.4315 143.464 38.1344 143.901 37.6617V34.9423H143.856ZM154.308 40.7913C153.706 40.851 153.101 40.7223 152.576 40.4229C152.05 40.1235 151.631 39.6683 151.376 39.1202C151.154 38.1596 151.087 37.1697 151.178 36.1881V26.5561C151.233 25.2963 151.162 24.0341 150.966 22.7885L154.308 21.9529C154.536 23.0513 154.608 24.1766 154.521 25.2952V35.3373C154.521 37.6465 154.521 37.844 154.733 38.2694C154.946 38.6948 155.143 38.6796 155.356 38.6796H155.781L156.404 40.7761L154.308 40.7913ZM103.93 70.7506H96.1973V53.3858H102.046C103.614 53.2885 105.168 53.7278 106.452 54.6315C106.891 55.0007 107.247 55.4582 107.498 55.9741C107.748 56.49 107.887 57.0528 107.906 57.626C107.924 58.1991 107.822 58.7698 107.606 59.3009C107.389 59.832 107.063 60.3115 106.65 60.7085C106.188 61.1467 105.606 61.4376 104.978 61.544C105.988 61.7514 106.893 62.3025 107.542 63.1031C108.19 63.9037 108.54 64.9044 108.533 65.9346C108.336 68.4413 106.862 70.7506 103.976 70.7506H103.93ZM103.095 56.5154C102.897 56.3179 102.472 56.3179 101.575 56.3179H99.5396V60.2831H101.636C102.472 60.2831 102.897 60.2831 103.155 60.0704C103.472 59.9217 103.739 59.6852 103.925 59.3888C104.111 59.0925 104.208 58.749 104.204 58.3992C104.2 58.0155 104.096 57.6395 103.901 57.3088C103.707 56.9782 103.428 56.7046 103.095 56.5154ZM103.095 63.4279C102.709 63.236 102.276 63.162 101.849 63.2152H99.7523V68.0311H102.046C102.342 68.0758 102.643 68.0611 102.932 67.9881C103.222 67.9151 103.494 67.7851 103.733 67.6058C104.03 67.3491 104.261 67.0246 104.407 66.6596C104.552 66.2947 104.608 65.9001 104.568 65.5092C104.356 64.4761 103.93 63.6254 103.049 63.4279H103.095ZM120.247 71.5861C119.493 71.2588 118.842 70.7338 118.363 70.0669C118.165 70.2796 117.74 70.4923 117.527 70.705C116.769 71.15 115.899 71.3663 115.021 71.3279C112.088 71.3279 110.63 69.8087 110.63 67.3475C110.63 64.4306 112.726 62.9569 116.904 62.9569H117.74V62.334C117.74 60.8148 117.527 60.4502 116.221 60.4502C114.862 60.6484 113.57 61.1693 112.453 61.9694L110.934 59.4627C111.609 59.0767 112.303 58.7268 113.015 58.4144C114.113 57.8462 115.334 57.5592 116.57 57.5788C117.421 57.4877 118.28 57.6604 119.03 58.0734C119.78 58.4864 120.385 59.1199 120.763 59.8881V66.5727C120.763 68.0919 120.763 68.6692 122.009 69.5048L120.247 71.5861ZM117.33 65.3269C115.021 65.3269 114.185 65.7371 114.185 67.2108C114.164 67.4227 114.187 67.6367 114.254 67.8389C114.321 68.0411 114.429 68.2271 114.572 68.3846C114.716 68.5422 114.89 68.6679 115.085 68.7536C115.28 68.8393 115.491 68.883 115.704 68.8819C116.35 68.8197 116.95 68.5223 117.391 68.0463V65.3269H117.33ZM131.337 70.7658V62.3796C131.337 60.8604 131.124 60.4958 130.289 60.4958C129.392 60.6105 128.572 61.0611 127.995 61.7567V70.7506H124.652V61.544C124.631 60.553 124.488 59.5683 124.227 58.6119L127.159 57.7308C127.395 58.2587 127.534 58.8248 127.569 59.4019C128.042 59.0055 128.55 58.6545 129.089 58.3536C129.765 57.9405 130.544 57.7248 131.337 57.7308C131.987 57.7081 132.63 57.8739 133.188 58.2081C133.746 58.5424 134.195 59.0308 134.482 59.6146C134.67 60.2237 134.737 60.8636 134.679 61.4985V70.9481L131.337 70.7506V70.7658ZM138.25 70.7658V56.3331C138.278 55.2098 138.207 54.0862 138.037 52.9756L141.379 52.14C141.574 53.5287 141.645 54.9318 141.592 56.3331V70.7658H138.25ZM145.982 70.7658L141.592 63.4279L144.934 57.7308H148.884L144.691 63.1696L149.72 70.7658H145.982Z" fill="#005AB4"/>
</g>
<defs>
<clipPath id="clip0_10823_60293">
<rect width="158" height="98.75" fill="white"/>
</clipPath>
</defs>
</svg>
