<svg xmlns="http://www.w3.org/2000/svg" width="158" height="91" fill="none" viewBox="0 0 158 91"><g clip-path="url(#clip0_10823_60291)"><path fill="#E42313" d="M101.419 26.3654C104.114 14.0487 103.28 3.97726 103.28 3.52821L103.216 2.88672L102.574 2.69427C102.51 2.69427 95.646 0.962235 85.6387 0.256592C86.8575 15.9732 91.348 27.7125 97.9554 37.8481C99.3666 34.3199 100.521 30.471 101.419 26.3654Z"/><path fill="#E42313" d="M71.9117 0.128358C71.7192 3.27168 71.4626 6.415 71.0136 9.55832C70.2438 15.3318 69.1533 21.0411 67.5495 26.6862C66.01 32.3314 64.0213 37.8482 61.5836 43.1085C61.2629 43.75 60.9421 44.3915 60.6855 45.0971C62.4176 48.1763 64.4704 50.9988 66.6514 53.5007C70.6929 39.3878 73.4513 22.1958 73.9645 0.064209C73.2588 0.064209 72.5532 0.128358 71.9117 0.128358Z"/><path fill="#E42313" d="M93.4648 43.1726C91.0271 37.9123 89.0385 32.3955 87.4989 26.7503C85.8952 21.1052 84.8046 15.3959 84.0349 9.62241C83.65 6.47909 83.3292 3.33577 83.1368 0.192445C82.4953 0.192445 81.7896 0.128296 81.084 0.128296C81.5972 22.2598 84.2915 39.4519 88.397 53.5648C90.6422 51.0629 92.6309 48.2404 94.3629 45.1612C94.1063 44.4555 93.7856 43.814 93.4648 43.1726Z"/><path fill="#E42313" d="M80.8922 47.2781C79.8658 38.1047 79.2884 28.8672 78.9677 19.6297C78.7752 13.0865 78.6469 6.54324 78.5828 0C78.262 0 77.8771 0 77.5564 0C77.1715 0 76.8507 0 76.4658 0C76.4017 6.54324 76.2734 13.0865 76.081 19.6297C75.7602 28.8672 75.247 38.1047 74.1565 47.2781C73.7074 51.2554 73.1942 55.1685 72.5527 59.0816C73.964 60.1721 75.5036 61.2627 77.0432 62.1608L77.4922 62.4174L77.9413 62.1608C79.4809 61.1985 81.0205 60.1721 82.4317 59.0816C81.8544 55.1685 81.2771 51.2554 80.8922 47.2781Z"/><path fill="#E42313" d="M52.5393 2.75848L51.8978 2.95093L51.8336 3.59242C51.7695 4.04147 50.9997 14.1129 53.6939 26.4296C54.592 30.5352 55.7467 34.3841 57.158 37.9124C63.7013 27.7767 68.2559 16.0374 69.4747 0.320801C59.4674 0.962295 52.6034 2.69433 52.5393 2.75848Z"/><path fill="#1D1D1B" d="M38.1689 71.9115H1.28299L0 75.5039H12.7016L7.18473 90.7073H19.758L25.2749 75.5039H36.8859L38.1689 71.9115Z"/><path fill="#1D1D1B" d="M130.801 71.9115H117.522L110.723 90.7073H124.002L130.801 71.9115Z"/><path fill="#1D1D1B" d="M128.363 80.6358L136.254 90.7073H151.521L142.733 80.7641L158 71.9115H142.476L128.363 80.6358Z"/><path fill="#1D1D1B" d="M113.289 75.5039L114.572 71.9115H80.6366L75.9537 84.8055C75.633 85.6395 75.633 86.6017 76.2103 87.3074C76.4028 87.564 77.9424 89.2318 78.2631 89.6167C78.8405 90.2582 79.482 90.7073 80.5725 90.7073H107.772L109.055 87.1149H90.0666C88.9119 87.1149 88.3346 86.2168 88.6553 85.3829L89.4893 83.0093H110.53L111.813 79.417H90.7722L92.1835 75.5039H113.289Z"/><path fill="#1D1D1B" d="M74.2846 71.9115H40.542L33.7422 90.7073H46.6362L52.0889 75.5039H61.7113C62.7377 75.5039 63.1226 76.2737 62.9302 77.0435C62.6736 77.8132 62.3528 78.7113 62.0962 79.2887C61.7755 80.0585 61.0057 80.7 59.851 80.7C58.6963 80.7 50.8059 80.7 50.8059 80.7L58.6963 90.7714H73.579L66.9074 83.2659C66.9074 83.2659 69.6017 83.2659 70.9488 83.2659C72.8092 83.2659 73.8997 82.2396 74.4129 81.0207C74.9903 79.6094 76.2091 76.1454 76.594 74.9907C77.2996 73.002 76.2091 71.9115 74.2846 71.9115Z"/></g><defs><clipPath id="clip0_10823_60291"><rect width="158" height="90.707" fill="#fff"/></clipPath></defs></svg>