<svg width="1600" height="2617" fill="none" xmlns="http://www.w3.org/2000/svg"><g opacity=".23" filter="url(#filter0_f_14996_70872)"><circle cx="1037" cy="1422" r="595" fill="#FFCA00"/></g><g filter="url(#filter1_f_14996_70872)"><ellipse cx="1461.5" cy="886.5" rx="292.5" ry="286.5" fill="url(#paint0_linear_14996_70872)"/></g><g filter="url(#filter2_f_14996_70872)"><path d="M1680.55 886.551c-107.05 34.705-228.01 14.998-314.47-59.31l-8.04-8.038c-4.02-4.019-8.03-8.039-12.05-12.058l-12.06-12.057-8.04-8.039c-74.29-90.492-96.03-209.429-59.31-314.469 107.05-34.706 228.01-14.997 316.48 61.32l8.04 8.038 12.06 12.058c4.01 4.019 8.03 8.038 12.05 12.057 80.37 84.417 100.06 209.414 65.34 320.498z" fill="#F28627" fill-opacity=".4"/></g><defs><filter id="filter0_f_14996_70872" x="-158" y="227" width="2390" height="2390" filterUnits="userSpaceOnUse" color-interpolation-filters="sRGB"><feFlood flood-opacity="0" result="BackgroundImageFix"/><feBlend in="SourceGraphic" in2="BackgroundImageFix" result="shape"/><feGaussianBlur stdDeviation="300" result="effect1_foregroundBlur_14996_70872"/></filter><filter id="filter1_f_14996_70872" x="569.001" y="0" width="1785" height="1773" filterUnits="userSpaceOnUse" color-interpolation-filters="sRGB"><feFlood flood-opacity="0" result="BackgroundImageFix"/><feBlend in="SourceGraphic" in2="BackgroundImageFix" result="shape"/><feGaussianBlur stdDeviation="300" result="effect1_foregroundBlur_14996_70872"/></filter><filter id="filter2_f_14996_70872" x="1099.1" y="306.049" width="747.874" height="747.098" filterUnits="userSpaceOnUse" color-interpolation-filters="sRGB"><feFlood flood-opacity="0" result="BackgroundImageFix"/><feBlend in="SourceGraphic" in2="BackgroundImageFix" result="shape"/><feGaussianBlur stdDeviation="75" result="effect1_foregroundBlur_14996_70872"/></filter><linearGradient id="paint0_linear_14996_70872" x1="1318.82" y1="884.208" x2="1736.34" y2="874.537" gradientUnits="userSpaceOnUse"><stop stop-color="#D93636"/><stop offset="1" stop-color="#F2A20C"/></linearGradient></defs></svg>