<svg width="222" height="106" fill="none" xmlns="http://www.w3.org/2000/svg"><g clip-path="url(#clip0_17554_1861)"><path fill-rule="evenodd" clip-rule="evenodd" d="M217.27 56.504v-.445h1.957v.445h-.722v1.907h-.504v-1.907h-.731zm2.587.084v1.815h-.504V56.05h.672l.664 1.849.656-1.849h.663v2.353h-.504v-1.815l-.647 1.815h-.361l-.639-1.815z" fill="#002840"/><path d="M0 101.287V86.348h6.234c3.076 0 4.781 1.496 4.781 4.352 0 2.857-1.748 4.378-4.78 4.378H1.747v6.209H0zm1.748-7.747h4.42c2.007 0 3.091-.958 3.091-2.84s-1.067-2.814-3.092-2.814h-4.42v5.654zM12.2 98.598c0-2.008 1.344-3.007 3.461-3.369l3.16-.537c.445-.068.68-.303.68-.622v-.168c0-1.177-1.025-2.05-2.479-2.05-1.193 0-2.285.529-2.62 1.663h-1.79c.36-1.79 2.008-3.201 4.46-3.201 2.454 0 4.252 1.386 4.252 3.504v7.469h-1.688v-.554c0-.446.042-.815.235-1.236l.126-.319-.025-.025-.345.554c-.815 1.278-2.37 1.883-3.84 1.883-2.117 0-3.587-1.236-3.587-2.992zm7.293-.94v-1.773l-3.395.58c-1.428.26-2.16.831-2.16 2.024 0 .983.942 1.664 2.22 1.664 1.688 0 3.326-1.05 3.326-2.496h.009zm4.427 3.629v-10.67h1.748v.537c0 .487-.041.832-.193 1.303l-.109.277.042.025.26-.428a3.59 3.59 0 011.773-1.647 5.346 5.346 0 011.496-.345l.664-.025v1.664h-.916c-2.134 0-3.008 1.814-3.008 3.63v5.679H23.92zm12.797.168c-1.512.278-2.882 0-3.562-.705-.513-.538-.748-1.236-.748-2.244v-6.36h-1.689v-1.538h.983c.555 0 .723-.302.723-.832v-1.705l1.748-.53v2.26c0 .404-.168.681-.404.765v.042h2.84v1.538h-2.436v6.04c0 1.496.815 2.009 2.537 1.79v1.471l.008.008zm6.083-5.268V95.7c0-3.034 2.16-5.378 4.991-5.378 2.832 0 5.016 2.244 5.016 5.378v.487c0 3.16-2.05 5.402-5.016 5.402s-4.99-2.285-4.99-5.402zm8.234.151v-.764c0-2.135-1.344-3.84-3.226-3.84s-3.243 1.705-3.243 3.84v.764c0 2.16 1.327 3.84 3.226 3.84s3.243-1.689 3.243-3.84zm4.201 4.949v-9.133h-1.58v-1.537h1.58v-1.47c0-2.05 1-3.093 3.008-3.093.236 0 .874.042 1.193.084l-.025 1.429c-.361-.068-.622-.068-.748-.068-1.193 0-1.646.387-1.663 1.622l-.025 1.496h2.302v1.537h-2.302v9.133h-1.748.008zm14.745 0v-13.41h-4.89V86.34h11.528v1.537h-4.89v13.41h-1.747zm8.26-12.956v-2.008h1.748v2.008H78.24zm0 12.931v-10.67h1.748v10.67H78.24zm3.823-5.058v-.53c0-3.033 2.16-5.36 5.016-5.36 2.857 0 5.016 2.218 5.016 5.36v.555h-8.26v.168c0 2.16 1.345 3.781 3.244 3.781 1.386 0 2.538-.874 3.033-2.344h1.773c-.555 2.302-2.395 3.756-4.806 3.756-2.924 0-5.016-2.286-5.016-5.378v-.008zm8.26-1.26c-.253-1.9-1.58-3.227-3.227-3.227-1.647 0-2.991 1.302-3.243 3.227h6.47zm8.612 6.511c-1.513.278-2.882 0-3.563-.705-.512-.538-.748-1.236-.748-2.244v-6.36h-1.688v-1.538h.983c.554 0 .722-.302.722-.832v-1.705l1.748-.53v2.26c0 .404-.168.681-.403.765v.042h2.84v1.538h-2.437v6.04c0 1.496.815 2.009 2.537 1.79v1.471l.009.008zm.84-5.268V95.7c0-3.034 2.159-5.378 4.991-5.378 2.831 0 5.016 2.244 5.016 5.378v.487c0 3.16-2.05 5.402-5.016 5.402s-4.991-2.285-4.991-5.402zm8.242.151v-.764c0-2.135-1.344-3.84-3.226-3.84s-3.243 1.705-3.243 3.84v.764c0 2.16 1.327 3.84 3.226 3.84s3.243-1.689 3.243-3.84zm3.311-.134v-.53c0-3.033 2.159-5.36 5.016-5.36 2.856 0 5.016 2.218 5.016 5.36v.555h-8.26v.168c0 2.16 1.345 3.781 3.244 3.781 1.386 0 2.537-.874 3.033-2.344h1.773c-.555 2.302-2.395 3.756-4.806 3.756-2.924 0-5.016-2.286-5.016-5.378v-.008zm8.259-1.26c-.252-1.9-1.58-3.227-3.227-3.227-1.646 0-2.991 1.302-3.243 3.227h6.47zm6.528 6.343l-4.142-10.67h1.706l3.52 9.225h.084l3.546-9.225h1.689l-4.117 10.67h-2.286zm8.041 0v-10.67h1.748v.537c0 .487-.042.832-.193 1.303l-.11.277.042.025.261-.428a3.588 3.588 0 011.773-1.647 5.344 5.344 0 011.495-.345l.664-.025v1.664h-.916c-2.134 0-3.008 1.814-3.008 3.63v5.679h-1.756zm7.881 4.462v-1.496c.278.068.488.084.765.084.815 0 1.218-.361 1.748-1.579l.638-1.429-4.268-10.712h1.731l3.369 8.62h.126l3.352-8.62h1.731l-4.907 12.107c-.957 2.243-1.663 3.134-3.31 3.134-.403 0-.681-.025-.983-.109h.008zm14.981-11.822v-.193c0-3.605 1.857-7.688 6.554-7.688 3.461 0 5.848 2.176 6.125 4.974h-1.79c-.26-1.966-1.882-3.436-4.335-3.436-3.479 0-4.781 3.327-4.781 6.125v.235c0 2.949 1.302 6.108 4.781 6.108 2.453 0 4.117-1.453 4.352-3.462h1.79c-.278 2.84-2.689 4.991-6.151 4.991-4.696 0-6.553-3.923-6.553-7.662l.008.008zm14.519 7.36v-10.67h1.748v.537c0 .487-.042.832-.194 1.303l-.109.277.042.025.252-.428a3.592 3.592 0 011.773-1.647 5.343 5.343 0 011.496-.345l.664-.025v1.664h-.916c-2.134 0-3.008 1.814-3.008 3.63v5.679h-1.748zm6.486-5.083v-.53c0-3.033 2.16-5.36 5.016-5.36 2.857 0 5.017 2.218 5.017 5.36v.555h-8.26v.168c0 2.16 1.345 3.781 3.243 3.781 1.387 0 2.538-.874 3.034-2.344h1.772c-.554 2.302-2.394 3.756-4.806 3.756-2.923 0-5.016-2.286-5.016-5.378v-.008zm8.26-1.26c-.252-1.9-1.58-3.227-3.227-3.227-1.647 0-2.991 1.302-3.243 3.227h6.47zm3.201 3.654c0-2.008 1.344-3.007 3.462-3.369l3.159-.537c.445-.068.68-.303.68-.622v-.168c0-1.177-1.025-2.05-2.478-2.05-1.193 0-2.286.529-2.622 1.663h-1.789c.361-1.79 2.008-3.201 4.461-3.201 2.454 0 4.252 1.386 4.252 3.504v7.469h-1.689v-.554c0-.446.042-.815.235-1.236l.126-.319-.025-.025-.345.554c-.815 1.278-2.369 1.883-3.839 1.883-2.118 0-3.588-1.236-3.588-2.992zm7.293-.94v-1.773l-3.395.58c-1.428.26-2.159.831-2.159 2.024 0 .983.941 1.664 2.218 1.664 1.689 0 3.327-1.05 3.327-2.496h.009zm9.292 3.797c-1.512.278-2.882 0-3.562-.705-.513-.538-.748-1.236-.748-2.244v-6.36h-1.689v-1.538h.983c.555 0 .723-.302.723-.832v-1.705l1.748-.53v2.26c0 .404-.168.681-.404.765v.042h2.84v1.538h-2.436v6.04c0 1.496.815 2.009 2.537 1.79v1.471l.008.008zm.849-5.251v-.53c0-3.033 2.16-5.36 5.017-5.36 2.856 0 5.016 2.218 5.016 5.36v.555h-8.26v.168c0 2.16 1.345 3.781 3.244 3.781 1.386 0 2.537-.874 3.033-2.344h1.772c-.554 2.302-2.394 3.756-4.805 3.756-2.924 0-5.017-2.286-5.017-5.378v-.008zm8.26-1.26c-.252-1.9-1.58-3.227-3.227-3.227-1.647 0-2.991 1.302-3.243 3.227h6.47z" fill="#00283F"/><path d="M.008 75.257V55.991h4.916v.538c-.042.69-.152 1.269-.58 2.033l-.151.387.075.076.656-.807c1.226-1.647 3.377-2.689 5.528-2.689 2.958 0 5.067 1.151 6.218 3.185h.15c1.42-2.076 3.799-3.185 6.487-3.185 4.68 0 7.293 2.958 7.293 8.293v11.435h-4.915V63.63c0-2.571-1.151-4.604-3.646-4.604-2.303 0-4.26 1.84-4.26 4.873v11.36h-4.915v-11.63c0-2.57-1.194-4.603-3.647-4.603s-4.302 1.84-4.302 4.873v11.36H.008zm33.819-9.023v-1.227c0-5.453 4.066-9.444 9.712-9.478 5.756.042 9.747 3.916 9.747 9.478v1.571H38.742v.344c0 2.992 1.882 5.378 4.797 5.378 2.11 0 3.765-1.269 4.53-3.529h4.914c-.957 4.377-4.528 7.024-9.444 7.024-5.797 0-9.712-3.873-9.712-9.561zm14.51-2.647c-.386-2.764-2.227-4.57-4.722-4.57-2.495 0-4.411 1.764-4.84 4.57h9.562zm8.243 11.671v-19.19h4.915v.613c-.042.655-.151 1.226-.58 2l-.151.386.075.075.656-.806c1.227-1.689 3.335-2.798 5.722-2.798 4.797-.042 7.41 2.958 7.41 8.444v11.284h-4.873V63.79c0-3.075-1.269-4.764-3.873-4.764-2.605 0-4.378 1.958-4.378 5.066v11.167H56.58zm33.364.268c-3.495.614-6.369.193-7.83-1.075-1.227-1.034-1.765-2.42-1.765-4.411V60.024H77.24v-3.957h1.916c.924 0 1.302-.496 1.302-1.378v-4.201l4.873-1.227v5.083c0 .958-.495 1.462-1.033 1.647v.042l5.529.042v3.958H85.33v9.024c0 2.57 1.496 3.15 4.605 2.797v3.689l.008-.017zm1.925-9.326v-1.151c0-5.487 4.066-9.478 9.712-9.52 5.722.042 9.713 3.958 9.713 9.52V66.2c0 5.755-3.873 9.595-9.713 9.595-5.839 0-9.712-3.915-9.712-9.595zm14.468.571v-2.226c0-3.033-1.84-5.529-4.722-5.529-2.882 0-4.84 2.454-4.84 5.529v2.226c0 2.991 1.84 5.529 4.798 5.529s4.756-2.53 4.756-5.529h.008zm7.99 8.486v-19.19h4.915v.655c0 .849-.117 1.496-.462 2.345l-.227.495.118.076.58-.849c.689-1.193 1.882-2.226 3.184-2.722a7.102 7.102 0 012.302-.496h1.193v4.227l-1.999-.043c-3.185-.041-4.68 2.53-4.68 5.453v10.058h-4.915l-.009-.009zm14.738 0V55.991h4.915v.538c-.042.69-.151 1.269-.58 2.033l-.151.387.075.076.656-.807c1.226-1.647 3.377-2.689 5.528-2.689 2.958 0 5.067 1.151 6.218 3.185h.151c1.42-2.076 3.798-3.185 6.487-3.185 4.68 0 7.293 2.958 7.293 8.293v11.435h-4.916V63.63c0-2.571-1.151-4.604-3.646-4.604-2.302 0-4.26 1.84-4.26 4.873v11.36h-4.915v-11.63c0-2.57-1.193-4.603-3.647-4.603-2.453 0-4.302 1.84-4.302 4.873v11.36h-4.915.009zm33.516-4.949c0-3.797 2.839-5.41 6.948-6.142l5.025-.806c.655-.118 1.033-.462 1.033-.958v-.227c0-1.495-1.496-2.688-3.604-2.688-1.916 0-3.42.924-3.874 2.42h-4.873c.386-3.53 3.84-6.37 8.906-6.37 5.067 0 8.562 2.496 8.562 6.563v13.166h-4.529v-.807c0-.73.151-1.302.462-2.075l.303-.614-.076-.042-.689 1.034c-1.42 2.15-4.335 3.033-6.906 3.033-3.958 0-6.68-2.302-6.68-5.487h-.008zm13.048-1.688v-2.378l-5.066.924c-2.076.387-3.067 1.151-3.067 2.764 0 1.378 1.378 2.345 3.226 2.345 2.529 0 4.915-1.496 4.915-3.647l-.008-.008zm22.266-2.386v-1.227c0-5.453 4.066-9.444 9.712-9.478 5.756.042 9.747 3.916 9.747 9.478v1.571H202.81v.344c0 2.992 1.882 5.378 4.797 5.378 2.109 0 3.764-1.269 4.529-3.529h4.915c-.958 4.377-4.528 7.024-9.444 7.024-5.797 0-9.712-3.873-9.712-9.561zm14.51-2.647c-.387-2.764-2.227-4.57-4.722-4.57-2.495 0-4.411 1.764-4.84 4.57h9.562zm-16.434 11.939c-3.496.614-6.369.193-7.831-1.075-1.227-1.034-1.765-2.42-1.765-4.411V60.024h-3.108v-3.957h1.915c.925 0 1.303-.496 1.303-1.378v-4.201l4.873-1.227v5.083c0 .958-.496 1.462-1.034 1.647v.042l5.529.042v3.958h-4.495v9.024c0 2.57 1.495 3.15 4.604 2.797v3.689l.009-.017z" fill="#002840"/><path d="M147.054 3.386v4.008a8.513 8.513 0 01-2.496 5.814l-.109.11-7.839 7.838a5.507 5.507 0 01-1.37-3.655c0-.806.168-1.562.479-2.26a5.723 5.723 0 011.143-1.672l9.578-9.578.614-.614v.009zm8.889 8.889l-.614.614-6.066 6.066a3.109 3.109 0 01-4.403 0l-.815-.815-.638-.639 2.571-2.57.075-.076.076-.076.143-.143c.101-.092.202-.184.311-.277.252-.227.529-.428.806-.622.059-.042.118-.075.177-.117.109-.076.227-.143.344-.21.37-.21.765-.404 1.168-.555l.353-.126c.328-.11.664-.201 1.017-.277a8.314 8.314 0 011.722-.177h3.789-.016zM123.78 22.72a5.536 5.536 0 01-4.454 3.007c-.067 0-.142.008-.21.017h-.571c-.067 0-.143 0-.21-.017a5.535 5.535 0 01-4.453-3.008 5.558 5.558 0 014.47-3.016c.067 0 .126 0 .193-.009h.571a5.545 5.545 0 014.664 3.025zm35.549 0a5.536 5.536 0 01-4.453 3.007c-.068 0-.143.008-.21.017h-.572c-.067 0-.143 0-.21-.017a5.536 5.536 0 01-4.453-3.008 5.56 5.56 0 014.47-3.016c.067 0 .126 0 .193-.009h.572a5.545 5.545 0 014.663 3.025zM136.61 35.541a5.537 5.537 0 013.008 4.453c0 .067.008.143.016.21v.571c0 .068 0 .143-.016.21a5.537 5.537 0 01-3.008 4.454 5.559 5.559 0 01-3.017-4.47c0-.068 0-.126-.008-.194v-.571a5.543 5.543 0 013.025-4.663zm0-35.541a5.537 5.537 0 013.008 4.453c0 .067.008.143.016.21v.571c0 .068 0 .143-.016.21a5.537 5.537 0 01-3.008 4.454 5.559 5.559 0 01-3.017-4.47c0-.067 0-.126-.008-.194v-.57A5.543 5.543 0 01136.61 0zm-19.334 12.275h4.008a8.52 8.52 0 015.815 2.496l.109.109 7.839 7.84a5.507 5.507 0 01-3.655 1.369 5.501 5.501 0 01-2.26-.48 5.737 5.737 0 01-1.672-1.142l-9.579-9.578-.613-.614h.008zm8.881-8.889l.614.613 6.066 6.067a3.11 3.11 0 010 4.402l-.815.815-.639.639-2.571-2.571-.075-.076-.076-.075-.143-.143c-.092-.101-.185-.202-.277-.311a8.193 8.193 0 01-.622-.807c-.042-.059-.075-.117-.117-.176a8.134 8.134 0 01-.765-1.512l-.126-.353a9.392 9.392 0 01-.277-1.017 8.294 8.294 0 01-.177-1.723V3.37v.017zm.009 38.667v-4.008a8.517 8.517 0 012.495-5.814l.11-.11 7.839-7.839a5.506 5.506 0 011.369 3.655 5.5 5.5 0 01-.479 2.26 5.74 5.74 0 01-1.142 1.672l-9.579 9.579-.613.613v-.008zm-8.889-8.89l.613-.613 6.066-6.066a3.109 3.109 0 014.403 0l.815.815.638.638-2.571 2.571-.075.076-.076.075-.143.143a9.61 9.61 0 01-.31.277 8.33 8.33 0 01-.807.622c-.059.042-.118.076-.177.118a8.296 8.296 0 01-1.512.765l-.353.125a9.51 9.51 0 01-1.016.278 8.33 8.33 0 01-1.723.176h-3.789.017zm38.666 0h-4.008a8.51 8.51 0 01-5.814-2.495l-.109-.11-7.84-7.839a5.507 5.507 0 013.655-1.37 5.5 5.5 0 012.26.48 5.723 5.723 0 011.672 1.142l9.579 9.579.613.613h-.008zm-8.881 8.89l-.614-.614-6.066-6.066a3.11 3.11 0 010-4.403l.815-.815.639-.638 2.571 2.57.075.076.076.076.143.143c.092.1.185.201.277.31.227.253.428.53.622.807.042.059.075.118.117.177.076.109.143.227.21.344.21.37.404.765.555 1.168l.126.353c.109.328.202.664.277 1.017.118.554.177 1.134.177 1.722v3.79-.017z" fill="#F08424"/></g><defs><clipPath id="clip0_17554_1861"><path fill="#fff" d="M0 0h222v105.858H0z"/></clipPath></defs></svg>