<svg width="1275" height="1753" fill="none" xmlns="http://www.w3.org/2000/svg"><g filter="url(#filter0_f_16264_21502)"><ellipse cx="876.4" cy="876.399" rx="475.615" ry="476.716" transform="rotate(-135 876.4 876.399)" fill="url(#paint0_linear_16264_21502)"/></g><path opacity=".7" d="M908.213 1338.85c-95.908-214.81-81.326-472.983 54.759-673.313l15.009-18.922c7.505-9.461 15.01-18.922 22.519-28.383 7.5-9.46 15-18.921 22.51-28.382 3.75-4.73 11.26-14.191 15.01-18.922 172.53-179.129 415.94-255.786 643.18-206.546 95.91 214.804 81.33 472.98-58.51 678.038-3.75 4.73-11.26 14.19-15.01 18.92-7.5 9.47-15.01 18.93-22.51 28.39-7.51 9.46-15.01 18.92-22.52 28.38-158.51 190.24-418.77 268.95-654.437 220.74z" fill="url(#paint1_linear_16264_21502)"/><defs><linearGradient id="paint0_linear_16264_21502" x1="1180.26" y1="767.404" x2="679.435" y2="946.275" gradientUnits="userSpaceOnUse"><stop stop-color="#FFCA00"/><stop offset="1" stop-color="#D93636"/></linearGradient><linearGradient id="paint1_linear_16264_21502" x1="1209.5" y1="428.501" x2="1044.71" y2="1123.96" gradientUnits="userSpaceOnUse"><stop stop-color="#F2EAD0"/><stop offset="1" stop-color="#FD5C3F" stop-opacity=".3"/></linearGradient><filter id="filter0_f_16264_21502" x=".234" y=".234" width="1752.33" height="1752.33" filterUnits="userSpaceOnUse" color-interpolation-filters="sRGB"><feFlood flood-opacity="0" result="BackgroundImageFix"/><feBlend in="SourceGraphic" in2="BackgroundImageFix" result="shape"/><feGaussianBlur stdDeviation="200" result="effect1_foregroundBlur_16264_21502"/></filter></defs></svg>