<svg width="3213" height="1711" fill="none" xmlns="http://www.w3.org/2000/svg"><path d="M0 0h3213v1186H0V0z" fill="#F2A20C"/><mask id="a" style="mask-type:alpha" maskUnits="userSpaceOnUse" x="0" y="0" width="3213" height="1711"><path d="M0 0h3213v1711H0V0z" fill="#F28627"/></mask><g mask="url(#a)"><g filter="url(#filter0_f_17295_16546)"><ellipse cx="2262.15" cy="532.079" rx="1179.77" ry="559.299" transform="rotate(180 2262.15 532.079)" fill="url(#paint0_linear_17295_16546)" fill-opacity=".75"/></g><path opacity=".4" d="M-296.999 494.564l322.08-174.342C211.28 224.108 419.19 205.065 604.758 249.54l11.971 2.869L1600.6 491.204c-41.79 106.769-117.81 199.345-232.84 261.61-65.18 35.283-135.14 54.45-201.73 62.446-62.76 5.921-125.98 2.745-185.843-11.602L-223.014 515.29l-73.985-20.726z" fill="url(#paint1_linear_17295_16546)"/><g filter="url(#filter1_f_17295_16546)"><ellipse cx="590.389" cy="436.809" rx="718.081" ry="1112.5" transform="rotate(-90 590.389 436.809)" fill="url(#paint2_linear_17295_16546)" fill-opacity=".75"/></g><g filter="url(#filter2_f_17295_16546)"><ellipse cx="156" cy="855" rx="977" ry="407" fill="#F15454"/></g><g opacity=".95" filter="url(#filter3_f_17295_16546)"><ellipse cx="237" cy="1290.5" rx="444.5" ry="936" transform="rotate(-90 237 1290.5)" fill="#fff"/></g><g filter="url(#filter4_f_17295_16546)"><ellipse cx="3049" cy="1299.5" rx="444.5" ry="936" transform="rotate(-90 3049 1299.5)" fill="#fff"/></g><g filter="url(#filter5_f_17295_16546)"><ellipse cx="1594" cy="1356.5" rx="444.5" ry="936" transform="rotate(-90 1594 1356.5)" fill="#fff"/></g><path opacity=".3" d="M210.279 633.656c-69.056-97.976-81.843-225.127-24.301-332.812a92975.765 92975.765 0 0116.501-25.818l9.901-15.491 6.601-10.327c78.943-99.966 204.418-155.01 331.23-147.396 69.055 97.977 81.842 225.127 22.65 335.395l-6.6 10.327-9.901 15.49-9.901 15.491c-70.478 104.381-204.897 161.646-336.18 155.141z" fill="url(#paint3_linear_17295_16546)"/></g><defs><filter id="filter0_f_17295_16546" x="782.379" y="-327.22" width="2959.55" height="1718.6" filterUnits="userSpaceOnUse" color-interpolation-filters="sRGB"><feFlood flood-opacity="0" result="BackgroundImageFix"/><feBlend in="SourceGraphic" in2="BackgroundImageFix" result="shape"/><feGaussianBlur stdDeviation="150" result="effect1_foregroundBlur_17295_16546"/></filter><filter id="filter1_f_17295_16546" x="-1122.11" y="-881.271" width="3425" height="2636.16" filterUnits="userSpaceOnUse" color-interpolation-filters="sRGB"><feFlood flood-opacity="0" result="BackgroundImageFix"/><feBlend in="SourceGraphic" in2="BackgroundImageFix" result="shape"/><feGaussianBlur stdDeviation="300" result="effect1_foregroundBlur_17295_16546"/></filter><filter id="filter2_f_17295_16546" x="-1171" y="98" width="2654" height="1514" filterUnits="userSpaceOnUse" color-interpolation-filters="sRGB"><feFlood flood-opacity="0" result="BackgroundImageFix"/><feBlend in="SourceGraphic" in2="BackgroundImageFix" result="shape"/><feGaussianBlur stdDeviation="175" result="effect1_foregroundBlur_17295_16546"/></filter><filter id="filter3_f_17295_16546" x="-899" y="646" width="2272" height="1289" filterUnits="userSpaceOnUse" color-interpolation-filters="sRGB"><feFlood flood-opacity="0" result="BackgroundImageFix"/><feBlend in="SourceGraphic" in2="BackgroundImageFix" result="shape"/><feGaussianBlur stdDeviation="100" result="effect1_foregroundBlur_17295_16546"/></filter><filter id="filter4_f_17295_16546" x="1913" y="655" width="2272" height="1289" filterUnits="userSpaceOnUse" color-interpolation-filters="sRGB"><feFlood flood-opacity="0" result="BackgroundImageFix"/><feBlend in="SourceGraphic" in2="BackgroundImageFix" result="shape"/><feGaussianBlur stdDeviation="100" result="effect1_foregroundBlur_17295_16546"/></filter><filter id="filter5_f_17295_16546" x="458" y="712" width="2272" height="1289" filterUnits="userSpaceOnUse" color-interpolation-filters="sRGB"><feFlood flood-opacity="0" result="BackgroundImageFix"/><feBlend in="SourceGraphic" in2="BackgroundImageFix" result="shape"/><feGaussianBlur stdDeviation="100" result="effect1_foregroundBlur_17295_16546"/></filter><linearGradient id="paint0_linear_17295_16546" x1="2348.5" y1="151.944" x2="2375.18" y2="537.713" gradientUnits="userSpaceOnUse"><stop stop-color="#D93636"/><stop offset="1" stop-color="#F28627" stop-opacity=".3"/></linearGradient><linearGradient id="paint1_linear_17295_16546" x1="1278.47" y1="778.647" x2="1299.09" y2="498.659" gradientUnits="userSpaceOnUse"><stop stop-color="#D93636"/><stop offset="1" stop-color="#F2A20C" stop-opacity=".72"/></linearGradient><linearGradient id="paint2_linear_17295_16546" x1="-127.692" y1="-675.692" x2="1891.32" y2="190.052" gradientUnits="userSpaceOnUse"><stop stop-color="#D93636"/><stop offset="1" stop-color="#F28627" stop-opacity=".3"/></linearGradient><linearGradient id="paint3_linear_17295_16546" x1="402.921" y1="148.067" x2="185.206" y2="467.349" gradientUnits="userSpaceOnUse"><stop stop-color="#D93636"/><stop offset="1" stop-color="#D93636" stop-opacity="0"/></linearGradient></defs></svg>