<svg width="1600" height="1092" fill="none" xmlns="http://www.w3.org/2000/svg"><mask id="a" style="mask-type:alpha" maskUnits="userSpaceOnUse" x="0" y="0" width="1600" height="1781"><path d="M0 0h1600v1781H0V0z" fill="#012840"/></mask><g mask="url(#a)"><path fill="#012840" d="M0 0h1600v1092H0z"/><g filter="url(#filter0_b_373_14032)"><path d="M0 0h1600v1058H0V0z" fill="#012840"/></g><g filter="url(#filter1_f_373_14032)"><circle cx="697" cy="970" r="406" transform="rotate(-90 697 970)" fill="#8AAEC9" fill-opacity=".7"/></g><g filter="url(#filter2_f_373_14032)"><ellipse cx="1369" cy="719" rx="432" ry="433" transform="rotate(-90 1369 719)" fill="url(#paint0_linear_373_14032)"/></g><path opacity=".2" d="M1106.27 762.901c-90.86-203.499-77.04-448.087 51.88-637.873 3.55-4.482 10.66-13.444 14.22-17.926l21.33-26.889 21.33-26.888c3.55-4.482 10.66-13.445 14.22-17.926 163.44-169.701 394.05-242.323 609.33-195.675 90.86 203.498 77.04 448.086-55.43 642.354-3.56 4.481-10.67 13.444-14.22 17.926l-21.33 26.888-21.33 26.889c-150.18 180.23-396.74 254.796-620 209.12z" fill="url(#paint1_linear_373_14032)"/></g><defs><filter id="filter0_b_373_14032" x="-30" y="-30" width="1660" height="1118" filterUnits="userSpaceOnUse" color-interpolation-filters="sRGB"><feFlood flood-opacity="0" result="BackgroundImageFix"/><feGaussianBlur in="BackgroundImageFix" stdDeviation="15"/><feComposite in2="SourceAlpha" operator="in" result="effect1_backgroundBlur_373_14032"/><feBlend in="SourceGraphic" in2="effect1_backgroundBlur_373_14032" result="shape"/></filter><filter id="filter1_f_373_14032" x="-309" y="-36" width="2012" height="2012" filterUnits="userSpaceOnUse" color-interpolation-filters="sRGB"><feFlood flood-opacity="0" result="BackgroundImageFix"/><feBlend in="SourceGraphic" in2="BackgroundImageFix" result="shape"/><feGaussianBlur stdDeviation="300" result="effect1_foregroundBlur_373_14032"/></filter><filter id="filter2_f_373_14032" x="536" y="-113" width="1666" height="1664" filterUnits="userSpaceOnUse" color-interpolation-filters="sRGB"><feFlood flood-opacity="0" result="BackgroundImageFix"/><feBlend in="SourceGraphic" in2="BackgroundImageFix" result="shape"/><feGaussianBlur stdDeviation="200" result="effect1_foregroundBlur_373_14032"/></filter><linearGradient id="paint0_linear_373_14032" x1="1645" y1="620" x2="1190.1" y2="782.468" gradientUnits="userSpaceOnUse"><stop stop-color="#012840"/><stop offset="1" stop-color="#D93636"/></linearGradient><linearGradient id="paint1_linear_373_14032" x1="1573.04" y1="-109.875" x2="1062.39" y2="392.441" gradientUnits="userSpaceOnUse"><stop stop-color="#F2EAD0"/><stop offset="1" stop-color="#F2EAD0" stop-opacity="0"/></linearGradient></defs></svg>