<svg fill="none" viewBox="0 0 1600 1806" xmlns="http://www.w3.org/2000/svg"><path fill="#012840" d="M0 0h1600v1806H0z"/><g clip-path="url(#g)"><mask id="a" x="0" y="0" width="1600" height="1821" style="mask-type:alpha" maskUnits="userSpaceOnUse"><path fill="#012840" d="M0 0h1600v1821H0z"/></mask><g opacity=".44" mask="url(#a)"><g filter="url(#f)" opacity=".6"><ellipse transform="rotate(180 47.059 995.26)" cx="47.059" cy="995.26" rx="1265.5" ry="1109.2" fill="url(#a)"/></g><g filter="url(#e)"><ellipse transform="rotate(180 296.77 1169.2)" cx="296.77" cy="1169.2" rx="828" ry="806.99" fill="#869AE2" fill-opacity=".5"/></g><g filter="url(#d)"><ellipse transform="rotate(180 760 900.99)" cx="760" cy="900.99" rx="828" ry="806.99" fill="#6461FF" fill-opacity=".3"/></g><g filter="url(#c)" opacity=".2"><ellipse transform="rotate(180 839.56 742.4)" cx="839.56" cy="742.4" rx="863" ry="840.73" fill="#F2EAD0"/></g></g></g><defs><filter id="f" x="-1518.4" y="-413.98" width="3131" height="2818.5" color-interpolation-filters="sRGB" filterUnits="userSpaceOnUse"><feFlood flood-opacity="0" result="BackgroundImageFix"/><feBlend in="SourceGraphic" in2="BackgroundImageFix" result="shape"/><feGaussianBlur result="effect1_foregroundBlur_6794_62952" stdDeviation="150"/></filter><filter id="e" x="-831.23" y="62.254" width="2256" height="2214" color-interpolation-filters="sRGB" filterUnits="userSpaceOnUse"><feFlood flood-opacity="0" result="BackgroundImageFix"/><feBlend in="SourceGraphic" in2="BackgroundImageFix" result="shape"/><feGaussianBlur result="effect1_foregroundBlur_6794_62952" stdDeviation="150"/></filter><filter id="d" x="-368" y="-206" width="2256" height="2214" color-interpolation-filters="sRGB" filterUnits="userSpaceOnUse"><feFlood flood-opacity="0" result="BackgroundImageFix"/><feBlend in="SourceGraphic" in2="BackgroundImageFix" result="shape"/><feGaussianBlur result="effect1_foregroundBlur_6794_62952" stdDeviation="150"/></filter><filter id="c" x="-323.44" y="-398.33" width="2326" height="2281.5" color-interpolation-filters="sRGB" filterUnits="userSpaceOnUse"><feFlood flood-opacity="0" result="BackgroundImageFix"/><feBlend in="SourceGraphic" in2="BackgroundImageFix" result="shape"/><feGaussianBlur result="effect1_foregroundBlur_6794_62952" stdDeviation="150"/></filter><radialGradient id="a" cx="0" cy="0" r="1" gradientTransform="scale(1185.2 1038.8) rotate(90 -.36 .4)" gradientUnits="userSpaceOnUse"><stop stop-color="#012840" offset="0"/><stop stop-color="#012840" stop-opacity="0" offset="1"/></radialGradient><clipPath id="g"><path fill="#fff" d="M0 0h1600v1806H0z"/></clipPath></defs></svg>