<svg width="22" height="21" viewBox="0 0 22 21" fill="none" xmlns="http://www.w3.org/2000/svg">
<g clip-path="url(#clip0_8863_53316)">
<path d="M9.28629 15.9779C4.97059 15.9779 1.46094 12.4682 1.46094 8.13572C1.46094 3.82002 4.97059 0.310364 9.28629 0.310364C13.602 0.310364 17.1116 3.82002 17.1116 8.13572C17.1284 12.4682 13.6188 15.9779 9.28629 15.9779ZM9.28629 2.99718C6.44834 2.99718 4.14776 5.29777 4.14776 8.13572C4.14776 10.9737 6.44834 13.2743 9.28629 13.2743C12.1242 13.2743 14.4248 10.9737 14.4248 8.13572C14.4248 5.29777 12.1242 2.99718 9.28629 2.99718Z" fill="#F2A20C"/>
<path d="M21.4619 18.4632L21.1932 18.7319C20.0345 19.8905 18.1537 19.8905 16.995 18.7319L14.3418 16.0954L16.7096 13.7277L21.4619 18.4632Z" fill="#D93636"/>
</g>
<defs>
<clipPath id="clip0_8863_53316">
<rect width="20" height="19.2947" fill="white" transform="translate(1.46094 0.310364)"/>
</clipPath>
</defs>
</svg>
